  0
SECTION
  2
HEADER
  9
$ACADVER
  1
AC1027
  9
$ACADMAINTVER
 70
   125
  9
$DWGCODEPAGE
  3
ANSI_1252
  9
$REQUIREDVERSIONS
160
                 0
  9
$INSBASE
 10
0.0
 20
0.0
 30
0.0
  9
$EXTMIN
 10
1.000000000000000E+20
 20
1.000000000000000E+20
 30
1.000000000000000E+20
  9
$EXTMAX
 10
-1.000000000000000E+20
 20
-1.000000000000000E+20
 30
-1.000000000000000E+20
  9
$LIMMIN
 10
0.0
 20
0.0
  9
$LIMMAX
 10
12.0
 20
9.0
  9
$ORTHOMODE
 70
     0
  9
$REGENMODE
 70
     1
  9
$FILLMODE
 70
     1
  9
$QTEXTMODE
 70
     0
  9
$MIRRTEXT
 70
     0
  9
$LTSCALE
 40
1.0
  9
$ATTMODE
 70
     1
  9
$TEXTSIZE
 40
0.2
  9
$TRACEWID
 40
0.05
  9
$TEXTSTYLE
  7
Standard
  9
$CLAYER
  8
0
  9
$CELTYPE
  6
ByLayer
  9
$CECOLOR
 62
   256
  9
$CELTSCALE
 40
1.0
  9
$DISPSILH
 70
     0
  9
$DIMSCALE
 40
1.0
  9
$DIMASZ
 40
0.18
  9
$DIMEXO
 40
0.0625
  9
$DIMDLI
 40
0.38
  9
$DIMRND
 40
0.0
  9
$DIMDLE
 40
0.0
  9
$DIMEXE
 40
0.18
  9
$DIMTP
 40
0.0
  9
$DIMTM
 40
0.0
  9
$DIMTXT
 40
0.18
  9
$DIMCEN
 40
0.09
  9
$DIMTSZ
 40
0.0
  9
$DIMTOL
 70
     0
  9
$DIMLIM
 70
     0
  9
$DIMTIH
 70
     1
  9
$DIMTOH
 70
     1
  9
$DIMSE1
 70
     0
  9
$DIMSE2
 70
     0
  9
$DIMTAD
 70
     0
  9
$DIMZIN
 70
     0
  9
$DIMBLK
  1

  9
$DIMASO
 70
     1
  9
$DIMSHO
 70
     1
  9
$DIMPOST
  1

  9
$DIMAPOST
  1

  9
$DIMALT
 70
     0
  9
$DIMALTD
 70
     2
  9
$DIMALTF
 40
25.4
  9
$DIMLFAC
 40
1.0
  9
$DIMTOFL
 70
     0
  9
$DIMTVP
 40
0.0
  9
$DIMTIX
 70
     0
  9
$DIMSOXD
 70
     0
  9
$DIMSAH
 70
     0
  9
$DIMBLK1
  1

  9
$DIMBLK2
  1

  9
$DIMSTYLE
  2
Standard
  9
$DIMCLRD
 70
     0
  9
$DIMCLRE
 70
     0
  9
$DIMCLRT
 70
     0
  9
$DIMTFAC
 40
1.0
  9
$DIMGAP
 40
0.09
  9
$DIMJUST
 70
     0
  9
$DIMSD1
 70
     0
  9
$DIMSD2
 70
     0
  9
$DIMTOLJ
 70
     1
  9
$DIMTZIN
 70
     0
  9
$DIMALTZ
 70
     0
  9
$DIMALTTZ
 70
     0
  9
$DIMUPT
 70
     0
  9
$DIMDEC
 70
     4
  9
$DIMTDEC
 70
     4
  9
$DIMALTU
 70
     2
  9
$DIMALTTD
 70
     2
  9
$DIMTXSTY
  7
Standard
  9
$DIMAUNIT
 70
     0
  9
$DIMADEC
 70
     0
  9
$DIMALTRND
 40
0.0
  9
$DIMAZIN
 70
     0
  9
$DIMDSEP
 70
    46
  9
$DIMATFIT
 70
     3
  9
$DIMFRAC
 70
     0
  9
$DIMLDRBLK
  1

  9
$DIMLUNIT
 70
     2
  9
$DIMLWD
 70
    -2
  9
$DIMLWE
 70
    -2
  9
$DIMTMOVE
 70
     0
  9
$DIMFXL
 40
1.0
  9
$DIMFXLON
 70
     0
  9
$DIMJOGANG
 40
0.7853981633974483
  9
$DIMTFILL
 70
     0
  9
$DIMTFILLCLR
 70
     0
  9
$DIMARCSYM
 70
     0
  9
$DIMLTYPE
  6

  9
$DIMLTEX1
  6

  9
$DIMLTEX2
  6

  9
$DIMTXTDIRECTION
 70
     0
  9
$LUNITS
 70
     2
  9
$LUPREC
 70
     4
  9
$SKETCHINC
 40
0.1
  9
$FILLETRAD
 40
0.0
  9
$AUNITS
 70
     0
  9
$AUPREC
 70
     0
  9
$MENU
  1
.
  9
$ELEVATION
 40
0.0
  9
$PELEVATION
 40
0.0
  9
$THICKNESS
 40
0.0
  9
$LIMCHECK
 70
     0
  9
$CHAMFERA
 40
0.0
  9
$CHAMFERB
 40
0.0
  9
$CHAMFERC
 40
0.0
  9
$CHAMFERD
 40
0.0
  9
$SKPOLY
 70
     0
  9
$TDCREATE
 40
2460167.734594908
  9
$TDUCREATE
 40
2460167.901261574
  9
$TDUPDATE
 40
2460167.734594908
  9
$TDUUPDATE
 40
2460167.901261574
  9
$TDINDWG
 40
0.0000000000
  9
$TDUSRTIMER
 40
0.0000000000
  9
$USRTIMER
 70
     1
  9
$ANGBASE
 50
0.0
  9
$ANGDIR
 70
     0
  9
$PDMODE
 70
     0
  9
$PDSIZE
 40
0.0
  9
$PLINEWID
 40
0.0
  9
$SPLFRAME
 70
     0
  9
$SPLINETYPE
 70
     6
  9
$SPLINESEGS
 70
     8
  9
$HANDSEED
  5
98
  9
$SURFTAB1
 70
     6
  9
$SURFTAB2
 70
     6
  9
$SURFTYPE
 70
     6
  9
$SURFU
 70
     6
  9
$SURFV
 70
     6
  9
$UCSBASE
  2

  9
$UCSNAME
  2

  9
$UCSORG
 10
0.0
 20
0.0
 30
0.0
  9
$UCSXDIR
 10
1.0
 20
0.0
 30
0.0
  9
$UCSYDIR
 10
0.0
 20
1.0
 30
0.0
  9
$UCSORTHOREF
  2

  9
$UCSORTHOVIEW
 70
     0
  9
$UCSORGTOP
 10
0.0
 20
0.0
 30
0.0
  9
$UCSORGBOTTOM
 10
0.0
 20
0.0
 30
0.0
  9
$UCSORGLEFT
 10
0.0
 20
0.0
 30
0.0
  9
$UCSORGRIGHT
 10
0.0
 20
0.0
 30
0.0
  9
$UCSORGFRONT
 10
0.0
 20
0.0
 30
0.0
  9
$UCSORGBACK
 10
0.0
 20
0.0
 30
0.0
  9
$PUCSBASE
  2

  9
$PUCSNAME
  2

  9
$PUCSORG
 10
0.0
 20
0.0
 30
0.0
  9
$PUCSXDIR
 10
1.0
 20
0.0
 30
0.0
  9
$PUCSYDIR
 10
0.0
 20
1.0
 30
0.0
  9
$PUCSORTHOREF
  2

  9
$PUCSORTHOVIEW
 70
     0
  9
$PUCSORGTOP
 10
0.0
 20
0.0
 30
0.0
  9
$PUCSORGBOTTOM
 10
0.0
 20
0.0
 30
0.0
  9
$PUCSORGLEFT
 10
0.0
 20
0.0
 30
0.0
  9
$PUCSORGRIGHT
 10
0.0
 20
0.0
 30
0.0
  9
$PUCSORGFRONT
 10
0.0
 20
0.0
 30
0.0
  9
$PUCSORGBACK
 10
0.0
 20
0.0
 30
0.0
  9
$USERI1
 70
     0
  9
$USERI2
 70
     0
  9
$USERI3
 70
     0
  9
$USERI4
 70
     0
  9
$USERI5
 70
     0
  9
$USERR1
 40
0.0
  9
$USERR2
 40
0.0
  9
$USERR3
 40
0.0
  9
$USERR4
 40
0.0
  9
$USERR5
 40
0.0
  9
$WORLDVIEW
 70
     1
  9
$SHADEDGE
 70
     3
  9
$SHADEDIF
 70
    70
  9
$TILEMODE
 70
     1
  9
$MAXACTVP
 70
    64
  9
$PINSBASE
 10
0.0
 20
0.0
 30
0.0
  9
$PLIMCHECK
 70
     0
  9
$PEXTMIN
 10
1.000000000000000E+20
 20
1.000000000000000E+20
 30
1.000000000000000E+20
  9
$PEXTMAX
 10
-1.000000000000000E+20
 20
-1.000000000000000E+20
 30
-1.000000000000000E+20
  9
$PLIMMIN
 10
0.0
 20
0.0
  9
$PLIMMAX
 10
12.0
 20
9.0
  9
$UNITMODE
 70
     0
  9
$VISRETAIN
 70
     1
  9
$PLINEGEN
 70
     0
  9
$PSLTSCALE
 70
     1
  9
$TREEDEPTH
 70
  3020
  9
$CMLSTYLE
  2
Standard
  9
$CMLJUST
 70
     0
  9
$CMLSCALE
 40
1.0
  9
$PROXYGRAPHICS
 70
     1
  9
$MEASUREMENT
 70
     0
  9
$CELWEIGHT
370
    -1
  9
$ENDCAPS
280
     0
  9
$JOINSTYLE
280
     0
  9
$LWDISPLAY
290
     1
  9
$INSUNITS
 70
     4
  9
$HYPERLINKBASE
  1

  9
$STYLESHEET
  1

  9
$XEDIT
290
     1
  9
$CEPSNTYPE
380
     0
  9
$PSTYLEMODE
290
     1
  9
$FINGERPRINTGUID
  2
{3C91909B-A1C9-B448-A579-AE31042BF934}
  9
$VERSIONGUID
  2
{CF85EAAA-2AAC-E644-9975-53170B226B6D}
  9
$EXTNAMES
290
     1
  9
$PSVPSCALE
 40
0.0
  9
$OLESTARTUP
290
     0
  9
$SORTENTS
280
   127
  9
$INDEXCTL
280
     0
  9
$HIDETEXT
280
     1
  9
$XCLIPFRAME
280
     2
  9
$HALOGAP
280
     0
  9
$OBSCOLOR
 70
   257
  9
$OBSLTYPE
280
     0
  9
$INTERSECTIONDISPLAY
280
     0
  9
$INTERSECTIONCOLOR
 70
   257
  9
$DIMASSOC
280
     2
  9
$PROJECTNAME
  1

  9
$CAMERADISPLAY
290
     0
  9
$LENSLENGTH
 40
50.0
  9
$CAMERAHEIGHT
 40
0.0
  9
$STEPSPERSEC
 40
2.0
  9
$STEPSIZE
 40
6.0
  9
$3DDWFPREC
 40
2.0
  9
$PSOLWIDTH
 40
0.25
  9
$PSOLHEIGHT
 40
4.0
  9
$LOFTANG1
 40
1.570796326794896
  9
$LOFTANG2
 40
1.570796326794896
  9
$LOFTMAG1
 40
0.0
  9
$LOFTMAG2
 40
0.0
  9
$LOFTPARAM
 70
     7
  9
$LOFTNORMALS
280
     1
  9
$LATITUDE
 40
37.795
  9
$LONGITUDE
 40
-122.394
  9
$NORTHDIRECTION
 40
0.0
  9
$TIMEZONE
 70
 -8000
  9
$LIGHTGLYPHDISPLAY
280
     1
  9
$TILEMODELIGHTSYNCH
280
     1
  9
$CMATERIAL
347
11
  9
$SOLIDHIST
280
     0
  9
$SHOWHIST
280
     1
  9
$DWFFRAME
280
     2
  9
$DGNFRAME
280
     0
  9
$REALWORLDSCALE
290
     1
  9
$INTERFERECOLOR
 62
     1
  9
$INTERFEREOBJVS
345
33
  9
$INTERFEREVPVS
346
30
  9
$CSHADOW
280
     0
  9
$SHADOWPLANELOCATION
 40
0.0
  0
ENDSEC
  0
SECTION
  2
CLASSES
  0
CLASS
  1
ACDBDICTIONARYWDFLT
  2
AcDbDictionaryWithDefault
  3
ObjectDBX Classes
 90
        0
 91
        1
280
     0
281
     0
  0
CLASS
  1
MATERIAL
  2
AcDbMaterial
  3
ObjectDBX Classes
 90
     1153
 91
        3
280
     0
281
     0
  0
CLASS
  1
VISUALSTYLE
  2
AcDbVisualStyle
  3
ObjectDBX Classes
 90
     4095
 91
       24
280
     0
281
     0
  0
CLASS
  1
SCALE
  2
AcDbScale
  3
ObjectDBX Classes
 90
     1153
 91
       17
280
     0
281
     0
  0
CLASS
  1
TABLESTYLE
  2
AcDbTableStyle
  3
ObjectDBX Classes
 90
     4095
 91
        1
280
     0
281
     0
  0
CLASS
  1
MLEADERSTYLE
  2
AcDbMLeaderStyle
  3
ACDB_MLEADERSTYLE_CLASS
 90
     4095
 91
        1
280
     0
281
     0
  0
CLASS
  1
ACDBSECTIONVIEWSTYLE
  2
AcDbSectionViewStyle
  3
ObjectDBX Classes
 90
     1025
 91
        1
280
     0
281
     0
  0
CLASS
  1
ACDBDETAILVIEWSTYLE
  2
AcDbDetailViewStyle
  3
ObjectDBX Classes
 90
     1025
 91
        1
280
     0
281
     0
  0
CLASS
  1
DICTIONARYVAR
  2
AcDbDictionaryVar
  3
ObjectDBX Classes
 90
        0
 91
        5
280
     0
281
     0
  0
CLASS
  1
CELLSTYLEMAP
  2
AcDbCellStyleMap
  3
ObjectDBX Classes
 90
     1152
 91
        1
280
     0
281
     0
  0
ENDSEC
  0
SECTION
  2
TABLES
  0
TABLE
  2
VPORT
  5
8
330
0
100
AcDbSymbolTable
 70
     1
1001
ACAD
1000
DbSaveVer
1071
      278
  0
VPORT
  5
57
330
8
100
AcDbSymbolTableRecord
100
AcDbViewportTableRecord
  2
*Active
 70
     0
 10
0.0
 20
0.0
 11
1.0
 21
1.0
 12
0.0
 22
0.0
 13
0.0
 23
0.0
 14
1.0
 24
1.0
 15
0.0
 25
0.0
 16
0.0
 26
0.0
 36
1.0
 17
85.80957736507945
 27
64.24408245515185
 37
0.0
 40
136.9530653180277
 41
1.323279486410773
 42
50.0
 43
0.0
 44
0.0
 50
0.0
 51
0.0
 71
     0
 72
   100
 73
     1
 74
     1
 75
     0
 76
     0
 77
     0
 78
     0
281
     0
 65
     1
110
0.0
120
0.0
130
0.0
111
1.0
121
0.0
131
0.0
112
0.0
122
1.0
132
0.0
 79
     0
146
0.0
 60
     3
 61
     5
292
     1
282
     1
141
0.0
142
0.0
 63
   250
421
  3355443
  0
ENDTAB
  0
TABLE
  2
LTYPE
  5
5
330
0
100
AcDbSymbolTable
 70
     1
  0
LTYPE
  5
5B
330
5
100
AcDbSymbolTableRecord
100
AcDbLinetypeTableRecord
  2
ByBlock
 70
     0
  3

 72
    65
 73
     0
 40
0.0
  0
LTYPE
  5
5C
330
5
100
AcDbSymbolTableRecord
100
AcDbLinetypeTableRecord
  2
ByLayer
 70
     0
  3

 72
    65
 73
     0
 40
0.0
  0
LTYPE
  5
5D
330
5
100
AcDbSymbolTableRecord
100
AcDbLinetypeTableRecord
  2
Continuous
 70
     0
  3
Solid line
 72
    65
 73
     0
 40
0.0
  0
ENDTAB
  0
TABLE
  2
LAYER
  5
2
330
0
100
AcDbSymbolTable
 70
    12
  0
LAYER
  5
54
330
2
100
AcDbSymbolTableRecord
100
AcDbLayerTableRecord
  2
0
 70
     0
 62
     7
  6
Continuous
370
    -3
390
F
347
21
348
0
  0
LAYER
  5
78
330
2
100
AcDbSymbolTableRecord
100
AcDbLayerTableRecord
  2
re3f
 70
     1
 62
     7
  6
Continuous
370
     0
390
F
347
21
348
0
  0
LAYER
  5
79
330
2
100
AcDbSymbolTableRecord
100
AcDbLayerTableRecord
  2
graphics
 70
     0
 62
     7
  6
Continuous
370
     0
390
F
347
21
348
0
  0
LAYER
  5
82
330
2
100
AcDbSymbolTableRecord
100
AcDbLayerTableRecord
  2
text
 70
     1
 62
     7
  6
Continuous
370
     0
390
F
347
21
348
0
  0
LAYER
  5
83
330
2
100
AcDbSymbolTableRecord
100
AcDbLayerTableRecord
  2
text outlines
 70
     1
 62
     7
  6
Continuous
370
     0
390
F
347
21
348
0
  0
LAYER
  5
84
330
2
100
AcDbSymbolTableRecord
100
AcDbLayerTableRecord
  2
BORDER
 70
     1
 62
     7
  6
Continuous
370
     0
390
F
347
21
348
0
  0
LAYER
  5
85
330
2
100
AcDbSymbolTableRecord
100
AcDbLayerTableRecord
  2
border outline stroke
 70
     1
 62
     7
  6
Continuous
370
     0
390
F
347
21
348
0
  0
LAYER
  5
86
330
2
100
AcDbSymbolTableRecord
100
AcDbLayerTableRecord
  2
holes
 70
     1
 62
     7
  6
Continuous
370
     0
390
F
347
21
348
0
  0
LAYER
  5
87
330
2
100
AcDbSymbolTableRecord
100
AcDbLayerTableRecord
  2
panel-frame
 70
     1
 62
     7
  6
Continuous
370
     0
390
F
347
21
348
0
  0
LAYER
  5
88
330
2
100
AcDbSymbolTableRecord
100
AcDbLayerTableRecord
  2
panelll
 70
     1
 62
     7
  6
Continuous
370
     0
390
F
347
21
348
0
  0
LAYER
  5
89
330
2
100
AcDbSymbolTableRecord
100
AcDbLayerTableRecord
  2
Layer 6
 70
     1
 62
     7
  6
Continuous
370
     0
390
F
347
21
348
0
  0
LAYER
  5
8A
330
2
100
AcDbSymbolTableRecord
100
AcDbLayerTableRecord
  2
lineup
 70
     1
 62
     7
  6
Continuous
370
     0
390
F
347
21
348
0
  0
ENDTAB
  0
TABLE
  2
STYLE
  5
3
330
0
100
AcDbSymbolTable
 70
     2
  0
STYLE
  5
55
330
3
100
AcDbSymbolTableRecord
100
AcDbTextStyleTableRecord
  2
Standard
 70
     0
 40
0.0
 41
1.0
 50
0.0
 71
     0
 42
0.2
  3
txt
  4

  0
STYLE
  5
5A
330
3
100
AcDbSymbolTableRecord
100
AcDbTextStyleTableRecord
  2
Annotative
 70
     0
 40
0.0
 41
1.0
 50
0.0
 71
     0
 42
0.2
  3
txt
  4

1001
AcadAnnotative
1000
AnnotativeData
1002
{
1070
     1
1070
     1
1002
}
  0
ENDTAB
  0
TABLE
  2
VIEW
  5
6
330
0
100
AcDbSymbolTable
 70
     0
  0
ENDTAB
  0
TABLE
  2
UCS
  5
7
330
0
100
AcDbSymbolTable
 70
     0
  0
ENDTAB
  0
TABLE
  2
APPID
  5
9
330
0
100
AcDbSymbolTable
 70
     2
  0
APPID
  5
56
330
9
100
AcDbSymbolTableRecord
100
AcDbRegAppTableRecord
  2
ACAD
 70
     0
  0
APPID
  5
5E
330
9
100
AcDbSymbolTableRecord
100
AcDbRegAppTableRecord
  2
AcadAnnotative
 70
     0
  0
ENDTAB
  0
TABLE
  2
DIMSTYLE
  5
A
330
0
100
AcDbSymbolTable
 70
     2
100
AcDbDimStyleTable
 71
     0
  0
DIMSTYLE
105
58
330
A
100
AcDbSymbolTableRecord
100
AcDbDimStyleTableRecord
  2
Standard
 70
     0
340
55
  0
DIMSTYLE
105
59
330
A
100
AcDbSymbolTableRecord
100
AcDbDimStyleTableRecord
  2
Annotative
 70
     0
340
55
1001
AcadAnnotative
1000
AnnotativeData
1002
{
1070
     1
1070
     1
1002
}
  0
ENDTAB
  0
TABLE
  2
BLOCK_RECORD
  5
1
330
0
100
AcDbSymbolTable
 70
     2
  0
BLOCK_RECORD
  5
70
330
1
100
AcDbSymbolTableRecord
100
AcDbBlockTableRecord
  2
*Model_Space
340
73
 70
     0
280
     1
281
     0
  0
BLOCK_RECORD
  5
6C
330
1
100
AcDbSymbolTableRecord
100
AcDbBlockTableRecord
  2
*Paper_Space
340
6F
 70
     0
280
     1
281
     0
  0
BLOCK_RECORD
  5
74
330
1
100
AcDbSymbolTableRecord
100
AcDbBlockTableRecord
  2
*Paper_Space0
340
77
 70
     0
280
     1
281
     0
  0
BLOCK_RECORD
  5
7A
330
1
100
AcDbSymbolTableRecord
100
AcDbBlockTableRecord
  2
Block_0
340
0
102
{BLKREFS
331
7B
102
}
 70
     0
280
     1
281
     0
  0
ENDTAB
  0
ENDSEC
  0
SECTION
  2
BLOCKS
  0
BLOCK
  5
71
330
70
100
AcDbEntity
  8
0
100
AcDbBlockBegin
  2
*Model_Space
 70
     0
 10
0.0
 20
0.0
 30
0.0
  3
*Model_Space
  1

  0
ENDBLK
  5
72
330
70
100
AcDbEntity
  8
0
100
AcDbBlockEnd
  0
BLOCK
  5
6D
330
6C
100
AcDbEntity
 67
     1
  8
0
100
AcDbBlockBegin
  2
*Paper_Space
 70
     0
 10
0.0
 20
0.0
 30
0.0
  3
*Paper_Space
  1

  0
ENDBLK
  5
6E
330
6C
100
AcDbEntity
 67
     1
  8
0
100
AcDbBlockEnd
  0
BLOCK
  5
75
330
74
100
AcDbEntity
 67
     1
  8
0
100
AcDbBlockBegin
  2
*Paper_Space0
 70
     0
 10
0.0
 20
0.0
 30
0.0
  3
*Paper_Space0
  1

  0
ENDBLK
  5
76
330
74
100
AcDbEntity
 67
     1
  8
0
100
AcDbBlockEnd
  0
BLOCK
  5
7C
330
7A
100
AcDbEntity
  8
0
100
AcDbBlockBegin
  2
Block_0
 70
     0
 10
0.0
 20
0.0
 30
0.0
  3
Block_0
  1

  0
SPLINE
  5
7E
330
7A
100
AcDbEntity
  8
graphics
100
AcDbSpline
210
0.0
220
0.0
230
1.0
 70
    11
 71
     3
 72
    77
 73
    73
 74
     0
 42
0.0000000001
 43
0.0000000001
 40
0.0
 40
0.0
 40
0.0
 40
0.0
 40
1.0
 40
1.0
 40
1.0
 40
2.0
 40
2.0
 40
2.0
 40
3.0
 40
3.0
 40
3.0
 40
4.0
 40
4.0
 40
4.0
 40
5.0
 40
5.0
 40
5.0
 40
6.0
 40
6.0
 40
6.0
 40
7.0
 40
7.0
 40
7.0
 40
8.0
 40
8.0
 40
8.0
 40
9.0
 40
9.0
 40
9.0
 40
10.0
 40
10.0
 40
10.0
 40
11.0
 40
11.0
 40
11.0
 40
12.0
 40
12.0
 40
12.0
 40
13.0
 40
13.0
 40
13.0
 40
14.0
 40
14.0
 40
14.0
 40
15.0
 40
15.0
 40
15.0
 40
16.0
 40
16.0
 40
16.0
 40
17.0
 40
17.0
 40
17.0
 40
18.0
 40
18.0
 40
18.0
 40
19.0
 40
19.0
 40
19.0
 40
20.0
 40
20.0
 40
20.0
 40
21.0
 40
21.0
 40
21.0
 40
22.0
 40
22.0
 40
22.0
 40
23.0
 40
23.0
 40
23.0
 40
24.0
 40
24.0
 40
24.0
 40
24.0
 10
11.10371589868711
 20
92.92652887788177
 30
0.0
 10
11.10371589868711
 20
92.92652887788177
 30
0.0
 10
11.10371589868711
 20
93.72631343700376
 30
0.0
 10
11.10371589868711
 20
93.72631343700376
 30
0.0
 10
11.10371589868711
 20
93.72631343700376
 30
0.0
 10
11.10371589868711
 20
94.52609799612803
 30
0.0
 10
11.10371589868711
 20
94.52609799612803
 30
0.0
 10
11.10371589868711
 20
94.52609799612803
 30
0.0
 10
11.65156735439593
 20
94.52609799612803
 30
0.0
 10
11.65156735439593
 20
94.52609799612803
 30
0.0
 10
11.65156735439593
 20
94.52609799612803
 30
0.0
 10
12.19941881010412
 20
94.52609799612803
 30
0.0
 10
12.19941881010412
 20
94.52609799612803
 30
0.0
 10
12.19941881010412
 20
94.52609799612803
 30
0.0
 10
12.19941881010412
 20
93.72631343700376
 30
0.0
 10
12.19941881010412
 20
93.72631343700376
 30
0.0
 10
12.19941881010412
 20
93.72631343700376
 30
0.0
 10
12.19941881010412
 20
92.92652887788177
 30
0.0
 10
12.19941881010412
 20
92.92652887788177
 30
0.0
 10
12.19941881010412
 20
92.92652887788177
 30
0.0
 10
12.98315319941504
 20
92.92652887788177
 30
0.0
 10
12.98315319941504
 20
92.92652887788177
 30
0.0
 10
12.98315319941504
 20
92.92652887788177
 30
0.0
 10
13.76688758872564
 20
92.92652887788177
 30
0.0
 10
13.76688758872564
 20
92.92652887788177
 30
0.0
 10
13.76688758872564
 20
92.92652887788177
 30
0.0
 10
13.76688758872564
 20
93.11656934395704
 30
0.0
 10
13.76688758872564
 20
93.11656934395704
 30
0.0
 10
13.76688758872564
 20
93.11656934395704
 30
0.0
 10
13.76688758872564
 20
93.30660981003234
 30
0.0
 10
13.76688758872564
 20
93.30660981003234
 30
0.0
 10
13.76688758872564
 20
93.30660981003234
 30
0.0
 10
13.20508417358473
 20
93.30660981003234
 30
0.0
 10
13.20508417358473
 20
93.30660981003234
 30
0.0
 10
13.20508417358473
 20
93.30660981003234
 30
0.0
 10
12.64328075844446
 20
93.30660981003234
 30
0.0
 10
12.64328075844446
 20
93.30660981003234
 30
0.0
 10
12.64328075844446
 20
93.30660981003234
 30
0.0
 10
12.64328075844446
 20
94.03616952094415
 30
0.0
 10
12.64328075844446
 20
94.03616952094415
 30
0.0
 10
12.64328075844446
 20
94.03616952094415
 30
0.0
 10
12.64328075844446
 20
94.76572923185624
 30
0.0
 10
12.64328075844446
 20
94.76572923185624
 30
0.0
 10
12.64328075844446
 20
94.80451334458066
 30
0.0
 10
12.62492237088981
 20
94.83962576868483
 30
0.0
 10
12.59524087397657
 20
94.86504216460522
 30
0.0
 10
12.56555937706557
 20
94.89045856053074
 30
0.0
 10
12.52455477079309
 20
94.90617892827252
 30
0.0
 10
12.47926233336065
 20
94.90617892827252
 30
0.0
 10
12.47926233336065
 20
94.90617892827252
 30
0.0
 10
11.65156735440267
 20
94.90617892827252
 30
0.0
 10
11.65156735440267
 20
94.90617892827252
 30
0.0
 10
11.65156735440267
 20
94.90617892827252
 30
0.0
 10
10.82387237544405
 20
94.90617892827252
 30
0.0
 10
10.82387237544405
 20
94.90617892827252
 30
0.0
 10
10.77857993801033
 20
94.90617892827252
 30
0.0
 10
10.73757533173913
 20
94.89045856053074
 30
0.0
 10
10.70789383482685
 20
94.86504216460522
 30
0.0
 10
10.67821233791361
 20
94.83962576868483
 30
0.0
 10
10.65985395035896
 20
94.80451334458066
 30
0.0
 10
10.65985395035896
 20
94.76572923185624
 30
0.0
 10
10.65985395035896
 20
94.76572923185624
 30
0.0
 10
10.65985395035896
 20
93.8461290548698
 30
0.0
 10
10.65985395035896
 20
93.8461290548698
 30
0.0
 10
10.65985395035896
 20
93.8461290548698
 30
0.0
 10
10.65985395035896
 20
92.92652887788177
 30
0.0
 10
10.65985395035896
 20
92.92652887788177
 30
0.0
 10
10.65985395035896
 20
92.92652887788177
 30
0.0
 10
10.88178492452319
 20
92.92652887788177
 30
0.0
 10
10.88178492452319
 20
92.92652887788177
 30
0.0
 10
10.88178492452319
 20
92.92652887788177
 30
0.0
 10
11.10371589868711
 20
92.92652887788177
 30
0.0
 10
11.10371589868711
 20
92.92652887788177
 30
0.0
  0
HATCH
  5
7F
330
7A
100
AcDbEntity
  8
graphics
 62
     7
440
 33554687
100
AcDbHatch
 10
0.0
 20
0.0
 30
0.0
210
0.0
220
0.0
230
1.0
  2
SOLID
 70
     1
 71
     1
 91
        1
 92
        1
 93
        1
 72
     4
 94
        3
 73
     0
 74
     0
 95
       77
 96
       73
 40
0.0
 40
0.0
 40
0.0
 40
0.0
 40
1.0
 40
1.0
 40
1.0
 40
2.0
 40
2.0
 40
2.0
 40
3.0
 40
3.0
 40
3.0
 40
4.0
 40
4.0
 40
4.0
 40
5.0
 40
5.0
 40
5.0
 40
6.0
 40
6.0
 40
6.0
 40
7.0
 40
7.0
 40
7.0
 40
8.0
 40
8.0
 40
8.0
 40
9.0
 40
9.0
 40
9.0
 40
10.0
 40
10.0
 40
10.0
 40
11.0
 40
11.0
 40
11.0
 40
12.0
 40
12.0
 40
12.0
 40
13.0
 40
13.0
 40
13.0
 40
14.0
 40
14.0
 40
14.0
 40
15.0
 40
15.0
 40
15.0
 40
16.0
 40
16.0
 40
16.0
 40
17.0
 40
17.0
 40
17.0
 40
18.0
 40
18.0
 40
18.0
 40
19.0
 40
19.0
 40
19.0
 40
20.0
 40
20.0
 40
20.0
 40
21.0
 40
21.0
 40
21.0
 40
22.0
 40
22.0
 40
22.0
 40
23.0
 40
23.0
 40
23.0
 40
24.0
 40
24.0
 40
24.0
 40
24.0
 10
11.10371589868711
 20
92.92652887788177
 10
11.10371589868711
 20
92.92652887788177
 10
11.10371589868711
 20
93.72631343700376
 10
11.10371589868711
 20
93.72631343700376
 10
11.10371589868711
 20
93.72631343700376
 10
11.10371589868711
 20
94.52609799612803
 10
11.10371589868711
 20
94.52609799612803
 10
11.10371589868711
 20
94.52609799612803
 10
11.65156735439593
 20
94.52609799612803
 10
11.65156735439593
 20
94.52609799612803
 10
11.65156735439593
 20
94.52609799612803
 10
12.19941881010412
 20
94.52609799612803
 10
12.19941881010412
 20
94.52609799612803
 10
12.19941881010412
 20
94.52609799612803
 10
12.19941881010412
 20
93.72631343700376
 10
12.19941881010412
 20
93.72631343700376
 10
12.19941881010412
 20
93.72631343700376
 10
12.19941881010412
 20
92.92652887788177
 10
12.19941881010412
 20
92.92652887788177
 10
12.19941881010412
 20
92.92652887788177
 10
12.98315319941504
 20
92.92652887788177
 10
12.98315319941504
 20
92.92652887788177
 10
12.98315319941504
 20
92.92652887788177
 10
13.76688758872564
 20
92.92652887788177
 10
13.76688758872564
 20
92.92652887788177
 10
13.76688758872564
 20
92.92652887788177
 10
13.76688758872564
 20
93.11656934395704
 10
13.76688758872564
 20
93.11656934395704
 10
13.76688758872564
 20
93.11656934395704
 10
13.76688758872564
 20
93.30660981003234
 10
13.76688758872564
 20
93.30660981003234
 10
13.76688758872564
 20
93.30660981003234
 10
13.20508417358473
 20
93.30660981003234
 10
13.20508417358473
 20
93.30660981003234
 10
13.20508417358473
 20
93.30660981003234
 10
12.64328075844446
 20
93.30660981003234
 10
12.64328075844446
 20
93.30660981003234
 10
12.64328075844446
 20
93.30660981003234
 10
12.64328075844446
 20
94.03616952094415
 10
12.64328075844446
 20
94.03616952094415
 10
12.64328075844446
 20
94.03616952094415
 10
12.64328075844446
 20
94.76572923185624
 10
12.64328075844446
 20
94.76572923185624
 10
12.64328075844446
 20
94.80451334458066
 10
12.62492237088981
 20
94.83962576868483
 10
12.59524087397657
 20
94.86504216460522
 10
12.56555937706557
 20
94.89045856053074
 10
12.52455477079309
 20
94.90617892827252
 10
12.47926233336065
 20
94.90617892827252
 10
12.47926233336065
 20
94.90617892827252
 10
11.65156735440267
 20
94.90617892827252
 10
11.65156735440267
 20
94.90617892827252
 10
11.65156735440267
 20
94.90617892827252
 10
10.82387237544405
 20
94.90617892827252
 10
10.82387237544405
 20
94.90617892827252
 10
10.77857993801033
 20
94.90617892827252
 10
10.73757533173913
 20
94.89045856053074
 10
10.70789383482685
 20
94.86504216460522
 10
10.67821233791361
 20
94.83962576868483
 10
10.65985395035896
 20
94.80451334458066
 10
10.65985395035896
 20
94.76572923185624
 10
10.65985395035896
 20
94.76572923185624
 10
10.65985395035896
 20
93.8461290548698
 10
10.65985395035896
 20
93.8461290548698
 10
10.65985395035896
 20
93.8461290548698
 10
10.65985395035896
 20
92.92652887788177
 10
10.65985395035896
 20
92.92652887788177
 10
10.65985395035896
 20
92.92652887788177
 10
10.88178492452319
 20
92.92652887788177
 10
10.88178492452319
 20
92.92652887788177
 10
10.88178492452319
 20
92.92652887788177
 10
11.10371589868711
 20
92.92652887788177
 10
11.10371589868711
 20
92.92652887788177
 97
        0
 97
        1
330
7E
 75
     2
 76
     1
 98
        1
 10
0.0
 20
0.0
450
        0
451
        0
460
0.0
461
0.0
452
        0
462
0.0
453
        0
470

  0
SPLINE
  5
80
330
7A
100
AcDbEntity
  8
graphics
100
AcDbSpline
210
0.0
220
0.0
230
1.0
 70
     9
 71
     3
 72
   623
 73
   619
 74
     0
 42
0.0000000001
 43
0.0000000001
 40
0.0
 40
0.0
 40
0.0
 40
0.0
 40
1.0
 40
1.0
 40
1.0
 40
2.0
 40
2.0
 40
2.0
 40
3.0
 40
3.0
 40
3.0
 40
4.0
 40
4.0
 40
4.0
 40
5.0
 40
5.0
 40
5.0
 40
6.0
 40
6.0
 40
6.0
 40
7.0
 40
7.0
 40
7.0
 40
8.0
 40
8.0
 40
8.0
 40
9.0
 40
9.0
 40
9.0
 40
10.0
 40
10.0
 40
10.0
 40
11.0
 40
11.0
 40
11.0
 40
12.0
 40
12.0
 40
12.0
 40
13.0
 40
13.0
 40
13.0
 40
14.0
 40
14.0
 40
14.0
 40
15.0
 40
15.0
 40
15.0
 40
16.0
 40
16.0
 40
16.0
 40
17.0
 40
17.0
 40
17.0
 40
18.0
 40
18.0
 40
18.0
 40
19.0
 40
19.0
 40
19.0
 40
20.0
 40
20.0
 40
20.0
 40
21.0
 40
21.0
 40
21.0
 40
22.0
 40
22.0
 40
22.0
 40
23.0
 40
23.0
 40
23.0
 40
24.0
 40
24.0
 40
24.0
 40
25.0
 40
25.0
 40
25.0
 40
26.0
 40
26.0
 40
26.0
 40
27.0
 40
27.0
 40
27.0
 40
28.0
 40
28.0
 40
28.0
 40
29.0
 40
29.0
 40
29.0
 40
30.0
 40
30.0
 40
30.0
 40
31.0
 40
31.0
 40
31.0
 40
32.0
 40
32.0
 40
32.0
 40
33.0
 40
33.0
 40
33.0
 40
34.0
 40
34.0
 40
34.0
 40
35.0
 40
35.0
 40
35.0
 40
36.0
 40
36.0
 40
36.0
 40
37.0
 40
37.0
 40
37.0
 40
38.0
 40
38.0
 40
38.0
 40
39.0
 40
39.0
 40
39.0
 40
40.0
 40
40.0
 40
40.0
 40
41.0
 40
41.0
 40
41.0
 40
42.0
 40
42.0
 40
42.0
 40
43.0
 40
43.0
 40
43.0
 40
44.0
 40
44.0
 40
44.0
 40
45.0
 40
45.0
 40
45.0
 40
46.0
 40
46.0
 40
46.0
 40
47.0
 40
47.0
 40
47.0
 40
48.0
 40
48.0
 40
48.0
 40
49.0
 40
49.0
 40
49.0
 40
50.0
 40
50.0
 40
50.0
 40
51.0
 40
51.0
 40
51.0
 40
52.0
 40
52.0
 40
52.0
 40
53.0
 40
53.0
 40
53.0
 40
54.0
 40
54.0
 40
54.0
 40
55.0
 40
55.0
 40
55.0
 40
56.0
 40
56.0
 40
56.0
 40
57.0
 40
57.0
 40
57.0
 40
58.0
 40
58.0
 40
58.0
 40
59.0
 40
59.0
 40
59.0
 40
60.0
 40
60.0
 40
60.0
 40
61.0
 40
61.0
 40
61.0
 40
62.0
 40
62.0
 40
62.0
 40
63.0
 40
63.0
 40
63.0
 40
64.0
 40
64.0
 40
64.0
 40
65.0
 40
65.0
 40
65.0
 40
66.0
 40
66.0
 40
66.0
 40
67.0
 40
67.0
 40
67.0
 40
68.0
 40
68.0
 40
68.0
 40
69.0
 40
69.0
 40
69.0
 40
70.0
 40
70.0
 40
70.0
 40
71.0
 40
71.0
 40
71.0
 40
72.0
 40
72.0
 40
72.0
 40
73.0
 40
73.0
 40
73.0
 40
74.0
 40
74.0
 40
74.0
 40
75.0
 40
75.0
 40
75.0
 40
76.0
 40
76.0
 40
76.0
 40
77.0
 40
77.0
 40
77.0
 40
78.0
 40
78.0
 40
78.0
 40
79.0
 40
79.0
 40
79.0
 40
80.0
 40
80.0
 40
80.0
 40
81.0
 40
81.0
 40
81.0
 40
82.0
 40
82.0
 40
82.0
 40
83.0
 40
83.0
 40
83.0
 40
84.0
 40
84.0
 40
84.0
 40
85.0
 40
85.0
 40
85.0
 40
86.0
 40
86.0
 40
86.0
 40
87.0
 40
87.0
 40
87.0
 40
88.0
 40
88.0
 40
88.0
 40
89.0
 40
89.0
 40
89.0
 40
90.0
 40
90.0
 40
90.0
 40
91.0
 40
91.0
 40
91.0
 40
92.0
 40
92.0
 40
92.0
 40
93.0
 40
93.0
 40
93.0
 40
94.0
 40
94.0
 40
94.0
 40
95.0
 40
95.0
 40
95.0
 40
96.0
 40
96.0
 40
96.0
 40
97.0
 40
97.0
 40
97.0
 40
98.0
 40
98.0
 40
98.0
 40
99.0
 40
99.0
 40
99.0
 40
100.0
 40
100.0
 40
100.0
 40
101.0
 40
101.0
 40
101.0
 40
102.0
 40
102.0
 40
102.0
 40
103.0
 40
103.0
 40
103.0
 40
104.0
 40
104.0
 40
104.0
 40
105.0
 40
105.0
 40
105.0
 40
106.0
 40
106.0
 40
106.0
 40
107.0
 40
107.0
 40
107.0
 40
108.0
 40
108.0
 40
108.0
 40
109.0
 40
109.0
 40
109.0
 40
110.0
 40
110.0
 40
110.0
 40
111.0
 40
111.0
 40
111.0
 40
112.0
 40
112.0
 40
112.0
 40
113.0
 40
113.0
 40
113.0
 40
114.0
 40
114.0
 40
114.0
 40
115.0
 40
115.0
 40
115.0
 40
116.0
 40
116.0
 40
116.0
 40
117.0
 40
117.0
 40
117.0
 40
118.0
 40
118.0
 40
118.0
 40
119.0
 40
119.0
 40
119.0
 40
120.0
 40
120.0
 40
120.0
 40
121.0
 40
121.0
 40
121.0
 40
122.0
 40
122.0
 40
122.0
 40
123.0
 40
123.0
 40
123.0
 40
124.0
 40
124.0
 40
124.0
 40
125.0
 40
125.0
 40
125.0
 40
126.0
 40
126.0
 40
126.0
 40
127.0
 40
127.0
 40
127.0
 40
128.0
 40
128.0
 40
128.0
 40
129.0
 40
129.0
 40
129.0
 40
130.0
 40
130.0
 40
130.0
 40
131.0
 40
131.0
 40
131.0
 40
132.0
 40
132.0
 40
132.0
 40
133.0
 40
133.0
 40
133.0
 40
134.0
 40
134.0
 40
134.0
 40
135.0
 40
135.0
 40
135.0
 40
136.0
 40
136.0
 40
136.0
 40
137.0
 40
137.0
 40
137.0
 40
138.0
 40
138.0
 40
138.0
 40
139.0
 40
139.0
 40
139.0
 40
140.0
 40
140.0
 40
140.0
 40
141.0
 40
141.0
 40
141.0
 40
142.0
 40
142.0
 40
142.0
 40
143.0
 40
143.0
 40
143.0
 40
144.0
 40
144.0
 40
144.0
 40
145.0
 40
145.0
 40
145.0
 40
146.0
 40
146.0
 40
146.0
 40
147.0
 40
147.0
 40
147.0
 40
148.0
 40
148.0
 40
148.0
 40
149.0
 40
149.0
 40
149.0
 40
150.0
 40
150.0
 40
150.0
 40
151.0
 40
151.0
 40
151.0
 40
152.0
 40
152.0
 40
152.0
 40
153.0
 40
153.0
 40
153.0
 40
154.0
 40
154.0
 40
154.0
 40
155.0
 40
155.0
 40
155.0
 40
156.0
 40
156.0
 40
156.0
 40
157.0
 40
157.0
 40
157.0
 40
158.0
 40
158.0
 40
158.0
 40
159.0
 40
159.0
 40
159.0
 40
160.0
 40
160.0
 40
160.0
 40
161.0
 40
161.0
 40
161.0
 40
162.0
 40
162.0
 40
162.0
 40
163.0
 40
163.0
 40
163.0
 40
164.0
 40
164.0
 40
164.0
 40
165.0
 40
165.0
 40
165.0
 40
166.0
 40
166.0
 40
166.0
 40
167.0
 40
167.0
 40
167.0
 40
168.0
 40
168.0
 40
168.0
 40
169.0
 40
169.0
 40
169.0
 40
170.0
 40
170.0
 40
170.0
 40
171.0
 40
171.0
 40
171.0
 40
172.0
 40
172.0
 40
172.0
 40
173.0
 40
173.0
 40
173.0
 40
174.0
 40
174.0
 40
174.0
 40
175.0
 40
175.0
 40
175.0
 40
176.0
 40
176.0
 40
176.0
 40
177.0
 40
177.0
 40
177.0
 40
178.0
 40
178.0
 40
178.0
 40
179.0
 40
179.0
 40
179.0
 40
180.0
 40
180.0
 40
180.0
 40
181.0
 40
181.0
 40
181.0
 40
182.0
 40
182.0
 40
182.0
 40
183.0
 40
183.0
 40
183.0
 40
184.0
 40
184.0
 40
184.0
 40
185.0
 40
185.0
 40
185.0
 40
186.0
 40
186.0
 40
186.0
 40
187.0
 40
187.0
 40
187.0
 40
188.0
 40
188.0
 40
188.0
 40
189.0
 40
189.0
 40
189.0
 40
190.0
 40
190.0
 40
190.0
 40
191.0
 40
191.0
 40
191.0
 40
192.0
 40
192.0
 40
192.0
 40
193.0
 40
193.0
 40
193.0
 40
194.0
 40
194.0
 40
194.0
 40
195.0
 40
195.0
 40
195.0
 40
196.0
 40
196.0
 40
196.0
 40
197.0
 40
197.0
 40
197.0
 40
198.0
 40
198.0
 40
198.0
 40
199.0
 40
199.0
 40
199.0
 40
200.0
 40
200.0
 40
200.0
 40
201.0
 40
201.0
 40
201.0
 40
202.0
 40
202.0
 40
202.0
 40
203.0
 40
203.0
 40
203.0
 40
204.0
 40
204.0
 40
204.0
 40
205.0
 40
205.0
 40
205.0
 40
206.0
 40
206.0
 40
206.0
 40
206.0
 10
10.20113834020111
 20
96.00627379666358
 30
0.0
 10
10.10700110606666
 20
95.99717659139784
 30
0.0
 10
10.00947462467455
 20
95.9849572683486
 30
0.0
 10
10.00943963542353
 20
95.9849572683486
 30
0.0
 10
9.912147985735396
 20
95.97277024306952
 30
0.0
 10
9.849034778463916
 20
95.96274716839213
 30
0.0
 10
9.832095943747964
 20
95.96005568754428
 30
0.0
 10
9.775677795085513
 20
95.95110920520601
 30
0.0
 10
9.722122036304753
 20
95.9414952356175
 30
0.0
 10
9.671921881271051
 20
95.9312030128553
 30
0.0
 10
9.621721726237352
 20
95.92085696047616
 30
0.0
 10
9.574900052537916
 20
95.90982188899998
 30
0.0
 10
9.531952092648751
 20
95.89805473473317
 30
0.0
 10
9.489003459889373
 20
95.88628758046636
 30
0.0
 10
9.449928540940266
 20
95.87378834340894
 30
0.0
 10
9.415220549666798
 20
95.86050319394395
 30
0.0
 10
9.380512558393329
 20
95.84717498078537
 30
0.0
 10
9.350148617208294
 20
95.83308238706605
 30
0.0
 10
9.32464616330469
 20
95.81816081724555
 30
0.0
 10
9.299144382271297
 20
95.80323924742506
 30
0.0
 10
9.278503415649124
 20
95.78748870150343
 30
0.0
 10
9.26324070063117
 20
95.77081228617016
 30
0.0
 10
9.249633246334646
 20
95.76144593281963
 30
0.0
 10
9.236486035263103
 20
95.75135826260188
 30
0.0
 10
9.223786282882516
 20
95.7403016592789
 30
0.0
 10
9.211087203372141
 20
95.72924505595592
 30
0.0
 10
9.198835582552721
 20
95.71723028545113
 30
0.0
 10
9.187021327371077
 20
95.70403126337325
 30
0.0
 10
9.175160644144808
 20
95.69084300721879
 30
0.0
 10
9.163760204143521
 20
95.67645973356787
 30
0.0
 10
9.152807222833191
 20
95.66067688987606
 30
0.0
 10
9.141854914393071
 20
95.64488328026087
 30
0.0
 10
9.131350737514118
 20
95.62767933468141
 30
0.0
 10
9.121283253402729
 20
95.60881743689966
 30
0.0
 10
9.11121509642113
 20
95.59000936873488
 30
0.0
 10
9.101584305077306
 20
95.56956488021461
 30
0.0
 10
9.092378767707442
 20
95.54727941879439
 30
0.0
 10
9.083173230337578
 20
95.52499395737418
 30
0.0
 10
9.074392946941674
 20
95.50085675713065
 30
0.0
 10
9.066025805855916
 20
95.47464173367258
 30
0.0
 10
9.057705092814783
 20
95.44846977390808
 30
0.0
 10
9.049798194954009
 20
95.42020922500563
 30
0.0
 10
9.04230511227359
 20
95.38965553442082
 30
0.0
 10
9.034812029593171
 20
95.35910184383601
 30
0.0
 10
9.027732089222897
 20
95.32624424564543
 30
0.0
 10
9.021066636903194
 20
95.29089971915146
 30
0.0
 10
9.014446939757904
 20
95.25554442673408
 30
0.0
 10
9.008240384922759
 20
95.21770220601329
 30
0.0
 10
9.002459756931784
 20
95.17713620667448
 30
0.0
 10
8.996679128940812
 20
95.13657020733566
 30
0.0
 10
8.991323082053588
 20
95.0932804293788
 30
0.0
 10
8.98640440080414
 20
95.0470623202595
 30
0.0
 10
8.981439964380278
 20
95.00079038152325
 30
0.0
 10
8.976911547853767
 20
94.95156857977773
 30
0.0
 10
8.972796946507614
 20
94.89920312840194
 30
0.0
 10
8.968683018031674
 20
94.84683767702614
 30
0.0
 10
8.964982231865878
 20
94.79131781009666
 30
0.0
 10
8.961672383293233
 20
94.73242820914567
 30
0.0
 10
8.958408289895
 20
94.67349554450112
 30
0.0
 10
8.955558011677126
 20
94.61120391175844
 30
0.0
 10
8.953110109846004
 20
94.54530569467966
 30
0.0
 10
8.950662208014884
 20
94.47940747760085
 30
0.0
 10
8.948616682570516
 20
94.40991344210933
 30
0.0
 10
8.946961421849088
 20
94.33658673789047
 30
0.0
 10
8.945352589172285
 20
94.26321696997803
 30
0.0
 10
8.94413402121842
 20
94.18602529926166
 30
0.0
 10
8.943318502521522
 20
94.10480717319689
 30
0.0
 10
8.942502310954411
 20
94.02358904713214
 30
0.0
 10
8.942088495774054
 20
93.93833369979558
 30
0.0
 10
8.942088495774054
 20
93.84882581271943
 30
0.0
 10
8.942134923818679
 20
93.76051294313972
 30
0.0
 10
8.942548066128825
 20
93.67639878368269
 30
0.0
 10
8.943352818902331
 20
93.59623571811027
 30
0.0
 10
8.944157571675839
 20
93.51607265253788
 30
0.0
 10
8.945352589172285
 20
93.43987144677349
 30
0.0
 10
8.946961421849088
 20
93.36738448457916
 30
0.0
 10
8.948570254525892
 20
93.29495135200179
 30
0.0
 10
8.950570024795846
 20
93.22625399484122
 30
0.0
 10
8.952972171452552
 20
93.16108786055306
 30
0.0
 10
8.95537431810926
 20
93.09591096034148
 30
0.0
 10
8.958178168282509
 20
93.03426528300228
 30
0.0
 10
8.961396506506329
 20
92.97591397822086
 30
0.0
 10
8.964614171859935
 20
92.91760573713302
 30
0.0
 10
8.968246325264109
 20
92.86260263452632
 30
0.0
 10
8.972280182184826
 20
92.81068935193296
 30
0.0
 10
8.976314039105544
 20
92.7587760693396
 30
0.0
 10
8.980750272413015
 20
92.70996337268298
 30
0.0
 10
8.985576770443426
 20
92.66404670941863
 30
0.0
 10
8.99044969651846
 20
92.61814081207766
 30
0.0
 10
8.995713560186645
 20
92.57509865035883
 30
0.0
 10
9.001379800241585
 20
92.53473720356444
 30
0.0
 10
9.007045367426313
 20
92.49436499084668
 30
0.0
 10
9.013113310997793
 20
92.45667349305337
 30
0.0
 10
9.019595742619843
 20
92.42145815764009
 30
0.0
 10
9.026123256546094
 20
92.38619975853323
 30
0.0
 10
9.033041708065496
 20
92.35341752180639
 30
0.0
 10
9.040373974765257
 20
92.32288536306837
 30
0.0
 10
9.047706914335227
 20
92.29234243840695
 30
0.0
 10
9.055452996215343
 20
92.26406035765773
 30
0.0
 10
9.063635770863024
 20
92.23780227050609
 30
0.0
 10
9.071818545510705
 20
92.21154418335444
 30
0.0
 10
9.080415135338743
 20
92.1873208557238
 30
0.0
 10
9.089424867476925
 20
92.16490620322288
 30
0.0
 10
9.098435272485319
 20
92.14250231664536
 30
0.0
 10
9.107859492674071
 20
92.12190710519761
 30
0.0
 10
9.11769752804318
 20
92.10291601633517
 30
0.0
 10
9.127580645716491
 20
92.08392492747274
 30
0.0
 10
9.137878251440371
 20
92.0665379611956
 30
0.0
 10
9.14860111113821
 20
92.05053979903597
 30
0.0
 10
9.15932397083605
 20
92.03453087095295
 30
0.0
 10
9.170472084507851
 20
92.01991074698744
 30
0.0
 10
9.182056218077004
 20
92.00645334274817
 30
0.0
 10
9.193641024516368
 20
91.99298517258553
 30
0.0
 10
9.205662523723297
 20
91.98070125399594
 30
0.0
 10
9.218109276904186
 20
91.96938626851157
 30
0.0
 10
9.230555357214862
 20
91.95806051710381
 30
0.0
 10
9.243427364369713
 20
91.94769293287789
 30
0.0
 10
9.256713186704919
 20
91.93806819736597
 30
0.0
 10
9.257356450627556
 20
91.93713156203092
 30
0.0
 10
9.258000387420404
 20
91.93621645854264
 30
0.0
 10
9.258643651343041
 20
91.93532288690116
 30
0.0
 10
9.259287588135888
 20
91.93442931525966
 30
0.0
 10
9.259930852058525
 20
91.93356804138835
 30
0.0
 10
9.260574788851373
 20
91.93271753344044
 30
0.0
 10
9.26121805277401
 20
91.93182396179896
 30
0.0
 10
9.261884867154066
 20
91.93093039015746
 30
0.0
 10
9.262551681534121
 20
91.93005835036275
 30
0.0
 10
9.263217823043964
 20
91.92917554464466
 30
0.0
 10
9.26388463742402
 20
91.92830350484996
 30
0.0
 10
9.264527901346655
 20
91.92745299690203
 30
0.0
 10
9.265217593313918
 20
91.92657019118394
 30
0.0
 10
9.26590728528118
 20
91.92569815138924
 30
0.0
 10
9.266608416042044
 20
91.92482611159453
 30
0.0
 10
9.267309546802909
 20
91.92395407179983
 30
0.0
 10
9.268022116357379
 20
91.92309279792851
 30
0.0
 10
9.268757563499054
 20
91.92219922628703
 30
0.0
 10
9.269447255466316
 20
91.92134871833912
 30
0.0
 10
9.270159825020785
 20
91.92050897631458
 30
0.0
 10
9.270872394575253
 20
91.91965846836666
 30
0.0
 10
9.271584964129722
 20
91.91880796041875
 30
0.0
 10
9.272296860813979
 20
91.91796821839421
 30
0.0
 10
9.27298655278124
 20
91.91711771044628
 30
0.0
 10
9.273721999922916
 20
91.91626720249837
 30
0.0
 10
9.27448099752201
 20
91.91542746047383
 30
0.0
 10
9.275239322250893
 20
91.91457695252593
 30
0.0
 10
9.275997646979774
 20
91.91372644457798
 30
0.0
 10
9.276743860044842
 20
91.91288670255346
 30
0.0
 10
9.277492091720544
 20
91.91203619460555
 30
0.0
 10
9.278227538862219
 20
91.91118568665762
 30
0.0
 10
9.278985863591101
 20
91.91034594463308
 30
0.0
 10
9.279755627113587
 20
91.90950620260856
 30
0.0
 10
9.280526063506284
 20
91.90866646058402
 30
0.0
 10
9.281307265822373
 20
91.90784825040628
 30
0.0
 10
9.282089141008674
 20
91.90704080615194
 30
0.0
 10
9.282870343324763
 20
91.90619029820402
 30
0.0
 10
9.283652218511063
 20
91.90537208802627
 30
0.0
 10
9.284444859620757
 20
91.90455387784851
 30
0.0
 10
9.28523817360066
 20
91.90374643359417
 30
0.0
 10
9.286042253503955
 20
91.9029389893398
 30
0.0
 10
9.286869883864671
 20
91.90214231100885
 30
0.0
 10
9.287651759050971
 20
91.90129180306092
 30
0.0
 10
9.288455838954266
 20
91.90046282695979
 30
0.0
 10
9.289272030521377
 20
91.89965538270543
 30
0.0
 10
9.290088222088488
 20
91.89883717252767
 30
0.0
 10
9.290915179578991
 20
91.89804049419672
 30
0.0
 10
9.291742809939705
 20
91.89723304994236
 30
0.0
 10
9.306407343339223
 20
91.88301126514231
 30
0.0
 10
9.327393492380133
 20
91.86951079720948
 30
0.0
 10
9.354021658148351
 20
91.85665628468015
 30
0.0
 10
9.380650496786781
 20
91.84381253807421
 30
0.0
 10
9.412922025022732
 20
91.83161474687175
 30
0.0
 10
9.450158662552757
 20
91.82003061330259
 30
0.0
 10
9.487441055257194
 20
91.80847877750361
 30
0.0
 10
9.529687884385495
 20
91.79756213118473
 30
0.0
 10
9.576222242504423
 20
91.78722684472898
 30
0.0
 10
9.622755927753138
 20
91.77690232419662
 30
0.0
 10
9.673576469122268
 20
91.76715916352739
 30
0.0
 10
9.728006286308369
 20
91.75797583087453
 30
0.0
 10
9.782435430624255
 20
91.74883556191522
 30
0.0
 10
9.840496728344319
 20
91.74025512097228
 30
0.0
 10
9.901499814631083
 20
91.73221297619889
 30
0.0
 10
9.96250357378806
 20
91.72416006550212
 30
0.0
 10
10.02644912151174
 20
91.71665621689831
 30
0.0
 10
10.09264676583486
 20
91.7096583666939
 30
0.0
 10
10.15884508302819
 20
91.70260668687253
 30
0.0
 10
10.22729549682096
 20
91.69610406914413
 30
0.0
 10
10.29733186570332
 20
91.69007515204494
 30
0.0
 10
10.3673689074559
 20
91.68404623494573
 30
0.0
 10
10.43899123142786
 20
91.67849101847577
 30
0.0
 10
10.51153336897958
 20
91.67336643894147
 30
0.0
 10
10.58402907848667
 20
91.66828492310072
 30
0.0
 10
10.65744460157351
 20
91.66362327827226
 30
0.0
 10
10.73107813460903
 20
91.65937073853264
 30
0.0
 10
10.80471234051476
 20
91.65511819879304
 30
0.0
 10
10.87856455636917
 20
91.65125323229553
 30
0.0
 10
10.95193365141139
 20
91.6477758390401
 30
0.0
 10
11.02534917449823
 20
91.64435227540163
 30
0.0
 10
11.0983051272303
 20
91.6412732213117
 30
0.0
 10
11.17011181764034
 20
91.63853867677026
 30
0.0
 10
11.24191783518017
 20
91.63581489815225
 30
0.0
 10
11.31257526326818
 20
91.63342486315936
 30
0.0
 10
11.3813937370669
 20
91.63137933771499
 30
0.0
 10
11.45025796604002
 20
91.62932304634722
 30
0.0
 10
11.51730679118127
 20
91.62761126452799
 30
0.0
 10
11.58184984765317
 20
91.62616863079355
 30
0.0
 10
11.64639290412508
 20
91.62473676298249
 30
0.0
 10
11.70843019192763
 20
91.62357404325623
 30
0.0
 10
11.76727269196378
 20
91.62263740792116
 30
0.0
 10
11.82616094717435
 20
91.62174383627968
 30
0.0
 10
11.88187863794614
 20
91.62109788087619
 30
0.0
 10
11.93373270796085
 20
91.62067800986394
 30
0.0
 10
11.98558812371598
 20
91.62025813885167
 30
0.0
 10
12.03358126445444
 20
91.62005358630723
 30
0.0
 10
12.07702445681961
 20
91.62005358630723
 30
0.0
 10
12.07858686145179
 20
91.62005358630723
 30
0.0
 10
12.08971209753638
 20
91.62007511815401
 30
0.0
 10
12.10926166867475
 20
91.62017201146452
 30
0.0
 10
12.1288098940727
 20
91.62027967069844
 30
0.0
 10
12.15678380026484
 20
91.62045192547271
 30
0.0
 10
12.19204354511212
 20
91.62076413725106
 30
0.0
 10
12.22730328995939
 20
91.62107634902941
 30
0.0
 10
12.26984887346181
 20
91.62152851781184
 30
0.0
 10
12.31856602254834
 20
91.62218523913873
 30
0.0
 10
12.3672845173753
 20
91.62284196046561
 30
0.0
 10
12.42217323204596
 20
91.6237140002603
 30
0.0
 10
12.48211923922973
 20
91.62486595406319
 30
0.0
 10
12.54201949123909
 20
91.62602867378947
 30
0.0
 10
12.60695281243393
 20
91.62742824383034
 30
0.0
 10
12.67578339789646
 20
91.62918308934314
 30
0.0
 10
12.74461263761856
 20
91.63092716893254
 30
0.0
 10
12.81733914160835
 20
91.63302652399387
 30
0.0
 10
12.89282306772677
 20
91.63556728191425
 30
0.0
 10
12.9683527490196
 20
91.63806497614105
 30
0.0
 10
13.04661832059427
 20
91.64096100953335
 30
0.0
 10
13.12651627530317
 20
91.64433074355484
 30
0.0
 10
13.20641288427164
 20
91.64768971165297
 30
0.0
 10
13.28794187637433
 20
91.65152238038031
 30
0.0
 10
13.36999974446362
 20
91.65589334527721
 30
0.0
 10
13.4520118573785
 20
91.66026431017412
 30
0.0
 10
13.53455284627999
 20
91.66518433716401
 30
0.0
 10
13.61647344884604
 20
91.67071802178718
 30
0.0
 10
13.69839270567167
 20
91.67624094048697
 30
0.0
 10
13.7796929219023
 20
91.68237751682008
 30
0.0
 10
13.85922214373503
 20
91.68914928263326
 30
0.0
 10
13.87195553962622
 20
91.69021510904903
 30
0.0
 10
13.88360965169742
 20
91.69162544501331
 30
0.0
 10
13.89521666285378
 20
91.69304654690096
 30
0.0
 10
13.90682501975056
 20
91.69447841471201
 30
0.0
 10
13.90923254936896
 20
91.69422003255062
 30
0.0
 10
13.9217829245625
 20
91.69537198635351
 30
0.0
 10
13.9217829245625
 20
91.69537198635351
 30
0.0
 10
13.91722893896793
 20
91.89962308493525
 30
0.0
 10
13.91722893896793
 20
91.89962308493525
 30
0.0
 10
13.91722893896793
 20
91.89962308493525
 30
0.0
 10
13.91722893896793
 20
92.1048969462392
 30
0.0
 10
13.91722893896793
 20
92.1048969462392
 30
0.0
 10
13.69128988771419
 20
92.09034141781399
 30
0.0
 10
13.40001917610013
 20
92.07719622535311
 30
0.0
 10
13.0822912077517
 20
92.06831433855519
 30
0.0
 10
12.76456458514368
 20
92.05943245175728
 30
0.0
 10
12.42038070580129
 20
92.05481387062237
 30
0.0
 10
12.07491029861362
 20
92.05458778623116
 30
0.0
 10
11.48928712981472
 20
92.05414638337209
 30
0.0
 10
10.90391763308572
 20
92.06589200579212
 30
0.0
 10
10.44803595281707
 20
92.0897062283339
 30
0.0
 10
9.992154945418628
 20
92.1135204508757
 30
0.0
 10
9.665761754480532
 20
92.14940327353927
 30
0.0
 10
9.598092543003851
 20
92.19723627116726
 30
0.0
 10
9.598092543003851
 20
92.19723627116726
 30
0.0
 10
9.583014194423975
 20
92.21168414035854
 30
0.0
 10
9.583014194423975
 20
92.21168414035854
 30
0.0
 10
9.583014194423975
 20
92.21168414035854
 30
0.0
 10
9.5679358458441
 20
92.22612124362642
 30
0.0
 10
9.5679358458441
 20
92.22612124362642
 30
0.0
 10
9.5679358458441
 20
92.22612124362642
 30
0.0
 10
9.552857497264223
 20
92.24056911281769
 30
0.0
 10
9.552857497264223
 20
92.24056911281769
 30
0.0
 10
9.552857497264223
 20
92.24056911281769
 30
0.0
 10
9.537778475814137
 20
92.25500621608556
 30
0.0
 10
9.537778475814137
 20
92.25500621608556
 30
0.0
 10
9.486061671322671
 20
92.31849286632467
 30
0.0
 10
9.447261956290256
 20
92.53399435485045
 30
0.0
 10
9.421277054444676
 20
92.82539560328563
 30
0.0
 10
9.395292152599093
 20
93.1167968517208
 30
0.0
 10
9.382121391070132
 20
93.4840978600654
 30
0.0
 10
9.381661820715361
 20
93.8511404862486
 30
0.0
 10
9.381248005535004
 20
94.21823694204874
 30
0.0
 10
9.393522503941632
 20
94.5850857816109
 30
0.0
 10
9.418403898639594
 20
94.87555039471102
 30
0.0
 10
9.443285966207769
 20
95.16601500781115
 30
0.0
 10
9.48077493006728
 20
95.38009539444926
 30
0.0
 10
9.530791391533114
 20
95.44165494440131
 30
0.0
 10
9.530791391533114
 20
95.44165494440131
 30
0.0
 10
9.545639618500498
 20
95.4561889409797
 30
0.0
 10
9.545639618500498
 20
95.4561889409797
 30
0.0
 10
9.545639618500498
 20
95.4561889409797
 30
0.0
 10
9.560488518338095
 20
95.4707229375581
 30
0.0
 10
9.560488518338095
 20
95.4707229375581
 30
0.0
 10
9.560488518338095
 20
95.4707229375581
 30
0.0
 10
9.575290990131065
 20
95.48520310451953
 30
0.0
 10
9.575290990131065
 20
95.48520310451953
 30
0.0
 10
9.575290990131065
 20
95.48520310451953
 30
0.0
 10
9.590093461924038
 20
95.49969403740439
 30
0.0
 10
9.590093461924038
 20
95.49969403740439
 30
0.0
 10
9.625215268377862
 20
95.52470327744261
 30
0.0
 10
9.726006516038415
 20
95.546525804157
 30
0.0
 10
9.875905850378652
 20
95.56520468124109
 30
0.0
 10
10.02580518471889
 20
95.58387279240177
 30
0.0
 10
10.22481327860902
 20
95.59940801985558
 30
0.0
 10
10.4563681046518
 20
95.61185342729604
 30
0.0
 10
10.68787717552017
 20
95.62424500511955
 30
0.0
 10
10.95193365141139
 20
95.63351446515955
 30
0.0
 10
11.23195397308143
 20
95.63968333926283
 30
0.0
 10
11.51197362188125
 20
95.64586297928949
 30
0.0
 10
11.8079571164599
 20
95.64894203337944
 30
0.0
 10
12.10332022470312
 20
95.64894203337944
 30
0.0
 10
12.39353318434397
 20
95.64894203337944
 30
0.0
 10
12.68314998097702
 20
95.64597063852341
 30
0.0
 10
12.95642410590192
 20
95.64003861473475
 30
0.0
 10
13.2296968850864
 20
95.63409582502268
 30
0.0
 10
13.48662833830315
 20
95.6251816404546
 30
0.0
 10
13.71147195685181
 20
95.61327452918371
 30
0.0
 10
13.93631557540047
 20
95.60142124752976
 30
0.0
 10
14.12909423686825
 20
95.58659657101982
 30
0.0
 10
14.27403990070802
 20
95.5688004996538
 30
0.0
 10
14.41898556454779
 20
95.55100442828781
 30
0.0
 10
14.51609957649996
 20
95.53022619614241
 30
0.0
 10
14.54961255027698
 20
95.50646580321757
 30
0.0
 10
14.54961255027698
 20
95.50646580321757
 30
0.0
 10
14.56469022598665
 20
95.49215789103039
 30
0.0
 10
14.56469022598665
 20
95.49215789103039
 30
0.0
 10
14.56469022598665
 20
95.49215789103039
 30
0.0
 10
14.57976924743674
 20
95.47784997884321
 30
0.0
 10
14.57976924743674
 20
95.47784997884321
 30
0.0
 10
14.57976924743674
 20
95.47784997884321
 30
0.0
 10
14.5948469231464
 20
95.46354206665602
 30
0.0
 10
14.5948469231464
 20
95.46354206665602
 30
0.0
 10
14.5948469231464
 20
95.46354206665602
 30
0.0
 10
14.60992594459649
 20
95.44923415446886
 30
0.0
 10
14.60992594459649
 20
95.44923415446886
 30
0.0
 10
14.6614597283903
 20
95.38602741823792
 30
0.0
 10
14.70014303687604
 20
95.17199009529338
 30
0.0
 10
14.7260027848622
 20
94.88223603313709
 30
0.0
 10
14.75186118710793
 20
94.59248197098078
 30
0.0
 10
14.76489333737323
 20
94.22701116961274
 30
0.0
 10
14.76512345898572
 20
93.86094824245816
 30
0.0
 10
14.76535358059821
 20
93.49488531530358
 30
0.0
 10
14.75275745023027
 20
93.12820873051569
 30
0.0
 10
14.7273243019585
 20
92.83604310151972
 30
0.0
 10
14.70189115368672
 20
92.54386670660037
 30
0.0
 10
14.6636196417707
 20
92.32620126747292
 30
0.0
 10
14.61250034602746
 20
92.25812833386907
 30
0.0
 10
14.61250034602746
 20
92.25812833386907
 30
0.0
 10
14.59870919816307
 20
92.2446709296298
 30
0.0
 10
14.59870919816307
 20
92.2446709296298
 30
0.0
 10
14.59870919816307
 20
92.2446709296298
 30
0.0
 10
14.58491805029868
 20
92.23120275946717
 30
0.0
 10
14.58491805029868
 20
92.23120275946717
 30
0.0
 10
14.58491805029868
 20
92.23120275946717
 30
0.0
 10
14.5711726576087
 20
92.2177453552279
 30
0.0
 10
14.5711726576087
 20
92.2177453552279
 30
0.0
 10
14.5711726576087
 20
92.2177453552279
 30
0.0
 10
14.55742726491872
 20
92.20427718506526
 30
0.0
 10
14.55742726491872
 20
92.20427718506526
 30
0.0
 10
14.5289258284804
 20
92.1839080580087
 30
0.0
 10
14.45560181574238
 20
92.16576747709419
 30
0.0
 10
14.34775417816897
 20
92.14970471939421
 30
0.0
 10
14.23990654059557
 20
92.13365272761762
 30
0.0
 10
14.09753527818677
 20
92.11967855905559
 30
0.0
 10
13.93093665092604
 20
92.107642256704
 30
0.0
 10
13.93093665092604
 20
92.107642256704
 30
0.0
 10
13.93093665092604
 20
91.90235762947667
 30
0.0
 10
13.93093665092604
 20
91.90235762947667
 30
0.0
 10
13.93093665092604
 20
91.90235762947667
 30
0.0
 10
13.93093665092604
 20
91.69708376817274
 30
0.0
 10
13.93093665092604
 20
91.69708376817274
 30
0.0
 10
13.99662896971997
 20
91.70314498304209
 30
0.0
 10
14.06188392287613
 20
91.70938921860912
 30
0.0
 10
14.12497896265189
 20
91.71615021849893
 30
0.0
 10
14.18807400242764
 20
91.72291121838872
 30
0.0
 10
14.249009128823
 20
91.7301997485247
 30
0.0
 10
14.30605910261448
 20
91.73836031845539
 30
0.0
 10
14.37400284513764
 20
91.74808194727782
 30
0.0
 10
14.43792551527412
 20
91.75857872258445
 30
0.0
 10
14.49668861662526
 20
91.76993677176238
 30
0.0
 10
14.55545037223597
 20
91.78129482094032
 30
0.0
 10
14.60905255906136
 20
91.79350337806615
 30
0.0
 10
14.65635668070277
 20
91.80665933645046
 30
0.0
 10
14.7037065575186
 20
91.81980452891137
 30
0.0
 10
14.74473549156325
 20
91.83388635670732
 30
0.0
 10
14.77833997568909
 20
91.8489694153787
 30
0.0
 10
14.81194445981494
 20
91.86405247405005
 30
0.0
 10
14.83812449402199
 20
91.88011523175003
 30
0.0
 10
14.85577791690305
 20
91.89723304994236
 30
0.0
 10
14.85651403691494
 20
91.89794360088619
 30
0.0
 10
14.8572488111864
 20
91.89866491775342
 30
0.0
 10
14.85798493119829
 20
91.89938623462065
 30
0.0
 10
14.85871970546975
 20
91.90010755148787
 30
0.0
 10
14.85945582548164
 20
91.90085040020187
 30
0.0
 10
14.8601905997531
 20
91.90160401483927
 30
0.0
 10
14.86092671976499
 20
91.9023145657831
 30
0.0
 10
14.86166283977688
 20
91.90302511672694
 30
0.0
 10
14.86238684812495
 20
91.90375719951756
 30
0.0
 10
14.86311085647302
 20
91.90447851638479
 30
0.0
 10
14.86382275315728
 20
91.90521059917539
 30
0.0
 10
14.86451177225433
 20
91.90597497973618
 30
0.0
 10
14.86524789226622
 20
91.90672859437357
 30
0.0
 10
14.86595978895048
 20
91.90749297493438
 30
0.0
 10
14.86666091971134
 20
91.90824658957177
 30
0.0
 10
14.8673620504722
 20
91.90900020420917
 30
0.0
 10
14.86805241530968
 20
91.90976458476995
 30
0.0
 10
14.86874143440673
 20
91.91051819940737
 30
0.0
 10
14.8694317992442
 20
91.91127181404475
 30
0.0
 10
14.87012081834125
 20
91.91203619460555
 30
0.0
 10
14.8708098374383
 20
91.91278980924293
 30
0.0
 10
14.87150020227578
 20
91.91355418980373
 30
0.0
 10
14.87218922137283
 20
91.91430780444113
 30
0.0
 10
14.8728795862103
 20
91.91506141907852
 30
0.0
 10
14.87356860530735
 20
91.91582579963933
 30
0.0
 10
14.87423474681719
 20
91.9166009461235
 30
0.0
 10
14.87489012240365
 20
91.91738685853108
 30
0.0
 10
14.8755454979901
 20
91.91816200501525
 30
0.0
 10
14.87618876191273
 20
91.91894791742283
 30
0.0
 10
14.87683202583537
 20
91.91970153206023
 30
0.0
 10
14.87752239067284
 20
91.92050897631458
 30
0.0
 10
14.87818853218269
 20
91.92128412279876
 30
0.0
 10
14.87884390776914
 20
91.92205926928293
 30
0.0
 10
14.87949928335559
 20
91.92284518169051
 30
0.0
 10
14.88014254727823
 20
91.92362032817468
 30
0.0
 10
14.88078581120086
 20
91.92442777242906
 30
0.0
 10
14.8814290751235
 20
91.92522445076001
 30
0.0
 10
14.88207368478656
 20
91.92603189501438
 30
0.0
 10
14.88270483704538
 20
91.92683933926872
 30
0.0
 10
14.88333733504463
 20
91.92763601759969
 30
0.0
 10
14.88395772138006
 20
91.92844346185404
 30
0.0
 10
14.88455523012828
 20
91.92924014018501
 30
0.0
 10
14.88519983979134
 20
91.93004758443937
 30
0.0
 10
14.88582022612677
 20
91.93086579461711
 30
0.0
 10
14.8864406124622
 20
91.93169477071824
 30
0.0
 10
14.88706099879763
 20
91.93251298089599
 30
0.0
 10
14.88768138513306
 20
91.93334195699714
 30
0.0
 10
14.88832464905569
 20
91.93414940125149
 30
0.0
 10
14.88915227941641
 20
91.93471999519124
 30
0.0
 10
14.88997990977712
 20
91.93532288690116
 30
0.0
 10
14.89080754013784
 20
91.93592577861108
 30
0.0
 10
14.89163517049855
 20
91.93652867032099
 30
0.0
 10
14.89246280085927
 20
91.93713156203092
 30
0.0
 10
14.89329043121998
 20
91.93771292189405
 30
0.0
 10
14.89411806158069
 20
91.93833734545075
 30
0.0
 10
14.89494569194141
 20
91.93896176900745
 30
0.0
 10
14.8957719765617
 20
91.93958619256415
 30
0.0
 10
14.89659960692242
 20
91.94021061612085
 30
0.0
 10
14.89742723728313
 20
91.94083503967755
 30
0.0
 10
14.89825486764384
 20
91.94145946323425
 30
0.0
 10
14.89908249800456
 20
91.94208388679095
 30
0.0
 10
14.89991012836527
 20
91.94270831034765
 30
0.0
 10
14.90072564706217
 20
91.94333273390435
 30
0.0
 10
14.90154251149949
 20
91.94395715746106
 30
0.0
 10
14.90234591853258
 20
91.94457081509439
 30
0.0
 10
14.90312779371888
 20
91.94519523865109
 30
0.0
 10
14.90395542407959
 20
91.94581966220779
 30
0.0
 10
14.9047601768531
 20
91.94646561761127
 30
0.0
 10
14.90556492962661
 20
91.94713310486152
 30
0.0
 10
14.90636833665969
 20
91.9477898261884
 30
0.0
 10
14.9071730894332
 20
91.94845731343866
 30
0.0
 10
14.90800071979391
 20
91.94912480068893
 30
0.0
 10
14.90878259498021
 20
91.94974922424563
 30
0.0
 10
14.90956312442609
 20
91.95039517964913
 30
0.0
 10
14.91034499961239
 20
91.95105190097599
 30
0.0
 10
14.91112687479869
 20
91.95170862230288
 30
0.0
 10
14.91190874998499
 20
91.95237610955315
 30
0.0
 10
14.91268927943087
 20
91.9530435968034
 30
0.0
 10
14.91347115461717
 20
91.95375414774725
 30
0.0
 10
14.91425302980347
 20
91.95445393276768
 30
0.0
 10
14.91502279332596
 20
91.95513218594134
 30
0.0
 10
14.91579255684844
 20
91.955810439115
 30
0.0
 10
14.91655155444754
 20
91.95647792636526
 30
0.0
 10
14.917286328719
 20
91.95714541361553
 30
0.0
 10
14.9180682039053
 20
91.95785596455937
 30
0.0
 10
14.9188500790916
 20
91.95857728142661
 30
0.0
 10
14.91961984261409
 20
91.95927706644702
 30
0.0
 10
14.92038960613657
 20
91.95997685146748
 30
0.0
 10
14.92114860373567
 20
91.96066587056453
 30
0.0
 10
14.92188337800713
 20
91.9613333578148
 30
0.0
 10
14.92261949801902
 20
91.96205467468201
 30
0.0
 10
14.92335561803091
 20
91.96278675747263
 30
0.0
 10
14.92409039230237
 20
91.96351884026325
 30
0.0
 10
14.92482651231426
 20
91.96426168897726
 30
0.0
 10
14.92556128658572
 20
91.96499377176786
 30
0.0
 10
14.92629740659761
 20
91.96570432271171
 30
0.0
 10
14.9502017937478
 20
91.98884029207983
 30
0.0
 10
14.97258953144023
 20
92.02236537752067
 30
0.0
 10
14.99347273133871
 20
92.06498766822724
 30
0.0
 10
15.01435458549676
 20
92.10762072485721
 30
0.0
 10
15.03373055612045
 20
92.15935098675291
 30
0.0
 10
15.05161410061399
 20
92.21890807495418
 30
0.0
 10
15.06954205454153
 20
92.27841133353846
 30
0.0
 10
15.08595335901131
 20
92.34575218435173
 30
0.0
 10
15.10087089161052
 20
92.41957412104659
 30
0.0
 10
15.11578842420974
 20
92.49340682366485
 30
0.0
 10
15.1292121849384
 20
92.57374214401151
 30
0.0
 10
15.14116505138371
 20
92.65923434166266
 30
0.0
 10
15.15311791782902
 20
92.74478036893077
 30
0.0
 10
15.16355278907614
 20
92.83551557127355
 30
0.0
 10
15.1724938884527
 20
92.930148037884
 30
0.0
 10
15.18143498782926
 20
93.02476973857107
 30
0.0
 10
15.18888231533527
 20
93.12328870352581
 30
0.0
 10
15.19485874855792
 20
93.22439149009452
 30
0.0
 10
15.20083518178057
 20
93.32552657443338
 30
0.0
 10
15.20531784313267
 20
93.42926701223296
 30
0.0
 10
15.20830538687379
 20
93.53428859491613
 30
0.0
 10
15.2112929306149
 20
93.63931017759929
 30
0.0
 10
15.21278804822588
 20
93.74562367108941
 30
0.0
 10
15.21278804822588
 20
93.85194793050294
 30
0.0
 10
15.21278804822588
 20
93.95830448768665
 30
0.0
 10
15.2112929306149
 20
94.06463951302356
 30
0.0
 10
15.20830538687379
 20
94.1696826275535
 30
0.0
 10
15.20531784313267
 20
94.27471497616005
 30
0.0
 10
15.20083518178057
 20
94.37844464803625
 30
0.0
 10
15.19485874855792
 20
94.47959049829851
 30
0.0
 10
15.18888231533527
 20
94.5806932848672
 30
0.0
 10
15.18143498782926
 20
94.67920148389856
 30
0.0
 10
15.1724938884527
 20
94.77383395050901
 30
0.0
 10
15.16355278907614
 20
94.86845565119608
 30
0.0
 10
15.15311791782902
 20
94.95919085353886
 30
0.0
 10
15.14116505138371
 20
95.04473688080697
 30
0.0
 10
15.1292121849384
 20
95.13023984438151
 30
0.0
 10
15.11578842420974
 20
95.2105643988048
 30
0.0
 10
15.10087089161052
 20
95.28439710142304
 30
0.0
 10
15.08595335901131
 20
95.3582298040413
 30
0.0
 10
15.06954205454153
 20
95.42555988893116
 30
0.0
 10
15.05161410061399
 20
95.48507391343886
 30
0.0
 10
15.03373055612045
 20
95.5446310016401
 30
0.0
 10
15.01435458549676
 20
95.59636126353581
 30
0.0
 10
14.99347273133871
 20
95.63898355424239
 30
0.0
 10
14.97258953144023
 20
95.68161661087236
 30
0.0
 10
14.9502017937478
 20
95.7151309303898
 30
0.0
 10
14.92629740659761
 20
95.73826689975794
 30
0.0
 10
14.92542402106248
 20
95.73911740770585
 30
0.0
 10
14.92452775794015
 20
95.73998944750055
 30
0.0
 10
14.92363149481781
 20
95.74083995544848
 30
0.0
 10
14.92273388595505
 20
95.74170122931979
 30
0.0
 10
14.92183762283272
 20
95.7425517372677
 30
0.0
 10
14.92096423729759
 20
95.74334841559867
 30
0.0
 10
14.92004509658805
 20
95.7441989235466
 30
0.0
 10
14.91912595587851
 20
95.74504943149451
 30
0.0
 10
14.91820681516897
 20
95.74587840759566
 30
0.0
 10
14.917286328719
 20
95.74671814962018
 30
0.0
 10
14.91636718800946
 20
95.74754712572133
 30
0.0
 10
14.91544804729992
 20
95.74834380405228
 30
0.0
 10
14.91457466176479
 20
95.74915124830665
 30
0.0
 10
14.91367839864246
 20
95.7499479266376
 30
0.0
 10
14.91275925793291
 20
95.75074460496857
 30
0.0
 10
14.91183877148295
 20
95.75153051737613
 30
0.0
 10
14.9108967531862
 20
95.75231642978371
 30
0.0
 10
14.90993185730225
 20
95.75307004442111
 30
0.0
 10
14.90901271659271
 20
95.75387748867546
 30
0.0
 10
14.90809223014274
 20
95.75465263515964
 30
0.0
 10
14.90716232350981
 20
95.75541701572044
 30
0.0
 10
14.90623107113645
 20
95.75619216220461
 30
0.0
 10
14.9052890528397
 20
95.75694577684201
 30
0.0
 10
14.90432281121532
 20
95.75771015740281
 30
0.0
 10
14.90340367050578
 20
95.75846377204021
 30
0.0
 10
14.90248452979624
 20
95.7592173866776
 30
0.0
 10
14.90155327742288
 20
95.759971001315
 30
0.0
 10
14.90062202504953
 20
95.76071385002901
 30
0.0
 10
14.89968000675278
 20
95.76144593281963
 30
0.0
 10
14.89871511086883
 20
95.76216724968686
 30
0.0
 10
14.89774886924445
 20
95.76287780063067
 30
0.0
 10
14.89678397336049
 20
95.76358835157451
 30
0.0
 10
14.89581907747654
 20
95.76429890251835
 30
0.0
 10
14.89485283585216
 20
95.76502021938557
 30
0.0
 10
14.8938879399682
 20
95.76573077032939
 30
0.0
 10
14.89292169834383
 20
95.76644132127324
 30
0.0
 10
14.89200255763428
 20
95.76715187221706
 30
0.0
 10
14.89103766175033
 20
95.76785165723752
 30
0.0
 10
14.89006065420256
 20
95.76852991041118
 30
0.0
 10
14.88908364665479
 20
95.76920816358484
 30
0.0
 10
14.88809587318363
 20
95.76987565083509
 30
0.0
 10
14.88712963155925
 20
95.77054313808536
 30
0.0
 10
14.88616473567529
 20
95.77121062533562
 30
0.0
 10
14.88519983979134
 20
95.77185658073911
 30
0.0
 10
14.88422283224357
 20
95.77250253614259
 30
0.0
 10
14.8832458246958
 20
95.77314849154609
 30
0.0
 10
14.88225670548422
 20
95.77379444694956
 30
0.0
 10
14.88124605442585
 20
95.77447270012322
 30
0.0
 10
14.86547801387871
 20
95.79086920144833
 30
0.0
 10
14.84444543679317
 20
95.80642596074893
 30
0.0
 10
14.81862202379846
 20
95.82116450987175
 30
0.0
 10
14.79279726506333
 20
95.8358922930712
 30
0.0
 10
14.76218167041902
 20
95.84980186609289
 30
0.0
 10
14.72724355753306
 20
95.86290399486022
 30
0.0
 10
14.6923054446471
 20
95.87605995324453
 30
0.0
 10
14.65306903684712
 20
95.88840846737447
 30
0.0
 10
14.61001745494531
 20
95.9000141327904
 30
0.0
 10
14.56696587304351
 20
95.91163056412973
 30
0.0
 10
14.52009911703987
 20
95.92250414675506
 30
0.0
 10
14.46989896200617
 20
95.9327210080535
 30
0.0
 10
14.41974456214688
 20
95.94288403973498
 30
0.0
 10
14.36625676325753
 20
95.95237958416621
 30
0.0
 10
14.30993214355454
 20
95.96121840727056
 30
0.0
 10
14.23589892561311
 20
95.97283483860987
 30
0.0
 10
14.18001974599045
 20
95.97997264581838
 30
0.0
 10
14.13293228855729
 20
95.9858508399901
 30
0.0
 10
14.08255718726848
 20
95.99213813925066
 30
0.0
 10
14.01806941844102
 20
96.00250254821949
 30
0.0
 10
13.94199190850859
 20
96.00690898614367
 30
0.0
 10
13.59211694656715
 20
96.02717387523414
 30
0.0
 10
13.28194618226913
 20
96.04938062135795
 30
0.0
 10
12.96585547883394
 20
96.05630231559374
 30
0.0
 10
12.30075609062106
 20
96.07086653577368
 30
0.0
 10
12.21337076954198
 20
96.09028549601319
 30
0.0
 10
11.65993040270789
 20
96.08543075595331
 30
0.0
 10
11.24146206041554
 20
96.08175998102103
 30
0.0
 10
10.84993130235224
 20
96.07200882755135
 30
0.0
 10
10.58703284945919
 20
96.05630231559374
 30
0.0
 10
10.37548995357508
 20
96.0436639718258
 30
0.0
 10
10.23737873563583
 20
96.00977563231756
 30
0.0
 10
10.20113834020111
 20
96.00627379666358
 30
0.0
  0
HATCH
  5
81
330
7A
100
AcDbEntity
  8
graphics
 62
     7
440
 33554687
100
AcDbHatch
 10
0.0
 20
0.0
 30
0.0
210
0.0
220
0.0
230
1.0
  2
SOLID
 70
     1
 71
     1
 91
        1
 92
        1
 93
        1
 72
     4
 94
        3
 73
     0
 74
     0
 95
      623
 96
      619
 40
0.0
 40
0.0
 40
0.0
 40
0.0
 40
1.0
 40
1.0
 40
1.0
 40
2.0
 40
2.0
 40
2.0
 40
3.0
 40
3.0
 40
3.0
 40
4.0
 40
4.0
 40
4.0
 40
5.0
 40
5.0
 40
5.0
 40
6.0
 40
6.0
 40
6.0
 40
7.0
 40
7.0
 40
7.0
 40
8.0
 40
8.0
 40
8.0
 40
9.0
 40
9.0
 40
9.0
 40
10.0
 40
10.0
 40
10.0
 40
11.0
 40
11.0
 40
11.0
 40
12.0
 40
12.0
 40
12.0
 40
13.0
 40
13.0
 40
13.0
 40
14.0
 40
14.0
 40
14.0
 40
15.0
 40
15.0
 40
15.0
 40
16.0
 40
16.0
 40
16.0
 40
17.0
 40
17.0
 40
17.0
 40
18.0
 40
18.0
 40
18.0
 40
19.0
 40
19.0
 40
19.0
 40
20.0
 40
20.0
 40
20.0
 40
21.0
 40
21.0
 40
21.0
 40
22.0
 40
22.0
 40
22.0
 40
23.0
 40
23.0
 40
23.0
 40
24.0
 40
24.0
 40
24.0
 40
25.0
 40
25.0
 40
25.0
 40
26.0
 40
26.0
 40
26.0
 40
27.0
 40
27.0
 40
27.0
 40
28.0
 40
28.0
 40
28.0
 40
29.0
 40
29.0
 40
29.0
 40
30.0
 40
30.0
 40
30.0
 40
31.0
 40
31.0
 40
31.0
 40
32.0
 40
32.0
 40
32.0
 40
33.0
 40
33.0
 40
33.0
 40
34.0
 40
34.0
 40
34.0
 40
35.0
 40
35.0
 40
35.0
 40
36.0
 40
36.0
 40
36.0
 40
37.0
 40
37.0
 40
37.0
 40
38.0
 40
38.0
 40
38.0
 40
39.0
 40
39.0
 40
39.0
 40
40.0
 40
40.0
 40
40.0
 40
41.0
 40
41.0
 40
41.0
 40
42.0
 40
42.0
 40
42.0
 40
43.0
 40
43.0
 40
43.0
 40
44.0
 40
44.0
 40
44.0
 40
45.0
 40
45.0
 40
45.0
 40
46.0
 40
46.0
 40
46.0
 40
47.0
 40
47.0
 40
47.0
 40
48.0
 40
48.0
 40
48.0
 40
49.0
 40
49.0
 40
49.0
 40
50.0
 40
50.0
 40
50.0
 40
51.0
 40
51.0
 40
51.0
 40
52.0
 40
52.0
 40
52.0
 40
53.0
 40
53.0
 40
53.0
 40
54.0
 40
54.0
 40
54.0
 40
55.0
 40
55.0
 40
55.0
 40
56.0
 40
56.0
 40
56.0
 40
57.0
 40
57.0
 40
57.0
 40
58.0
 40
58.0
 40
58.0
 40
59.0
 40
59.0
 40
59.0
 40
60.0
 40
60.0
 40
60.0
 40
61.0
 40
61.0
 40
61.0
 40
62.0
 40
62.0
 40
62.0
 40
63.0
 40
63.0
 40
63.0
 40
64.0
 40
64.0
 40
64.0
 40
65.0
 40
65.0
 40
65.0
 40
66.0
 40
66.0
 40
66.0
 40
67.0
 40
67.0
 40
67.0
 40
68.0
 40
68.0
 40
68.0
 40
69.0
 40
69.0
 40
69.0
 40
70.0
 40
70.0
 40
70.0
 40
71.0
 40
71.0
 40
71.0
 40
72.0
 40
72.0
 40
72.0
 40
73.0
 40
73.0
 40
73.0
 40
74.0
 40
74.0
 40
74.0
 40
75.0
 40
75.0
 40
75.0
 40
76.0
 40
76.0
 40
76.0
 40
77.0
 40
77.0
 40
77.0
 40
78.0
 40
78.0
 40
78.0
 40
79.0
 40
79.0
 40
79.0
 40
80.0
 40
80.0
 40
80.0
 40
81.0
 40
81.0
 40
81.0
 40
82.0
 40
82.0
 40
82.0
 40
83.0
 40
83.0
 40
83.0
 40
84.0
 40
84.0
 40
84.0
 40
85.0
 40
85.0
 40
85.0
 40
86.0
 40
86.0
 40
86.0
 40
87.0
 40
87.0
 40
87.0
 40
88.0
 40
88.0
 40
88.0
 40
89.0
 40
89.0
 40
89.0
 40
90.0
 40
90.0
 40
90.0
 40
91.0
 40
91.0
 40
91.0
 40
92.0
 40
92.0
 40
92.0
 40
93.0
 40
93.0
 40
93.0
 40
94.0
 40
94.0
 40
94.0
 40
95.0
 40
95.0
 40
95.0
 40
96.0
 40
96.0
 40
96.0
 40
97.0
 40
97.0
 40
97.0
 40
98.0
 40
98.0
 40
98.0
 40
99.0
 40
99.0
 40
99.0
 40
100.0
 40
100.0
 40
100.0
 40
101.0
 40
101.0
 40
101.0
 40
102.0
 40
102.0
 40
102.0
 40
103.0
 40
103.0
 40
103.0
 40
104.0
 40
104.0
 40
104.0
 40
105.0
 40
105.0
 40
105.0
 40
106.0
 40
106.0
 40
106.0
 40
107.0
 40
107.0
 40
107.0
 40
108.0
 40
108.0
 40
108.0
 40
109.0
 40
109.0
 40
109.0
 40
110.0
 40
110.0
 40
110.0
 40
111.0
 40
111.0
 40
111.0
 40
112.0
 40
112.0
 40
112.0
 40
113.0
 40
113.0
 40
113.0
 40
114.0
 40
114.0
 40
114.0
 40
115.0
 40
115.0
 40
115.0
 40
116.0
 40
116.0
 40
116.0
 40
117.0
 40
117.0
 40
117.0
 40
118.0
 40
118.0
 40
118.0
 40
119.0
 40
119.0
 40
119.0
 40
120.0
 40
120.0
 40
120.0
 40
121.0
 40
121.0
 40
121.0
 40
122.0
 40
122.0
 40
122.0
 40
123.0
 40
123.0
 40
123.0
 40
124.0
 40
124.0
 40
124.0
 40
125.0
 40
125.0
 40
125.0
 40
126.0
 40
126.0
 40
126.0
 40
127.0
 40
127.0
 40
127.0
 40
128.0
 40
128.0
 40
128.0
 40
129.0
 40
129.0
 40
129.0
 40
130.0
 40
130.0
 40
130.0
 40
131.0
 40
131.0
 40
131.0
 40
132.0
 40
132.0
 40
132.0
 40
133.0
 40
133.0
 40
133.0
 40
134.0
 40
134.0
 40
134.0
 40
135.0
 40
135.0
 40
135.0
 40
136.0
 40
136.0
 40
136.0
 40
137.0
 40
137.0
 40
137.0
 40
138.0
 40
138.0
 40
138.0
 40
139.0
 40
139.0
 40
139.0
 40
140.0
 40
140.0
 40
140.0
 40
141.0
 40
141.0
 40
141.0
 40
142.0
 40
142.0
 40
142.0
 40
143.0
 40
143.0
 40
143.0
 40
144.0
 40
144.0
 40
144.0
 40
145.0
 40
145.0
 40
145.0
 40
146.0
 40
146.0
 40
146.0
 40
147.0
 40
147.0
 40
147.0
 40
148.0
 40
148.0
 40
148.0
 40
149.0
 40
149.0
 40
149.0
 40
150.0
 40
150.0
 40
150.0
 40
151.0
 40
151.0
 40
151.0
 40
152.0
 40
152.0
 40
152.0
 40
153.0
 40
153.0
 40
153.0
 40
154.0
 40
154.0
 40
154.0
 40
155.0
 40
155.0
 40
155.0
 40
156.0
 40
156.0
 40
156.0
 40
157.0
 40
157.0
 40
157.0
 40
158.0
 40
158.0
 40
158.0
 40
159.0
 40
159.0
 40
159.0
 40
160.0
 40
160.0
 40
160.0
 40
161.0
 40
161.0
 40
161.0
 40
162.0
 40
162.0
 40
162.0
 40
163.0
 40
163.0
 40
163.0
 40
164.0
 40
164.0
 40
164.0
 40
165.0
 40
165.0
 40
165.0
 40
166.0
 40
166.0
 40
166.0
 40
167.0
 40
167.0
 40
167.0
 40
168.0
 40
168.0
 40
168.0
 40
169.0
 40
169.0
 40
169.0
 40
170.0
 40
170.0
 40
170.0
 40
171.0
 40
171.0
 40
171.0
 40
172.0
 40
172.0
 40
172.0
 40
173.0
 40
173.0
 40
173.0
 40
174.0
 40
174.0
 40
174.0
 40
175.0
 40
175.0
 40
175.0
 40
176.0
 40
176.0
 40
176.0
 40
177.0
 40
177.0
 40
177.0
 40
178.0
 40
178.0
 40
178.0
 40
179.0
 40
179.0
 40
179.0
 40
180.0
 40
180.0
 40
180.0
 40
181.0
 40
181.0
 40
181.0
 40
182.0
 40
182.0
 40
182.0
 40
183.0
 40
183.0
 40
183.0
 40
184.0
 40
184.0
 40
184.0
 40
185.0
 40
185.0
 40
185.0
 40
186.0
 40
186.0
 40
186.0
 40
187.0
 40
187.0
 40
187.0
 40
188.0
 40
188.0
 40
188.0
 40
189.0
 40
189.0
 40
189.0
 40
190.0
 40
190.0
 40
190.0
 40
191.0
 40
191.0
 40
191.0
 40
192.0
 40
192.0
 40
192.0
 40
193.0
 40
193.0
 40
193.0
 40
194.0
 40
194.0
 40
194.0
 40
195.0
 40
195.0
 40
195.0
 40
196.0
 40
196.0
 40
196.0
 40
197.0
 40
197.0
 40
197.0
 40
198.0
 40
198.0
 40
198.0
 40
199.0
 40
199.0
 40
199.0
 40
200.0
 40
200.0
 40
200.0
 40
201.0
 40
201.0
 40
201.0
 40
202.0
 40
202.0
 40
202.0
 40
203.0
 40
203.0
 40
203.0
 40
204.0
 40
204.0
 40
204.0
 40
205.0
 40
205.0
 40
205.0
 40
206.0
 40
206.0
 40
206.0
 40
206.0
 10
10.20113834020111
 20
96.00627379666358
 10
10.10700110606666
 20
95.99717659139784
 10
10.00947462467455
 20
95.9849572683486
 10
10.00943963542353
 20
95.9849572683486
 10
9.912147985735396
 20
95.97277024306952
 10
9.849034778463916
 20
95.96274716839213
 10
9.832095943747964
 20
95.96005568754428
 10
9.775677795085513
 20
95.95110920520601
 10
9.722122036304753
 20
95.9414952356175
 10
9.671921881271051
 20
95.9312030128553
 10
9.621721726237352
 20
95.92085696047616
 10
9.574900052537916
 20
95.90982188899998
 10
9.531952092648751
 20
95.89805473473317
 10
9.489003459889373
 20
95.88628758046636
 10
9.449928540940266
 20
95.87378834340894
 10
9.415220549666798
 20
95.86050319394395
 10
9.380512558393329
 20
95.84717498078537
 10
9.350148617208294
 20
95.83308238706605
 10
9.32464616330469
 20
95.81816081724555
 10
9.299144382271297
 20
95.80323924742506
 10
9.278503415649124
 20
95.78748870150343
 10
9.26324070063117
 20
95.77081228617016
 10
9.249633246334646
 20
95.76144593281963
 10
9.236486035263103
 20
95.75135826260188
 10
9.223786282882516
 20
95.7403016592789
 10
9.211087203372141
 20
95.72924505595592
 10
9.198835582552721
 20
95.71723028545113
 10
9.187021327371077
 20
95.70403126337325
 10
9.175160644144808
 20
95.69084300721879
 10
9.163760204143521
 20
95.67645973356787
 10
9.152807222833191
 20
95.66067688987606
 10
9.141854914393071
 20
95.64488328026087
 10
9.131350737514118
 20
95.62767933468141
 10
9.121283253402729
 20
95.60881743689966
 10
9.11121509642113
 20
95.59000936873488
 10
9.101584305077306
 20
95.56956488021461
 10
9.092378767707442
 20
95.54727941879439
 10
9.083173230337578
 20
95.52499395737418
 10
9.074392946941674
 20
95.50085675713065
 10
9.066025805855916
 20
95.47464173367258
 10
9.057705092814783
 20
95.44846977390808
 10
9.049798194954009
 20
95.42020922500563
 10
9.04230511227359
 20
95.38965553442082
 10
9.034812029593171
 20
95.35910184383601
 10
9.027732089222897
 20
95.32624424564543
 10
9.021066636903194
 20
95.29089971915146
 10
9.014446939757904
 20
95.25554442673408
 10
9.008240384922759
 20
95.21770220601329
 10
9.002459756931784
 20
95.17713620667448
 10
8.996679128940812
 20
95.13657020733566
 10
8.991323082053588
 20
95.0932804293788
 10
8.98640440080414
 20
95.0470623202595
 10
8.981439964380278
 20
95.00079038152325
 10
8.976911547853767
 20
94.95156857977773
 10
8.972796946507614
 20
94.89920312840194
 10
8.968683018031674
 20
94.84683767702614
 10
8.964982231865878
 20
94.79131781009666
 10
8.961672383293233
 20
94.73242820914567
 10
8.958408289895
 20
94.67349554450112
 10
8.955558011677126
 20
94.61120391175844
 10
8.953110109846004
 20
94.54530569467966
 10
8.950662208014884
 20
94.47940747760085
 10
8.948616682570516
 20
94.40991344210933
 10
8.946961421849088
 20
94.33658673789047
 10
8.945352589172285
 20
94.26321696997803
 10
8.94413402121842
 20
94.18602529926166
 10
8.943318502521522
 20
94.10480717319689
 10
8.942502310954411
 20
94.02358904713214
 10
8.942088495774054
 20
93.93833369979558
 10
8.942088495774054
 20
93.84882581271943
 10
8.942134923818679
 20
93.76051294313972
 10
8.942548066128825
 20
93.67639878368269
 10
8.943352818902331
 20
93.59623571811027
 10
8.944157571675839
 20
93.51607265253788
 10
8.945352589172285
 20
93.43987144677349
 10
8.946961421849088
 20
93.36738448457916
 10
8.948570254525892
 20
93.29495135200179
 10
8.950570024795846
 20
93.22625399484122
 10
8.952972171452552
 20
93.16108786055306
 10
8.95537431810926
 20
93.09591096034148
 10
8.958178168282509
 20
93.03426528300228
 10
8.961396506506329
 20
92.97591397822086
 10
8.964614171859935
 20
92.91760573713302
 10
8.968246325264109
 20
92.86260263452632
 10
8.972280182184826
 20
92.81068935193296
 10
8.976314039105544
 20
92.7587760693396
 10
8.980750272413015
 20
92.70996337268298
 10
8.985576770443426
 20
92.66404670941863
 10
8.99044969651846
 20
92.61814081207766
 10
8.995713560186645
 20
92.57509865035883
 10
9.001379800241585
 20
92.53473720356444
 10
9.007045367426313
 20
92.49436499084668
 10
9.013113310997793
 20
92.45667349305337
 10
9.019595742619843
 20
92.42145815764009
 10
9.026123256546094
 20
92.38619975853323
 10
9.033041708065496
 20
92.35341752180639
 10
9.040373974765257
 20
92.32288536306837
 10
9.047706914335227
 20
92.29234243840695
 10
9.055452996215343
 20
92.26406035765773
 10
9.063635770863024
 20
92.23780227050609
 10
9.071818545510705
 20
92.21154418335444
 10
9.080415135338743
 20
92.1873208557238
 10
9.089424867476925
 20
92.16490620322288
 10
9.098435272485319
 20
92.14250231664536
 10
9.107859492674071
 20
92.12190710519761
 10
9.11769752804318
 20
92.10291601633517
 10
9.127580645716491
 20
92.08392492747274
 10
9.137878251440371
 20
92.0665379611956
 10
9.14860111113821
 20
92.05053979903597
 10
9.15932397083605
 20
92.03453087095295
 10
9.170472084507851
 20
92.01991074698744
 10
9.182056218077004
 20
92.00645334274817
 10
9.193641024516368
 20
91.99298517258553
 10
9.205662523723297
 20
91.98070125399594
 10
9.218109276904186
 20
91.96938626851157
 10
9.230555357214862
 20
91.95806051710381
 10
9.243427364369713
 20
91.94769293287789
 10
9.256713186704919
 20
91.93806819736597
 10
9.257356450627556
 20
91.93713156203092
 10
9.258000387420404
 20
91.93621645854264
 10
9.258643651343041
 20
91.93532288690116
 10
9.259287588135888
 20
91.93442931525966
 10
9.259930852058525
 20
91.93356804138835
 10
9.260574788851373
 20
91.93271753344044
 10
9.26121805277401
 20
91.93182396179896
 10
9.261884867154066
 20
91.93093039015746
 10
9.262551681534121
 20
91.93005835036275
 10
9.263217823043964
 20
91.92917554464466
 10
9.26388463742402
 20
91.92830350484996
 10
9.264527901346655
 20
91.92745299690203
 10
9.265217593313918
 20
91.92657019118394
 10
9.26590728528118
 20
91.92569815138924
 10
9.266608416042044
 20
91.92482611159453
 10
9.267309546802909
 20
91.92395407179983
 10
9.268022116357379
 20
91.92309279792851
 10
9.268757563499054
 20
91.92219922628703
 10
9.269447255466316
 20
91.92134871833912
 10
9.270159825020785
 20
91.92050897631458
 10
9.270872394575253
 20
91.91965846836666
 10
9.271584964129722
 20
91.91880796041875
 10
9.272296860813979
 20
91.91796821839421
 10
9.27298655278124
 20
91.91711771044628
 10
9.273721999922916
 20
91.91626720249837
 10
9.27448099752201
 20
91.91542746047383
 10
9.275239322250893
 20
91.91457695252593
 10
9.275997646979774
 20
91.91372644457798
 10
9.276743860044842
 20
91.91288670255346
 10
9.277492091720544
 20
91.91203619460555
 10
9.278227538862219
 20
91.91118568665762
 10
9.278985863591101
 20
91.91034594463308
 10
9.279755627113587
 20
91.90950620260856
 10
9.280526063506284
 20
91.90866646058402
 10
9.281307265822373
 20
91.90784825040628
 10
9.282089141008674
 20
91.90704080615194
 10
9.282870343324763
 20
91.90619029820402
 10
9.283652218511063
 20
91.90537208802627
 10
9.284444859620757
 20
91.90455387784851
 10
9.28523817360066
 20
91.90374643359417
 10
9.286042253503955
 20
91.9029389893398
 10
9.286869883864671
 20
91.90214231100885
 10
9.287651759050971
 20
91.90129180306092
 10
9.288455838954266
 20
91.90046282695979
 10
9.289272030521377
 20
91.89965538270543
 10
9.290088222088488
 20
91.89883717252767
 10
9.290915179578991
 20
91.89804049419672
 10
9.291742809939705
 20
91.89723304994236
 10
9.306407343339223
 20
91.88301126514231
 10
9.327393492380133
 20
91.86951079720948
 10
9.354021658148351
 20
91.85665628468015
 10
9.380650496786781
 20
91.84381253807421
 10
9.412922025022732
 20
91.83161474687175
 10
9.450158662552757
 20
91.82003061330259
 10
9.487441055257194
 20
91.80847877750361
 10
9.529687884385495
 20
91.79756213118473
 10
9.576222242504423
 20
91.78722684472898
 10
9.622755927753138
 20
91.77690232419662
 10
9.673576469122268
 20
91.76715916352739
 10
9.728006286308369
 20
91.75797583087453
 10
9.782435430624255
 20
91.74883556191522
 10
9.840496728344319
 20
91.74025512097228
 10
9.901499814631083
 20
91.73221297619889
 10
9.96250357378806
 20
91.72416006550212
 10
10.02644912151174
 20
91.71665621689831
 10
10.09264676583486
 20
91.7096583666939
 10
10.15884508302819
 20
91.70260668687253
 10
10.22729549682096
 20
91.69610406914413
 10
10.29733186570332
 20
91.69007515204494
 10
10.3673689074559
 20
91.68404623494573
 10
10.43899123142786
 20
91.67849101847577
 10
10.51153336897958
 20
91.67336643894147
 10
10.58402907848667
 20
91.66828492310072
 10
10.65744460157351
 20
91.66362327827226
 10
10.73107813460903
 20
91.65937073853264
 10
10.80471234051476
 20
91.65511819879304
 10
10.87856455636917
 20
91.65125323229553
 10
10.95193365141139
 20
91.6477758390401
 10
11.02534917449823
 20
91.64435227540163
 10
11.0983051272303
 20
91.6412732213117
 10
11.17011181764034
 20
91.63853867677026
 10
11.24191783518017
 20
91.63581489815225
 10
11.31257526326818
 20
91.63342486315936
 10
11.3813937370669
 20
91.63137933771499
 10
11.45025796604002
 20
91.62932304634722
 10
11.51730679118127
 20
91.62761126452799
 10
11.58184984765317
 20
91.62616863079355
 10
11.64639290412508
 20
91.62473676298249
 10
11.70843019192763
 20
91.62357404325623
 10
11.76727269196378
 20
91.62263740792116
 10
11.82616094717435
 20
91.62174383627968
 10
11.88187863794614
 20
91.62109788087619
 10
11.93373270796085
 20
91.62067800986394
 10
11.98558812371598
 20
91.62025813885167
 10
12.03358126445444
 20
91.62005358630723
 10
12.07702445681961
 20
91.62005358630723
 10
12.07858686145179
 20
91.62005358630723
 10
12.08971209753638
 20
91.62007511815401
 10
12.10926166867475
 20
91.62017201146452
 10
12.1288098940727
 20
91.62027967069844
 10
12.15678380026484
 20
91.62045192547271
 10
12.19204354511212
 20
91.62076413725106
 10
12.22730328995939
 20
91.62107634902941
 10
12.26984887346181
 20
91.62152851781184
 10
12.31856602254834
 20
91.62218523913873
 10
12.3672845173753
 20
91.62284196046561
 10
12.42217323204596
 20
91.6237140002603
 10
12.48211923922973
 20
91.62486595406319
 10
12.54201949123909
 20
91.62602867378947
 10
12.60695281243393
 20
91.62742824383034
 10
12.67578339789646
 20
91.62918308934314
 10
12.74461263761856
 20
91.63092716893254
 10
12.81733914160835
 20
91.63302652399387
 10
12.89282306772677
 20
91.63556728191425
 10
12.9683527490196
 20
91.63806497614105
 10
13.04661832059427
 20
91.64096100953335
 10
13.12651627530317
 20
91.64433074355484
 10
13.20641288427164
 20
91.64768971165297
 10
13.28794187637433
 20
91.65152238038031
 10
13.36999974446362
 20
91.65589334527721
 10
13.4520118573785
 20
91.66026431017412
 10
13.53455284627999
 20
91.66518433716401
 10
13.61647344884604
 20
91.67071802178718
 10
13.69839270567167
 20
91.67624094048697
 10
13.7796929219023
 20
91.68237751682008
 10
13.85922214373503
 20
91.68914928263326
 10
13.87195553962622
 20
91.69021510904903
 10
13.88360965169742
 20
91.69162544501331
 10
13.89521666285378
 20
91.69304654690096
 10
13.90682501975056
 20
91.69447841471201
 10
13.90923254936896
 20
91.69422003255062
 10
13.9217829245625
 20
91.69537198635351
 10
13.9217829245625
 20
91.69537198635351
 10
13.91722893896793
 20
91.89962308493525
 10
13.91722893896793
 20
91.89962308493525
 10
13.91722893896793
 20
91.89962308493525
 10
13.91722893896793
 20
92.1048969462392
 10
13.91722893896793
 20
92.1048969462392
 10
13.69128988771419
 20
92.09034141781399
 10
13.40001917610013
 20
92.07719622535311
 10
13.0822912077517
 20
92.06831433855519
 10
12.76456458514368
 20
92.05943245175728
 10
12.42038070580129
 20
92.05481387062237
 10
12.07491029861362
 20
92.05458778623116
 10
11.48928712981472
 20
92.05414638337209
 10
10.90391763308572
 20
92.06589200579212
 10
10.44803595281707
 20
92.0897062283339
 10
9.992154945418628
 20
92.1135204508757
 10
9.665761754480532
 20
92.14940327353927
 10
9.598092543003851
 20
92.19723627116726
 10
9.598092543003851
 20
92.19723627116726
 10
9.583014194423975
 20
92.21168414035854
 10
9.583014194423975
 20
92.21168414035854
 10
9.583014194423975
 20
92.21168414035854
 10
9.5679358458441
 20
92.22612124362642
 10
9.5679358458441
 20
92.22612124362642
 10
9.5679358458441
 20
92.22612124362642
 10
9.552857497264223
 20
92.24056911281769
 10
9.552857497264223
 20
92.24056911281769
 10
9.552857497264223
 20
92.24056911281769
 10
9.537778475814137
 20
92.25500621608556
 10
9.537778475814137
 20
92.25500621608556
 10
9.486061671322671
 20
92.31849286632467
 10
9.447261956290256
 20
92.53399435485045
 10
9.421277054444676
 20
92.82539560328563
 10
9.395292152599093
 20
93.1167968517208
 10
9.382121391070132
 20
93.4840978600654
 10
9.381661820715361
 20
93.8511404862486
 10
9.381248005535004
 20
94.21823694204874
 10
9.393522503941632
 20
94.5850857816109
 10
9.418403898639594
 20
94.87555039471102
 10
9.443285966207769
 20
95.16601500781115
 10
9.48077493006728
 20
95.38009539444926
 10
9.530791391533114
 20
95.44165494440131
 10
9.530791391533114
 20
95.44165494440131
 10
9.545639618500498
 20
95.4561889409797
 10
9.545639618500498
 20
95.4561889409797
 10
9.545639618500498
 20
95.4561889409797
 10
9.560488518338095
 20
95.4707229375581
 10
9.560488518338095
 20
95.4707229375581
 10
9.560488518338095
 20
95.4707229375581
 10
9.575290990131065
 20
95.48520310451953
 10
9.575290990131065
 20
95.48520310451953
 10
9.575290990131065
 20
95.48520310451953
 10
9.590093461924038
 20
95.49969403740439
 10
9.590093461924038
 20
95.49969403740439
 10
9.625215268377862
 20
95.52470327744261
 10
9.726006516038415
 20
95.546525804157
 10
9.875905850378652
 20
95.56520468124109
 10
10.02580518471889
 20
95.58387279240177
 10
10.22481327860902
 20
95.59940801985558
 10
10.4563681046518
 20
95.61185342729604
 10
10.68787717552017
 20
95.62424500511955
 10
10.95193365141139
 20
95.63351446515955
 10
11.23195397308143
 20
95.63968333926283
 10
11.51197362188125
 20
95.64586297928949
 10
11.8079571164599
 20
95.64894203337944
 10
12.10332022470312
 20
95.64894203337944
 10
12.39353318434397
 20
95.64894203337944
 10
12.68314998097702
 20
95.64597063852341
 10
12.95642410590192
 20
95.64003861473475
 10
13.2296968850864
 20
95.63409582502268
 10
13.48662833830315
 20
95.6251816404546
 10
13.71147195685181
 20
95.61327452918371
 10
13.93631557540047
 20
95.60142124752976
 10
14.12909423686825
 20
95.58659657101982
 10
14.27403990070802
 20
95.5688004996538
 10
14.41898556454779
 20
95.55100442828781
 10
14.51609957649996
 20
95.53022619614241
 10
14.54961255027698
 20
95.50646580321757
 10
14.54961255027698
 20
95.50646580321757
 10
14.56469022598665
 20
95.49215789103039
 10
14.56469022598665
 20
95.49215789103039
 10
14.56469022598665
 20
95.49215789103039
 10
14.57976924743674
 20
95.47784997884321
 10
14.57976924743674
 20
95.47784997884321
 10
14.57976924743674
 20
95.47784997884321
 10
14.5948469231464
 20
95.46354206665602
 10
14.5948469231464
 20
95.46354206665602
 10
14.5948469231464
 20
95.46354206665602
 10
14.60992594459649
 20
95.44923415446886
 10
14.60992594459649
 20
95.44923415446886
 10
14.6614597283903
 20
95.38602741823792
 10
14.70014303687604
 20
95.17199009529338
 10
14.7260027848622
 20
94.88223603313709
 10
14.75186118710793
 20
94.59248197098078
 10
14.76489333737323
 20
94.22701116961274
 10
14.76512345898572
 20
93.86094824245816
 10
14.76535358059821
 20
93.49488531530358
 10
14.75275745023027
 20
93.12820873051569
 10
14.7273243019585
 20
92.83604310151972
 10
14.70189115368672
 20
92.54386670660037
 10
14.6636196417707
 20
92.32620126747292
 10
14.61250034602746
 20
92.25812833386907
 10
14.61250034602746
 20
92.25812833386907
 10
14.59870919816307
 20
92.2446709296298
 10
14.59870919816307
 20
92.2446709296298
 10
14.59870919816307
 20
92.2446709296298
 10
14.58491805029868
 20
92.23120275946717
 10
14.58491805029868
 20
92.23120275946717
 10
14.58491805029868
 20
92.23120275946717
 10
14.5711726576087
 20
92.2177453552279
 10
14.5711726576087
 20
92.2177453552279
 10
14.5711726576087
 20
92.2177453552279
 10
14.55742726491872
 20
92.20427718506526
 10
14.55742726491872
 20
92.20427718506526
 10
14.5289258284804
 20
92.1839080580087
 10
14.45560181574238
 20
92.16576747709419
 10
14.34775417816897
 20
92.14970471939421
 10
14.23990654059557
 20
92.13365272761762
 10
14.09753527818677
 20
92.11967855905559
 10
13.93093665092604
 20
92.107642256704
 10
13.93093665092604
 20
92.107642256704
 10
13.93093665092604
 20
91.90235762947667
 10
13.93093665092604
 20
91.90235762947667
 10
13.93093665092604
 20
91.90235762947667
 10
13.93093665092604
 20
91.69708376817274
 10
13.93093665092604
 20
91.69708376817274
 10
13.99662896971997
 20
91.70314498304209
 10
14.06188392287613
 20
91.70938921860912
 10
14.12497896265189
 20
91.71615021849893
 10
14.18807400242764
 20
91.72291121838872
 10
14.249009128823
 20
91.7301997485247
 10
14.30605910261448
 20
91.73836031845539
 10
14.37400284513764
 20
91.74808194727782
 10
14.43792551527412
 20
91.75857872258445
 10
14.49668861662526
 20
91.76993677176238
 10
14.55545037223597
 20
91.78129482094032
 10
14.60905255906136
 20
91.79350337806615
 10
14.65635668070277
 20
91.80665933645046
 10
14.7037065575186
 20
91.81980452891137
 10
14.74473549156325
 20
91.83388635670732
 10
14.77833997568909
 20
91.8489694153787
 10
14.81194445981494
 20
91.86405247405005
 10
14.83812449402199
 20
91.88011523175003
 10
14.85577791690305
 20
91.89723304994236
 10
14.85651403691494
 20
91.89794360088619
 10
14.8572488111864
 20
91.89866491775342
 10
14.85798493119829
 20
91.89938623462065
 10
14.85871970546975
 20
91.90010755148787
 10
14.85945582548164
 20
91.90085040020187
 10
14.8601905997531
 20
91.90160401483927
 10
14.86092671976499
 20
91.9023145657831
 10
14.86166283977688
 20
91.90302511672694
 10
14.86238684812495
 20
91.90375719951756
 10
14.86311085647302
 20
91.90447851638479
 10
14.86382275315728
 20
91.90521059917539
 10
14.86451177225433
 20
91.90597497973618
 10
14.86524789226622
 20
91.90672859437357
 10
14.86595978895048
 20
91.90749297493438
 10
14.86666091971134
 20
91.90824658957177
 10
14.8673620504722
 20
91.90900020420917
 10
14.86805241530968
 20
91.90976458476995
 10
14.86874143440673
 20
91.91051819940737
 10
14.8694317992442
 20
91.91127181404475
 10
14.87012081834125
 20
91.91203619460555
 10
14.8708098374383
 20
91.91278980924293
 10
14.87150020227578
 20
91.91355418980373
 10
14.87218922137283
 20
91.91430780444113
 10
14.8728795862103
 20
91.91506141907852
 10
14.87356860530735
 20
91.91582579963933
 10
14.87423474681719
 20
91.9166009461235
 10
14.87489012240365
 20
91.91738685853108
 10
14.8755454979901
 20
91.91816200501525
 10
14.87618876191273
 20
91.91894791742283
 10
14.87683202583537
 20
91.91970153206023
 10
14.87752239067284
 20
91.92050897631458
 10
14.87818853218269
 20
91.92128412279876
 10
14.87884390776914
 20
91.92205926928293
 10
14.87949928335559
 20
91.92284518169051
 10
14.88014254727823
 20
91.92362032817468
 10
14.88078581120086
 20
91.92442777242906
 10
14.8814290751235
 20
91.92522445076001
 10
14.88207368478656
 20
91.92603189501438
 10
14.88270483704538
 20
91.92683933926872
 10
14.88333733504463
 20
91.92763601759969
 10
14.88395772138006
 20
91.92844346185404
 10
14.88455523012828
 20
91.92924014018501
 10
14.88519983979134
 20
91.93004758443937
 10
14.88582022612677
 20
91.93086579461711
 10
14.8864406124622
 20
91.93169477071824
 10
14.88706099879763
 20
91.93251298089599
 10
14.88768138513306
 20
91.93334195699714
 10
14.88832464905569
 20
91.93414940125149
 10
14.88915227941641
 20
91.93471999519124
 10
14.88997990977712
 20
91.93532288690116
 10
14.89080754013784
 20
91.93592577861108
 10
14.89163517049855
 20
91.93652867032099
 10
14.89246280085927
 20
91.93713156203092
 10
14.89329043121998
 20
91.93771292189405
 10
14.89411806158069
 20
91.93833734545075
 10
14.89494569194141
 20
91.93896176900745
 10
14.8957719765617
 20
91.93958619256415
 10
14.89659960692242
 20
91.94021061612085
 10
14.89742723728313
 20
91.94083503967755
 10
14.89825486764384
 20
91.94145946323425
 10
14.89908249800456
 20
91.94208388679095
 10
14.89991012836527
 20
91.94270831034765
 10
14.90072564706217
 20
91.94333273390435
 10
14.90154251149949
 20
91.94395715746106
 10
14.90234591853258
 20
91.94457081509439
 10
14.90312779371888
 20
91.94519523865109
 10
14.90395542407959
 20
91.94581966220779
 10
14.9047601768531
 20
91.94646561761127
 10
14.90556492962661
 20
91.94713310486152
 10
14.90636833665969
 20
91.9477898261884
 10
14.9071730894332
 20
91.94845731343866
 10
14.90800071979391
 20
91.94912480068893
 10
14.90878259498021
 20
91.94974922424563
 10
14.90956312442609
 20
91.95039517964913
 10
14.91034499961239
 20
91.95105190097599
 10
14.91112687479869
 20
91.95170862230288
 10
14.91190874998499
 20
91.95237610955315
 10
14.91268927943087
 20
91.9530435968034
 10
14.91347115461717
 20
91.95375414774725
 10
14.91425302980347
 20
91.95445393276768
 10
14.91502279332596
 20
91.95513218594134
 10
14.91579255684844
 20
91.955810439115
 10
14.91655155444754
 20
91.95647792636526
 10
14.917286328719
 20
91.95714541361553
 10
14.9180682039053
 20
91.95785596455937
 10
14.9188500790916
 20
91.95857728142661
 10
14.91961984261409
 20
91.95927706644702
 10
14.92038960613657
 20
91.95997685146748
 10
14.92114860373567
 20
91.96066587056453
 10
14.92188337800713
 20
91.9613333578148
 10
14.92261949801902
 20
91.96205467468201
 10
14.92335561803091
 20
91.96278675747263
 10
14.92409039230237
 20
91.96351884026325
 10
14.92482651231426
 20
91.96426168897726
 10
14.92556128658572
 20
91.96499377176786
 10
14.92629740659761
 20
91.96570432271171
 10
14.9502017937478
 20
91.98884029207983
 10
14.97258953144023
 20
92.02236537752067
 10
14.99347273133871
 20
92.06498766822724
 10
15.01435458549676
 20
92.10762072485721
 10
15.03373055612045
 20
92.15935098675291
 10
15.05161410061399
 20
92.21890807495418
 10
15.06954205454153
 20
92.27841133353846
 10
15.08595335901131
 20
92.34575218435173
 10
15.10087089161052
 20
92.41957412104659
 10
15.11578842420974
 20
92.49340682366485
 10
15.1292121849384
 20
92.57374214401151
 10
15.14116505138371
 20
92.65923434166266
 10
15.15311791782902
 20
92.74478036893077
 10
15.16355278907614
 20
92.83551557127355
 10
15.1724938884527
 20
92.930148037884
 10
15.18143498782926
 20
93.02476973857107
 10
15.18888231533527
 20
93.12328870352581
 10
15.19485874855792
 20
93.22439149009452
 10
15.20083518178057
 20
93.32552657443338
 10
15.20531784313267
 20
93.42926701223296
 10
15.20830538687379
 20
93.53428859491613
 10
15.2112929306149
 20
93.63931017759929
 10
15.21278804822588
 20
93.74562367108941
 10
15.21278804822588
 20
93.85194793050294
 10
15.21278804822588
 20
93.95830448768665
 10
15.2112929306149
 20
94.06463951302356
 10
15.20830538687379
 20
94.1696826275535
 10
15.20531784313267
 20
94.27471497616005
 10
15.20083518178057
 20
94.37844464803625
 10
15.19485874855792
 20
94.47959049829851
 10
15.18888231533527
 20
94.5806932848672
 10
15.18143498782926
 20
94.67920148389856
 10
15.1724938884527
 20
94.77383395050901
 10
15.16355278907614
 20
94.86845565119608
 10
15.15311791782902
 20
94.95919085353886
 10
15.14116505138371
 20
95.04473688080697
 10
15.1292121849384
 20
95.13023984438151
 10
15.11578842420974
 20
95.2105643988048
 10
15.10087089161052
 20
95.28439710142304
 10
15.08595335901131
 20
95.3582298040413
 10
15.06954205454153
 20
95.42555988893116
 10
15.05161410061399
 20
95.48507391343886
 10
15.03373055612045
 20
95.5446310016401
 10
15.01435458549676
 20
95.59636126353581
 10
14.99347273133871
 20
95.63898355424239
 10
14.97258953144023
 20
95.68161661087236
 10
14.9502017937478
 20
95.7151309303898
 10
14.92629740659761
 20
95.73826689975794
 10
14.92542402106248
 20
95.73911740770585
 10
14.92452775794015
 20
95.73998944750055
 10
14.92363149481781
 20
95.74083995544848
 10
14.92273388595505
 20
95.74170122931979
 10
14.92183762283272
 20
95.7425517372677
 10
14.92096423729759
 20
95.74334841559867
 10
14.92004509658805
 20
95.7441989235466
 10
14.91912595587851
 20
95.74504943149451
 10
14.91820681516897
 20
95.74587840759566
 10
14.917286328719
 20
95.74671814962018
 10
14.91636718800946
 20
95.74754712572133
 10
14.91544804729992
 20
95.74834380405228
 10
14.91457466176479
 20
95.74915124830665
 10
14.91367839864246
 20
95.7499479266376
 10
14.91275925793291
 20
95.75074460496857
 10
14.91183877148295
 20
95.75153051737613
 10
14.9108967531862
 20
95.75231642978371
 10
14.90993185730225
 20
95.75307004442111
 10
14.90901271659271
 20
95.75387748867546
 10
14.90809223014274
 20
95.75465263515964
 10
14.90716232350981
 20
95.75541701572044
 10
14.90623107113645
 20
95.75619216220461
 10
14.9052890528397
 20
95.75694577684201
 10
14.90432281121532
 20
95.75771015740281
 10
14.90340367050578
 20
95.75846377204021
 10
14.90248452979624
 20
95.7592173866776
 10
14.90155327742288
 20
95.759971001315
 10
14.90062202504953
 20
95.76071385002901
 10
14.89968000675278
 20
95.76144593281963
 10
14.89871511086883
 20
95.76216724968686
 10
14.89774886924445
 20
95.76287780063067
 10
14.89678397336049
 20
95.76358835157451
 10
14.89581907747654
 20
95.76429890251835
 10
14.89485283585216
 20
95.76502021938557
 10
14.8938879399682
 20
95.76573077032939
 10
14.89292169834383
 20
95.76644132127324
 10
14.89200255763428
 20
95.76715187221706
 10
14.89103766175033
 20
95.76785165723752
 10
14.89006065420256
 20
95.76852991041118
 10
14.88908364665479
 20
95.76920816358484
 10
14.88809587318363
 20
95.76987565083509
 10
14.88712963155925
 20
95.77054313808536
 10
14.88616473567529
 20
95.77121062533562
 10
14.88519983979134
 20
95.77185658073911
 10
14.88422283224357
 20
95.77250253614259
 10
14.8832458246958
 20
95.77314849154609
 10
14.88225670548422
 20
95.77379444694956
 10
14.88124605442585
 20
95.77447270012322
 10
14.86547801387871
 20
95.79086920144833
 10
14.84444543679317
 20
95.80642596074893
 10
14.81862202379846
 20
95.82116450987175
 10
14.79279726506333
 20
95.8358922930712
 10
14.76218167041902
 20
95.84980186609289
 10
14.72724355753306
 20
95.86290399486022
 10
14.6923054446471
 20
95.87605995324453
 10
14.65306903684712
 20
95.88840846737447
 10
14.61001745494531
 20
95.9000141327904
 10
14.56696587304351
 20
95.91163056412973
 10
14.52009911703987
 20
95.92250414675506
 10
14.46989896200617
 20
95.9327210080535
 10
14.41974456214688
 20
95.94288403973498
 10
14.36625676325753
 20
95.95237958416621
 10
14.30993214355454
 20
95.96121840727056
 10
14.23589892561311
 20
95.97283483860987
 10
14.18001974599045
 20
95.97997264581838
 10
14.13293228855729
 20
95.9858508399901
 10
14.08255718726848
 20
95.99213813925066
 10
14.01806941844102
 20
96.00250254821949
 10
13.94199190850859
 20
96.00690898614367
 10
13.59211694656715
 20
96.02717387523414
 10
13.28194618226913
 20
96.04938062135795
 10
12.96585547883394
 20
96.05630231559374
 10
12.30075609062106
 20
96.07086653577368
 10
12.21337076954198
 20
96.09028549601319
 10
11.65993040270789
 20
96.08543075595331
 10
11.24146206041554
 20
96.08175998102103
 10
10.84993130235224
 20
96.07200882755135
 10
10.58703284945919
 20
96.05630231559374
 10
10.37548995357508
 20
96.0436639718258
 10
10.23737873563583
 20
96.00977563231756
 10
10.20113834020111
 20
96.00627379666358
 97
        0
 97
        1
330
80
 75
     2
 76
     1
 98
        1
 10
0.0
 20
0.0
450
        0
451
        0
460
0.0
461
0.0
452
        0
462
0.0
453
        0
470

  0
ENDBLK
  5
7D
330
7A
100
AcDbEntity
  8
0
100
AcDbBlockEnd
  0
ENDSEC
  0
SECTION
  2
ENTITIES
  0
INSERT
  5
7B
330
70
100
AcDbEntity
  8
graphics
100
AcDbBlockReference
  2
Block_0
 10
0.0
 20
0.0
 30
0.0
  0
ENDSEC
  0
SECTION
  2
OBJECTS
  0
DICTIONARY
  5
C
330
0
100
AcDbDictionary
281
     1
  3
ACAD_COLOR
350
63
  3
ACAD_DETAILVIEWSTYLE
350
6A
  3
ACAD_GROUP
350
D
  3
ACAD_LAYOUT
350
62
  3
ACAD_MATERIAL
350
10
  3
ACAD_MLEADERSTYLE
350
66
  3
ACAD_MLINESTYLE
350
5F
  3
ACAD_PLOTSETTINGS
350
61
  3
ACAD_PLOTSTYLENAME
350
E
  3
ACAD_SCALELIST
350
42
  3
ACAD_SECTIONVIEWSTYLE
350
68
  3
ACAD_TABLESTYLE
350
64
  3
ACAD_VISUALSTYLE
350
29
  3
ACDB_RECOMPOSE_DATA
350
93
  3
AcDbVariableDictionary
350
8B
  0
DICTIONARY
  5
63
102
{ACAD_REACTORS
330
C
102
}
330
C
100
AcDbDictionary
281
     1
  0
DICTIONARY
  5
6A
102
{ACAD_REACTORS
330
C
102
}
330
C
100
AcDbDictionary
281
     1
  3
Imperial24
350
6B
  0
DICTIONARY
  5
D
102
{ACAD_REACTORS
330
C
102
}
330
C
100
AcDbDictionary
281
     1
  0
DICTIONARY
  5
62
102
{ACAD_REACTORS
330
C
102
}
330
C
100
AcDbDictionary
281
     1
  3
Layout1
350
6F
  3
Layout2
350
77
  3
Model
350
73
  0
DICTIONARY
  5
10
102
{ACAD_REACTORS
330
C
102
}
330
C
100
AcDbDictionary
281
     1
  3
ByBlock
350
19
  3
ByLayer
350
11
  3
Global
350
21
  0
DICTIONARY
  5
66
102
{ACAD_REACTORS
330
C
102
}
330
C
100
AcDbDictionary
281
     1
  3
Standard
350
67
  0
DICTIONARY
  5
5F
102
{ACAD_REACTORS
330
C
102
}
330
C
100
AcDbDictionary
281
     1
  3
Standard
350
60
  0
DICTIONARY
  5
61
102
{ACAD_REACTORS
330
C
102
}
330
C
100
AcDbDictionary
281
     1
  0
ACDBDICTIONARYWDFLT
  5
E
102
{ACAD_REACTORS
330
C
102
}
330
C
100
AcDbDictionary
281
     1
  3
Normal
350
F
100
AcDbDictionaryWithDefault
340
F
  0
DICTIONARY
  5
42
102
{ACAD_REACTORS
330
C
102
}
330
C
100
AcDbDictionary
281
     1
  3
A0
350
43
  3
A1
350
44
  3
A2
350
45
  3
A3
350
46
  3
A4
350
47
  3
A5
350
48
  3
A6
350
49
  3
A7
350
4A
  3
A8
350
4B
  3
A9
350
4C
  3
B0
350
4D
  3
B1
350
4E
  3
B2
350
4F
  3
B3
350
50
  3
B4
350
51
  3
B5
350
52
  3
B6
350
53
  0
DICTIONARY
  5
68
102
{ACAD_REACTORS
330
C
102
}
330
C
100
AcDbDictionary
281
     1
  3
Imperial24
350
69
  0
DICTIONARY
  5
64
102
{ACAD_REACTORS
330
C
102
}
330
C
100
AcDbDictionary
281
     1
  3
Standard
350
65
  0
DICTIONARY
  5
29
102
{ACAD_REACTORS
330
C
102
}
330
C
100
AcDbDictionary
281
     1
  3
2dWireframe
350
2F
  3
Basic
350
2E
  3
Brighten
350
35
  3
ColorChange
350
39
  3
Conceptual
350
32
  3
Dim
350
34
  3
EdgeColorOff
350
41
  3
Facepattern
350
38
  3
Flat
350
2A
  3
FlatWithEdges
350
2B
  3
Gouraud
350
2C
  3
GouraudWithEdges
350
2D
  3
Hidden
350
31
  3
JitterOff
350
3F
  3
Linepattern
350
37
  3
OverhangOff
350
40
  3
Realistic
350
33
  3
Shaded
350
3E
  3
Shaded with edges
350
3D
  3
Shades of Gray
350
3A
  3
Sketchy
350
3B
  3
Thicken
350
36
  3
Wireframe
350
30
  3
X-Ray
350
3C
  0
XRECORD
  5
93
102
{ACAD_REACTORS
330
C
102
}
330
C
100
AcDbXrecord
280
     1
 90
        1
330
65
  0
DICTIONARY
  5
8B
102
{ACAD_REACTORS
330
C
102
}
330
C
100
AcDbDictionary
281
     1
  3
CANNOSCALE
350
90
  3
CMLEADERSTYLE
350
8D
  3
CTABLESTYLE
350
8C
  3
CVIEWDETAILSTYLE
350
8E
  3
CVIEWSECTIONSTYLE
350
8F
  0
ACDBDETAILVIEWSTYLE
  5
6B
102
{ACAD_XDICTIONARY
360
96
102
}
102
{ACAD_REACTORS
330
6A
102
}
330
6A
100
AcDbModelDocViewStyle
 70
     0
  3
Imperial24
290
     0
100
AcDbDetailViewStyle
 70
     0
 71
     0
 90
        3
 71
     1
340
55
 62
   256
 40
0.24
340
0
 62
   256
 40
0.24
300

 40
0.36
280
     3
 71
     2
340
5D
 90
       25
 62
   256
 71
     3
340
55
 62
   256
 40
0.24
 90
        1
 40
0.75
 90
        1
300
%<\AcVar ViewType \f "%tc1">% %<\AcVar ViewDetailId>%\PSCALE %<\AcVar ViewScale \f "%sn">%
 71
     4
340
5D
 90
       25
 62
   256
340
5D
 90
       25
 62
   256
280
     0
  0
LAYOUT
  5
6F
102
{ACAD_REACTORS
330
62
102
}
330
62
100
AcDbPlotSettings
  1

  2

  4

  6

 40
0.0
 41
0.0
 42
0.0
 43
0.0
 44
0.0
 45
0.0
 46
0.0
 47
0.0
 48
0.0
 49
0.0
140
0.0
141
0.0
142
1.0
143
1.0
 70
   688
 72
     0
 73
     0
 74
     5
  7

 75
    16
147
1.0
 76
     0
 77
     2
 78
   300
148
0.0
149
0.0
100
AcDbLayout
  1
Layout1
 70
     1
 71
     1
 10
0.0
 20
0.0
 11
12.0
 21
9.0
 12
0.0
 22
0.0
 32
0.0
 14
0.0
 24
0.0
 34
0.0
 15
0.0
 25
0.0
 35
0.0
146
0.0
 13
0.0
 23
0.0
 33
0.0
 16
1.0
 26
0.0
 36
0.0
 17
0.0
 27
1.0
 37
0.0
 76
     0
330
6C
  0
LAYOUT
  5
77
102
{ACAD_REACTORS
330
62
102
}
330
62
100
AcDbPlotSettings
  1

  2

  4

  6

 40
0.0
 41
0.0
 42
0.0
 43
0.0
 44
0.0
 45
0.0
 46
0.0
 47
0.0
 48
0.0
 49
0.0
140
0.0
141
0.0
142
1.0
143
1.0
 70
   688
 72
     0
 73
     0
 74
     5
  7

 75
    16
147
1.0
 76
     0
 77
     2
 78
   300
148
0.0
149
0.0
100
AcDbLayout
  1
Layout2
 70
     1
 71
     2
 10
0.0
 20
0.0
 11
12.0
 21
9.0
 12
0.0
 22
0.0
 32
0.0
 14
0.0
 24
0.0
 34
0.0
 15
0.0
 25
0.0
 35
0.0
146
0.0
 13
0.0
 23
0.0
 33
0.0
 16
1.0
 26
0.0
 36
0.0
 17
0.0
 27
1.0
 37
0.0
 76
     0
330
74
  0
LAYOUT
  5
73
102
{ACAD_REACTORS
330
62
102
}
330
62
100
AcDbPlotSettings
  1

  2

  4

  6

 40
0.0
 41
0.0
 42
0.0
 43
0.0
 44
0.0
 45
0.0
 46
0.0
 47
0.0
 48
0.0
 49
0.0
140
0.0
141
0.0
142
1.0
143
1.0
 70
  1712
 72
     0
 73
     0
 74
     0
  7

 75
     0
147
1.0
 76
     0
 77
     2
 78
   300
148
0.0
149
0.0
100
AcDbLayout
  1
Model
 70
     1
 71
     0
 10
0.0
 20
0.0
 11
12.0
 21
9.0
 12
0.0
 22
0.0
 32
0.0
 14
0.0
 24
0.0
 34
0.0
 15
0.0
 25
0.0
 35
0.0
146
0.0
 13
0.0
 23
0.0
 33
0.0
 16
1.0
 26
0.0
 36
0.0
 17
0.0
 27
1.0
 37
0.0
 76
     0
330
70
  0
MATERIAL
  5
19
102
{ACAD_XDICTIONARY
360
1A
102
}
102
{ACAD_REACTORS
330
10
102
}
330
10
100
AcDbMaterial
  1
ByBlock
 72
     0
 43
0.0208333333333333
 43
0.0
 43
0.0
 43
0.0
 43
0.0
 43
0.0208333333333333
 43
0.0
 43
0.0
 43
0.0
 43
0.0
 43
1.0
 43
0.0
 43
0.0
 43
0.0
 43
0.0
 43
1.0
 77
     0
 47
0.0208333333333333
 47
0.0
 47
0.0
 47
0.0
 47
0.0
 47
0.0208333333333333
 47
0.0
 47
0.0
 47
0.0
 47
0.0
 47
1.0
 47
0.0
 47
0.0
 47
0.0
 47
0.0
 47
1.0
171
     0
 49
0.0208333333333333
 49
0.0
 49
0.0
 49
0.0
 49
0.0
 49
0.0208333333333333
 49
0.0
 49
0.0
 49
0.0
 49
0.0
 49
1.0
 49
0.0
 49
0.0
 49
0.0
 49
0.0
 49
1.0
175
     0
142
0.0208333333333333
142
0.0
142
0.0
142
0.0
142
0.0
142
0.0208333333333333
142
0.0
142
0.0
142
0.0
142
0.0
142
1.0
142
0.0
142
0.0
142
0.0
142
0.0
142
1.0
179
     0
144
0.0208333333333333
144
0.0
144
0.0
144
0.0
144
0.0
144
0.0208333333333333
144
0.0
144
0.0
144
0.0
144
0.0
144
1.0
144
0.0
144
0.0
144
0.0
144
0.0
144
1.0
147
0.0208333333333333
147
0.0
147
0.0
147
0.0
147
0.0
147
0.0208333333333333
147
0.0
147
0.0
147
0.0
147
0.0
147
1.0
147
0.0
147
0.0
147
0.0
147
0.0
147
1.0
  0
MATERIAL
  5
11
102
{ACAD_XDICTIONARY
360
12
102
}
102
{ACAD_REACTORS
330
10
102
}
330
10
100
AcDbMaterial
  1
ByLayer
 72
     0
 43
0.0208333333333333
 43
0.0
 43
0.0
 43
0.0
 43
0.0
 43
0.0208333333333333
 43
0.0
 43
0.0
 43
0.0
 43
0.0
 43
1.0
 43
0.0
 43
0.0
 43
0.0
 43
0.0
 43
1.0
 77
     0
 47
0.0208333333333333
 47
0.0
 47
0.0
 47
0.0
 47
0.0
 47
0.0208333333333333
 47
0.0
 47
0.0
 47
0.0
 47
0.0
 47
1.0
 47
0.0
 47
0.0
 47
0.0
 47
0.0
 47
1.0
171
     0
 49
0.0208333333333333
 49
0.0
 49
0.0
 49
0.0
 49
0.0
 49
0.0208333333333333
 49
0.0
 49
0.0
 49
0.0
 49
0.0
 49
1.0
 49
0.0
 49
0.0
 49
0.0
 49
0.0
 49
1.0
175
     0
142
0.0208333333333333
142
0.0
142
0.0
142
0.0
142
0.0
142
0.0208333333333333
142
0.0
142
0.0
142
0.0
142
0.0
142
1.0
142
0.0
142
0.0
142
0.0
142
0.0
142
1.0
179
     0
144
0.0208333333333333
144
0.0
144
0.0
144
0.0
144
0.0
144
0.0208333333333333
144
0.0
144
0.0
144
0.0
144
0.0
144
1.0
144
0.0
144
0.0
144
0.0
144
0.0
144
1.0
147
0.0208333333333333
147
0.0
147
0.0
147
0.0
147
0.0
147
0.0208333333333333
147
0.0
147
0.0
147
0.0
147
0.0
147
1.0
147
0.0
147
0.0
147
0.0
147
0.0
147
1.0
  0
MATERIAL
  5
21
102
{ACAD_XDICTIONARY
360
22
102
}
102
{ACAD_REACTORS
330
10
102
}
330
10
100
AcDbMaterial
  1
Global
 72
     0
 43
0.0208333333333333
 43
0.0
 43
0.0
 43
0.0
 43
0.0
 43
0.0208333333333333
 43
0.0
 43
0.0
 43
0.0
 43
0.0
 43
1.0
 43
0.0
 43
0.0
 43
0.0
 43
0.0
 43
1.0
 77
     0
 47
0.0208333333333333
 47
0.0
 47
0.0
 47
0.0
 47
0.0
 47
0.0208333333333333
 47
0.0
 47
0.0
 47
0.0
 47
0.0
 47
1.0
 47
0.0
 47
0.0
 47
0.0
 47
0.0
 47
1.0
171
     0
 49
0.0208333333333333
 49
0.0
 49
0.0
 49
0.0
 49
0.0
 49
0.0208333333333333
 49
0.0
 49
0.0
 49
0.0
 49
0.0
 49
1.0
 49
0.0
 49
0.0
 49
0.0
 49
0.0
 49
1.0
175
     0
142
0.0208333333333333
142
0.0
142
0.0
142
0.0
142
0.0
142
0.0208333333333333
142
0.0
142
0.0
142
0.0
142
0.0
142
1.0
142
0.0
142
0.0
142
0.0
142
0.0
142
1.0
179
     0
144
0.0208333333333333
144
0.0
144
0.0
144
0.0
144
0.0
144
0.0208333333333333
144
0.0
144
0.0
144
0.0
144
0.0
144
1.0
144
0.0
144
0.0
144
0.0
144
0.0
144
1.0
147
0.0208333333333333
147
0.0
147
0.0
147
0.0
147
0.0
147
0.0208333333333333
147
0.0
147
0.0
147
0.0
147
0.0
147
1.0
147
0.0
147
0.0
147
0.0
147
0.0
147
1.0
  0
MLEADERSTYLE
  5
67
102
{ACAD_REACTORS
330
66
102
}
330
66
100
AcDbMLeaderStyle
179
     2
170
     2
171
     1
172
     0
 90
        2
 40
0.0
 41
0.0
173
     1
 91
-1056964608
340
5B
 92
       -2
290
     1
 42
0.09
291
     1
 43
0.36
  3
Standard
 44
0.18
300

342
55
174
     1
178
     6
175
     1
176
     0
 93
-1056964608
 45
0.18
292
     0
297
     0
 46
0.18
 94
-1056964608
 47
1.0
 49
1.0
140
1.0
293
     1
141
0.0
294
     1
177
     0
142
1.0
295
     0
296
     0
143
0.125
271
     0
272
     9
273
     9
298
     1
  0
MLINESTYLE
  5
60
102
{ACAD_REACTORS
330
5F
102
}
330
5F
100
AcDbMlineStyle
  2
STANDARD
 70
     0
  3

 62
   256
 51
90.0
 52
90.0
 71
     2
 49
0.5
 62
   256
  6
BYLAYER
 49
-0.5
 62
   256
  6
BYLAYER
  0
ACDBPLACEHOLDER
  5
F
102
{ACAD_REACTORS
330
E
102
}
330
E
  0
SCALE
  5
43
102
{ACAD_REACTORS
330
42
102
}
330
42
100
AcDbScale
 70
     0
300
1:1
140
1.0
141
1.0
290
     1
  0
SCALE
  5
44
102
{ACAD_REACTORS
330
42
102
}
330
42
100
AcDbScale
 70
     0
300
1/128" = 1'-0"
140
0.0078125
141
12.0
290
     0
  0
SCALE
  5
45
102
{ACAD_REACTORS
330
42
102
}
330
42
100
AcDbScale
 70
     0
300
1/64" = 1'-0"
140
0.015625
141
12.0
290
     0
  0
SCALE
  5
46
102
{ACAD_REACTORS
330
42
102
}
330
42
100
AcDbScale
 70
     0
300
1/32" = 1'-0"
140
0.03125
141
12.0
290
     0
  0
SCALE
  5
47
102
{ACAD_REACTORS
330
42
102
}
330
42
100
AcDbScale
 70
     0
300
1/16" = 1'-0"
140
0.0625
141
12.0
290
     0
  0
SCALE
  5
48
102
{ACAD_REACTORS
330
42
102
}
330
42
100
AcDbScale
 70
     0
300
3/32" = 1'-0"
140
0.09375
141
12.0
290
     0
  0
SCALE
  5
49
102
{ACAD_REACTORS
330
42
102
}
330
42
100
AcDbScale
 70
     0
300
1/8" = 1'-0"
140
0.125
141
12.0
290
     0
  0
SCALE
  5
4A
102
{ACAD_REACTORS
330
42
102
}
330
42
100
AcDbScale
 70
     0
300
3/16" = 1'-0"
140
0.1875
141
12.0
290
     0
  0
SCALE
  5
4B
102
{ACAD_REACTORS
330
42
102
}
330
42
100
AcDbScale
 70
     0
300
1/4" = 1'-0"
140
0.25
141
12.0
290
     0
  0
SCALE
  5
4C
102
{ACAD_REACTORS
330
42
102
}
330
42
100
AcDbScale
 70
     0
300
3/8" = 1'-0"
140
0.375
141
12.0
290
     0
  0
SCALE
  5
4D
102
{ACAD_REACTORS
330
42
102
}
330
42
100
AcDbScale
 70
     0
300
1/2" = 1'-0"
140
0.5
141
12.0
290
     0
  0
SCALE
  5
4E
102
{ACAD_REACTORS
330
42
102
}
330
42
100
AcDbScale
 70
     0
300
3/4" = 1'-0"
140
0.75
141
12.0
290
     0
  0
SCALE
  5
4F
102
{ACAD_REACTORS
330
42
102
}
330
42
100
AcDbScale
 70
     0
300
1" = 1'-0"
140
1.0
141
12.0
290
     0
  0
SCALE
  5
50
102
{ACAD_REACTORS
330
42
102
}
330
42
100
AcDbScale
 70
     0
300
1-1/2" = 1'-0"
140
1.5
141
12.0
290
     0
  0
SCALE
  5
51
102
{ACAD_REACTORS
330
42
102
}
330
42
100
AcDbScale
 70
     0
300
3" = 1'-0"
140
3.0
141
12.0
290
     0
  0
SCALE
  5
52
102
{ACAD_REACTORS
330
42
102
}
330
42
100
AcDbScale
 70
     0
300
6" = 1'-0"
140
6.0
141
12.0
290
     0
  0
SCALE
  5
53
102
{ACAD_REACTORS
330
42
102
}
330
42
100
AcDbScale
 70
     0
300
1'-0" = 1'-0"
140
12.0
141
12.0
290
     0
  0
ACDBSECTIONVIEWSTYLE
  5
69
102
{ACAD_XDICTIONARY
360
94
102
}
102
{ACAD_REACTORS
330
68
102
}
330
68
100
AcDbModelDocViewStyle
 70
     0
  3
Imperial24
290
     0
100
AcDbSectionViewStyle
 70
     0
 71
     0
 90
       78
 71
     1
340
55
 62
   256
 40
0.24
340
0
340
0
 62
   256
 40
0.24
300
I, O, Q, S, X, Z
 40
0.48
 90
        3
 40
0.18
 90
        1
 71
     2
340
5D
 90
       25
 62
   256
340
5D
 90
       50
 62
   256
 40
0.24
 40
0.0
 40
0.24
 71
     3
340
55
 62
   256
 40
0.24
 90
        1
 40
0.75
 90
        1
300
%<\AcVar ViewType \f "%tc1">% %<\AcVar ViewSectionStartId>%-%<\AcVar ViewSectionEndId>%\PSCALE %<\AcVar ViewScale \f "%sn">%
 71
     4
 62
   256
 62
   257
300
ANSI31
 40
1.0
 90
        0
290
     0
290
     0
 90
        6
 40
0.0
 40
1.570796326794896
 40
0.2617993877991494
 40
1.308996938995747
 40
-0.2617993877991494
 40
1.832595714594046
  0
TABLESTYLE
  5
65
102
{ACAD_XDICTIONARY
360
91
102
}
102
{ACAD_REACTORS
330
64
102
}
330
64
100
AcDbTableStyle
280
     0
  3
Standard
 70
     0
 71
     0
 40
0.06
 41
0.06
280
     0
281
     0
  7
Standard
140
0.18
170
     2
 62
     0
 63
     7
283
     0
 90
      512
 91
        0
  1

274
    -2
284
     1
 64
     0
275
    -2
285
     1
 65
     0
276
    -2
286
     1
 66
     0
277
    -2
287
     1
 67
     0
278
    -2
288
     1
 68
     0
279
    -2
289
     1
 69
     0
  7
Standard
140
0.25
170
     5
 62
     0
 63
     7
283
     0
 90
      512
 91
        0
  1

274
    -2
284
     1
 64
     0
275
    -2
285
     1
 65
     0
276
    -2
286
     1
 66
     0
277
    -2
287
     1
 67
     0
278
    -2
288
     1
 68
     0
279
    -2
289
     1
 69
     0
  7
Standard
140
0.18
170
     5
 62
     0
 63
     7
283
     0
 90
      512
 91
        0
  1

274
    -2
284
     1
 64
     0
275
    -2
285
     1
 65
     0
276
    -2
286
     1
 66
     0
277
    -2
287
     1
 67
     0
278
    -2
288
     1
 68
     0
279
    -2
289
     1
 69
     0
  0
VISUALSTYLE
  5
2F
102
{ACAD_REACTORS
330
29
102
}
330
29
100
AcDbVisualStyle
  2
2dWireframe
 70
     4
177
     3
291
     0
 70
    58
 90
        0
176
     1
 90
        2
176
     1
 90
        0
176
     1
 90
        0
176
     1
 40
0.6
176
     1
 40
30.0
176
     1
 62
     7
420
 16777215
176
     1
 90
        1
176
     1
 90
        4
176
     1
 62
     7
176
     1
 62
   257
176
     1
 90
        1
176
     1
 90
        1
176
     1
 40
1.0
176
     1
 90
        0
176
     1
 62
   257
176
     1
 40
1.0
176
     1
 90
        1
176
     1
 90
        6
176
     1
 90
        2
176
     1
 62
     7
176
     1
 90
        5
176
     1
 90
        0
176
     1
 90
        0
176
     1
290
     0
176
     1
 90
        1
176
     1
 40
0.0
176
     1
 90
        0
176
     1
290
     1
176
     1
290
     1
176
     1
290
     0
176
     1
290
     0
176
     1
290
     0
176
     1
290
     0
176
     1
290
     0
176
     1
290
     0
176
     1
290
     0
176
     1
 90
       50
176
     1
 40
0.0
176
     1
 40
1.0
176
     1
 90
        0
176
     1
 62
    18
420
        0
176
     1
 90
       50
176
     1
 90
        3
176
     1
 62
     5
420
      255
176
     1
290
     0
176
     1
 90
       50
176
     1
 90
       50
176
     1
 90
       50
176
     1
290
     0
176
     1
 90
       50
176
     1
 62
   256
176
     0
 40
1.0
176
     0
 90
        2
176
     1
  1
strokes_ogs.tif
176
     1
290
     0
176
     1
 40
1.0
176
     1
 40
1.0
176
     1
1001
ACAD
1000
AcDbSavedByObjectVersion
1070
     0
  0
VISUALSTYLE
  5
2E
102
{ACAD_REACTORS
330
29
102
}
330
29
100
AcDbVisualStyle
  2
Basic
 70
     7
177
     3
291
     1
 70
    58
 90
        1
176
     1
 90
        0
176
     1
 90
        1
176
     1
 90
        0
176
     1
 40
0.6
176
     1
 40
30.0
176
     1
 62
     7
420
 16777215
176
     1
 90
        0
176
     1
 90
        4
176
     1
 62
     7
176
     1
 62
   257
176
     1
 90
        1
176
     1
 90
        1
176
     1
 40
1.0
176
     1
 90
        8
176
     1
 62
     7
176
     1
 40
1.0
176
     1
 90
        1
176
     1
 90
        6
176
     1
 90
        2
176
     1
 62
     7
176
     1
 90
        5
176
     1
 90
        0
176
     1
 90
        0
176
     1
290
     0
176
     1
 90
        1
176
     1
 40
0.0
176
     1
 90
        0
176
     1
290
     0
176
     1
290
     1
176
     1
290
     1
176
     1
290
     0
176
     1
290
     0
176
     1
290
     0
176
     1
290
     0
176
     1
290
     0
176
     1
290
     0
176
     1
 90
       50
176
     1
 40
0.0
176
     1
 40
1.0
176
     1
 90
        0
176
     1
 62
    18
420
        0
176
     1
 90
       50
176
     1
 90
        3
176
     1
 62
     5
420
      255
176
     1
290
     0
176
     1
 90
       50
176
     1
 90
       50
176
     1
 90
       50
176
     1
290
     0
176
     1
 90
       50
176
     1
 62
   256
176
     0
 40
1.0
176
     0
 90
        2
176
     1
  1
strokes_ogs.tif
176
     1
290
     0
176
     1
 40
1.0
176
     1
 40
1.0
176
     1
1001
ACAD
1000
AcDbSavedByObjectVersion
1070
     0
  0
VISUALSTYLE
  5
35
102
{ACAD_REACTORS
330
29
102
}
330
29
100
AcDbVisualStyle
  2
Brighten
 70
    12
177
     3
291
     1
 70
    58
 90
        2
176
     1
 90
        2
176
     1
 90
        0
176
     1
 90
        0
176
     1
 40
0.6
176
     1
 40
30.0
176
     1
 62
     7
420
 16777215
176
     1
 90
        1
176
     1
 90
        4
176
     1
 62
     7
176
     1
 62
   257
176
     1
 90
        1
176
     1
 90
        1
176
     1
 40
1.0
176
     1
 90
        8
176
     1
 62
     7
176
     1
 40
1.0
176
     1
 90
        1
176
     1
 90
        6
176
     1
 90
        2
176
     1
 62
     7
176
     1
 90
        5
176
     1
 90
        0
176
     1
 90
        0
176
     1
290
     0
176
     1
 90
        1
176
     1
 40
50.0
176
     1
 90
        0
176
     1
290
     0
176
     1
290
     1
176
     1
290
     1
176
     1
290
     0
176
     1
290
     0
176
     1
290
     0
176
     1
290
     0
176
     1
290
     0
176
     1
290
     0
176
     1
 90
       50
176
     1
 40
0.0
176
     1
 40
1.0
176
     1
 90
        0
176
     1
 62
    18
420
        0
176
     1
 90
       50
176
     1
 90
        3
176
     1
 62
     5
420
      255
176
     1
290
     0
176
     1
 90
       50
176
     1
 90
       50
176
     1
 90
       50
176
     1
290
     0
176
     1
 90
       50
176
     1
 62
   256
176
     0
 40
1.0
176
     0
 90
        2
176
     1
  1
strokes_ogs.tif
176
     1
290
     0
176
     1
 40
1.0
176
     1
 40
1.0
176
     1
1001
ACAD
1000
AcDbSavedByObjectVersion
1070
     0
  0
VISUALSTYLE
  5
39
102
{ACAD_REACTORS
330
29
102
}
330
29
100
AcDbVisualStyle
  2
ColorChange
 70
    16
177
     3
291
     1
 70
    58
 90
        2
176
     1
 90
        2
176
     1
 90
        3
176
     1
 90
        0
176
     1
 40
0.6
176
     1
 40
30.0
176
     1
 62
     8
420
  8421504
176
     1
 90
        1
176
     1
 90
        4
176
     1
 62
     7
176
     1
 62
   257
176
     1
 90
        1
176
     1
 90
        1
176
     1
 40
1.0
176
     1
 90
        8
176
     1
 62
     8
420
  8421504
176
     1
 40
1.0
176
     1
 90
        1
176
     1
 90
        6
176
     1
 90
        2
176
     1
 62
     7
176
     1
 90
        5
176
     1
 90
        0
176
     1
 90
        0
176
     1
290
     0
176
     1
 90
        1
176
     1
 40
0.0
176
     1
 90
        0
176
     1
290
     0
176
     1
290
     1
176
     1
290
     1
176
     1
290
     0
176
     1
290
     0
176
     1
290
     0
176
     1
290
     0
176
     1
290
     0
176
     1
290
     0
176
     1
 90
       50
176
     1
 40
0.0
176
     1
 40
1.0
176
     1
 90
        0
176
     1
 62
    18
420
        0
176
     1
 90
       50
176
     1
 90
        3
176
     1
 62
     5
420
      255
176
     1
290
     0
176
     1
 90
       50
176
     1
 90
       50
176
     1
 90
       50
176
     1
290
     0
176
     1
 90
       50
176
     1
 62
   256
176
     0
 40
1.0
176
     0
 90
        2
176
     1
  1
strokes_ogs.tif
176
     1
290
     0
176
     1
 40
1.0
176
     1
 40
1.0
176
     1
1001
ACAD
1000
AcDbSavedByObjectVersion
1070
     0
  0
VISUALSTYLE
  5
32
102
{ACAD_REACTORS
330
29
102
}
330
29
100
AcDbVisualStyle
  2
Conceptual
 70
     9
177
     3
291
     0
 70
    58
 90
        3
176
     1
 90
        2
176
     1
 90
        0
176
     1
 90
        0
176
     1
 40
0.6
176
     1
 40
30.0
176
     1
 62
     7
420
 16777215
176
     1
 90
        2
176
     1
 90
        2
176
     1
 62
     7
176
     1
 62
   257
176
     1
 90
        1
176
     1
 90
        1
176
     1
 40
179.0
176
     1
 90
        8
176
     1
 62
     7
176
     1
 40
1.0
176
     1
 90
        1
176
     1
 90
        6
176
     1
 90
        2
176
     1
 62
     7
176
     1
 90
        3
176
     1
 90
        0
176
     1
 90
        0
176
     1
290
     0
176
     1
 90
        1
176
     1
 40
0.0
176
     1
 90
        0
176
     1
290
     0
176
     1
290
     1
176
     1
290
     1
176
     1
290
     0
176
     1
290
     0
176
     1
290
     0
176
     1
290
     0
176
     1
290
     0
176
     1
290
     0
176
     1
 90
       50
176
     1
 40
0.0
176
     1
 40
1.0
176
     1
 90
        0
176
     1
 62
    18
420
        0
176
     1
 90
       50
176
     1
 90
        3
176
     1
 62
     5
420
      255
176
     1
290
     0
176
     1
 90
       50
176
     1
 90
       50
176
     1
 90
       50
176
     1
290
     0
176
     1
 90
       50
176
     1
 62
   256
176
     0
 40
1.0
176
     0
 90
        2
176
     1
  1
strokes_ogs.tif
176
     1
290
     0
176
     1
 40
1.0
176
     1
 40
1.0
176
     1
1001
ACAD
1000
AcDbSavedByObjectVersion
1070
     0
  0
VISUALSTYLE
  5
34
102
{ACAD_REACTORS
330
29
102
}
330
29
100
AcDbVisualStyle
  2
Dim
 70
    11
177
     3
291
     1
 70
    58
 90
        2
176
     1
 90
        2
176
     1
 90
        0
176
     1
 90
        0
176
     1
 40
0.6
176
     1
 40
30.0
176
     1
 62
     7
420
 16777215
176
     1
 90
        1
176
     1
 90
        4
176
     1
 62
     7
176
     1
 62
   257
176
     1
 90
        1
176
     1
 90
        1
176
     1
 40
1.0
176
     1
 90
        8
176
     1
 62
     7
176
     1
 40
1.0
176
     1
 90
        1
176
     1
 90
        6
176
     1
 90
        2
176
     1
 62
     7
176
     1
 90
        5
176
     1
 90
        0
176
     1
 90
        0
176
     1
290
     0
176
     1
 90
        1
176
     1
 40
-50.0
176
     1
 90
        0
176
     1
290
     0
176
     1
290
     1
176
     1
290
     1
176
     1
290
     0
176
     1
290
     0
176
     1
290
     0
176
     1
290
     0
176
     1
290
     0
176
     1
290
     0
176
     1
 90
       50
176
     1
 40
0.0
176
     1
 40
1.0
176
     1
 90
        0
176
     1
 62
    18
420
        0
176
     1
 90
       50
176
     1
 90
        3
176
     1
 62
     5
420
      255
176
     1
290
     0
176
     1
 90
       50
176
     1
 90
       50
176
     1
 90
       50
176
     1
290
     0
176
     1
 90
       50
176
     1
 62
   256
176
     0
 40
1.0
176
     0
 90
        2
176
     1
  1
strokes_ogs.tif
176
     1
290
     0
176
     1
 40
1.0
176
     1
 40
1.0
176
     1
1001
ACAD
1000
AcDbSavedByObjectVersion
1070
     0
  0
VISUALSTYLE
  5
41
102
{ACAD_REACTORS
330
29
102
}
330
29
100
AcDbVisualStyle
  2
EdgeColorOff
 70
    22
177
     3
291
     1
 70
    58
 90
        2
176
     0
 90
        2
176
     0
 90
        0
176
     0
 90
        0
176
     0
 40
0.6
176
     0
 40
30.0
176
     0
 62
     7
420
 16777215
176
     0
 90
        1
176
     0
 90
        4
176
     0
 62
     7
176
     0
 62
   257
176
     0
 90
        1
176
     0
 90
        1
176
     0
 40
1.0
176
     0
 90
        8
176
     2
 62
     7
176
     0
 40
1.0
176
     0
 90
        1
176
     0
 90
        6
176
     0
 90
        2
176
     0
 62
     7
176
     0
 90
        5
176
     0
 90
        0
176
     0
 90
        0
176
     0
290
     0
176
     0
 90
        1
176
     0
 40
0.0
176
     0
 90
        0
176
     0
290
     0
176
     0
290
     1
176
     0
290
     1
176
     0
290
     0
176
     0
290
     0
176
     0
290
     0
176
     0
290
     0
176
     0
290
     0
176
     0
290
     0
176
     0
 90
       50
176
     0
 40
0.0
176
     0
 40
1.0
176
     0
 90
        0
176
     0
 62
    18
420
        0
176
     0
 90
       50
176
     0
 90
        3
176
     0
 62
     5
420
      255
176
     0
290
     0
176
     0
 90
       50
176
     0
 90
       50
176
     0
 90
       50
176
     0
290
     0
176
     0
 90
       50
176
     0
 62
   256
176
     0
 40
1.0
176
     0
 90
        2
176
     0
  1
strokes_ogs.tif
176
     0
290
     0
176
     0
 40
1.0
176
     0
 40
1.0
176
     0
1001
ACAD
1000
AcDbSavedByObjectVersion
1070
     0
  0
VISUALSTYLE
  5
38
102
{ACAD_REACTORS
330
29
102
}
330
29
100
AcDbVisualStyle
  2
Facepattern
 70
    15
177
     3
291
     1
 70
    58
 90
        2
176
     1
 90
        2
176
     1
 90
        0
176
     1
 90
        0
176
     1
 40
0.6
176
     1
 40
30.0
176
     1
 62
     7
420
 16777215
176
     1
 90
        1
176
     1
 90
        4
176
     1
 62
     7
176
     1
 62
   257
176
     1
 90
        1
176
     1
 90
        1
176
     1
 40
1.0
176
     1
 90
        8
176
     1
 62
     7
176
     1
 40
1.0
176
     1
 90
        1
176
     1
 90
        6
176
     1
 90
        2
176
     1
 62
     7
176
     1
 90
        5
176
     1
 90
        0
176
     1
 90
        0
176
     1
290
     0
176
     1
 90
        1
176
     1
 40
0.0
176
     1
 90
        0
176
     1
290
     0
176
     1
290
     1
176
     1
290
     1
176
     1
290
     0
176
     1
290
     0
176
     1
290
     0
176
     1
290
     0
176
     1
290
     0
176
     1
290
     0
176
     1
 90
       50
176
     1
 40
0.0
176
     1
 40
1.0
176
     1
 90
        0
176
     1
 62
    18
420
        0
176
     1
 90
       50
176
     1
 90
        3
176
     1
 62
     5
420
      255
176
     1
290
     0
176
     1
 90
       50
176
     1
 90
       50
176
     1
 90
       50
176
     1
290
     0
176
     1
 90
       50
176
     1
 62
   256
176
     0
 40
1.0
176
     0
 90
        2
176
     1
  1
strokes_ogs.tif
176
     1
290
     0
176
     1
 40
1.0
176
     1
 40
1.0
176
     1
1001
ACAD
1000
AcDbSavedByObjectVersion
1070
     0
  0
VISUALSTYLE
  5
2A
102
{ACAD_REACTORS
330
29
102
}
330
29
100
AcDbVisualStyle
  2
Flat
 70
     0
177
     3
291
     1
 70
    58
 90
        2
176
     1
 90
        1
176
     1
 90
        1
176
     1
 90
        2
176
     1
 40
0.6
176
     1
 40
30.0
176
     1
 62
     7
420
 16777215
176
     1
 90
        0
176
     1
 90
        0
176
     1
 62
     7
176
     1
 62
   257
176
     1
 90
        1
176
     1
 90
        1
176
     1
 40
1.0
176
     1
 90
        8
176
     1
 62
     7
176
     1
 40
1.0
176
     1
 90
        1
176
     1
 90
        6
176
     1
 90
        2
176
     1
 62
     7
176
     1
 90
        5
176
     1
 90
        0
176
     1
 90
        0
176
     1
290
     0
176
     1
 90
       13
176
     1
 40
0.0
176
     1
 90
        0
176
     1
290
     0
176
     1
290
     1
176
     1
290
     1
176
     1
290
     0
176
     1
290
     0
176
     1
290
     0
176
     1
290
     0
176
     1
290
     0
176
     1
290
     0
176
     1
 90
       50
176
     1
 40
0.0
176
     1
 40
1.0
176
     1
 90
        0
176
     1
 62
    18
420
        0
176
     1
 90
       50
176
     1
 90
        3
176
     1
 62
     5
420
      255
176
     1
290
     0
176
     1
 90
       50
176
     1
 90
       50
176
     1
 90
       50
176
     1
290
     0
176
     1
 90
       50
176
     1
 62
   256
176
     0
 40
1.0
176
     0
 90
        2
176
     1
  1
strokes_ogs.tif
176
     1
290
     0
176
     1
 40
1.0
176
     1
 40
1.0
176
     1
1001
ACAD
1000
AcDbSavedByObjectVersion
1070
     0
  0
VISUALSTYLE
  5
2B
102
{ACAD_REACTORS
330
29
102
}
330
29
100
AcDbVisualStyle
  2
FlatWithEdges
 70
     1
177
     3
291
     1
 70
    58
 90
        2
176
     1
 90
        1
176
     1
 90
        1
176
     1
 90
        2
176
     1
 40
0.6
176
     1
 40
30.0
176
     1
 62
     7
420
 16777215
176
     1
 90
        1
176
     1
 90
        0
176
     1
 62
     7
176
     1
 62
   257
176
     1
 90
        1
176
     1
 90
        1
176
     1
 40
1.0
176
     1
 90
        0
176
     1
 62
   257
176
     1
 40
1.0
176
     1
 90
        1
176
     1
 90
        6
176
     1
 90
        2
176
     1
 62
     7
176
     1
 90
        5
176
     1
 90
        0
176
     1
 90
        0
176
     1
290
     0
176
     1
 90
       13
176
     1
 40
0.0
176
     1
 90
        0
176
     1
290
     0
176
     1
290
     1
176
     1
290
     1
176
     1
290
     0
176
     1
290
     0
176
     1
290
     0
176
     1
290
     0
176
     1
290
     0
176
     1
290
     0
176
     1
 90
       50
176
     1
 40
0.0
176
     1
 40
1.0
176
     1
 90
        0
176
     1
 62
    18
420
        0
176
     1
 90
       50
176
     1
 90
        3
176
     1
 62
     5
420
      255
176
     1
290
     0
176
     1
 90
       50
176
     1
 90
       50
176
     1
 90
       50
176
     1
290
     0
176
     1
 90
       50
176
     1
 62
   256
176
     0
 40
1.0
176
     0
 90
        2
176
     1
  1
strokes_ogs.tif
176
     1
290
     0
176
     1
 40
1.0
176
     1
 40
1.0
176
     1
1001
ACAD
1000
AcDbSavedByObjectVersion
1070
     0
  0
VISUALSTYLE
  5
2C
102
{ACAD_REACTORS
330
29
102
}
330
29
100
AcDbVisualStyle
  2
Gouraud
 70
     2
177
     3
291
     1
 70
    58
 90
        2
176
     1
 90
        2
176
     1
 90
        1
176
     1
 90
        2
176
     1
 40
0.6
176
     1
 40
30.0
176
     1
 62
     7
420
 16777215
176
     1
 90
        0
176
     1
 90
        0
176
     1
 62
     7
176
     1
 62
   257
176
     1
 90
        1
176
     1
 90
        1
176
     1
 40
1.0
176
     1
 90
        0
176
     1
 62
     7
176
     1
 40
1.0
176
     1
 90
        1
176
     1
 90
        6
176
     1
 90
        2
176
     1
 62
     7
176
     1
 90
        5
176
     1
 90
        0
176
     1
 90
        0
176
     1
290
     0
176
     1
 90
       13
176
     1
 40
0.0
176
     1
 90
        0
176
     1
290
     0
176
     1
290
     1
176
     1
290
     1
176
     1
290
     0
176
     1
290
     0
176
     1
290
     0
176
     1
290
     0
176
     1
290
     0
176
     1
290
     0
176
     1
 90
       50
176
     1
 40
0.0
176
     1
 40
1.0
176
     1
 90
        0
176
     1
 62
    18
420
        0
176
     1
 90
       50
176
     1
 90
        3
176
     1
 62
     5
420
      255
176
     1
290
     0
176
     1
 90
       50
176
     1
 90
       50
176
     1
 90
       50
176
     1
290
     0
176
     1
 90
       50
176
     1
 62
   256
176
     0
 40
1.0
176
     0
 90
        2
176
     1
  1
strokes_ogs.tif
176
     1
290
     0
176
     1
 40
1.0
176
     1
 40
1.0
176
     1
1001
ACAD
1000
AcDbSavedByObjectVersion
1070
     0
  0
VISUALSTYLE
  5
2D
102
{ACAD_REACTORS
330
29
102
}
330
29
100
AcDbVisualStyle
  2
GouraudWithEdges
 70
     3
177
     3
291
     1
 70
    58
 90
        2
176
     1
 90
        2
176
     1
 90
        1
176
     1
 90
        2
176
     1
 40
0.6
176
     1
 40
30.0
176
     1
 62
     7
420
 16777215
176
     1
 90
        1
176
     1
 90
        0
176
     1
 62
     7
176
     1
 62
   257
176
     1
 90
        1
176
     1
 90
        1
176
     1
 40
1.0
176
     1
 90
        0
176
     1
 62
   257
176
     1
 40
1.0
176
     1
 90
        1
176
     1
 90
        6
176
     1
 90
        2
176
     1
 62
     7
176
     1
 90
        5
176
     1
 90
        0
176
     1
 90
        0
176
     1
290
     0
176
     1
 90
       13
176
     1
 40
0.0
176
     1
 90
        0
176
     1
290
     0
176
     1
290
     1
176
     1
290
     1
176
     1
290
     0
176
     1
290
     0
176
     1
290
     0
176
     1
290
     0
176
     1
290
     0
176
     1
290
     0
176
     1
 90
       50
176
     1
 40
0.0
176
     1
 40
1.0
176
     1
 90
        0
176
     1
 62
    18
420
        0
176
     1
 90
       50
176
     1
 90
        3
176
     1
 62
     5
420
      255
176
     1
290
     0
176
     1
 90
       50
176
     1
 90
       50
176
     1
 90
       50
176
     1
290
     0
176
     1
 90
       50
176
     1
 62
   256
176
     0
 40
1.0
176
     0
 90
        2
176
     1
  1
strokes_ogs.tif
176
     1
290
     0
176
     1
 40
1.0
176
     1
 40
1.0
176
     1
1001
ACAD
1000
AcDbSavedByObjectVersion
1070
     0
  0
VISUALSTYLE
  5
31
102
{ACAD_REACTORS
330
29
102
}
330
29
100
AcDbVisualStyle
  2
Hidden
 70
     6
177
     3
291
     0
 70
    58
 90
        1
176
     1
 90
        2
176
     1
 90
        2
176
     1
 90
        0
176
     1
 40
0.6
176
     1
 40
30.0
176
     1
 62
     7
420
 16777215
176
     1
 90
        2
176
     1
 90
        2
176
     1
 62
     7
176
     1
 62
   257
176
     1
 90
        2
176
     1
 90
        1
176
     1
 40
40.0
176
     1
 90
        0
176
     1
 62
   257
176
     1
 40
1.0
176
     1
 90
        1
176
     1
 90
        6
176
     1
 90
        2
176
     1
 62
     7
176
     1
 90
        3
176
     1
 90
        0
176
     1
 90
        0
176
     1
290
     0
176
     1
 90
        1
176
     1
 40
0.0
176
     1
 90
        0
176
     1
290
     0
176
     1
290
     1
176
     1
290
     1
176
     1
290
     0
176
     1
290
     0
176
     1
290
     0
176
     1
290
     0
176
     1
290
     0
176
     1
290
     0
176
     1
 90
       50
176
     1
 40
0.0
176
     1
 40
1.0
176
     1
 90
        0
176
     1
 62
    18
420
        0
176
     1
 90
       50
176
     1
 90
        3
176
     1
 62
     5
420
      255
176
     1
290
     0
176
     1
 90
       50
176
     1
 90
       50
176
     1
 90
       50
176
     1
290
     0
176
     1
 90
       50
176
     1
 62
   256
176
     0
 40
1.0
176
     0
 90
        2
176
     1
  1
strokes_ogs.tif
176
     1
290
     0
176
     1
 40
1.0
176
     1
 40
1.0
176
     1
1001
ACAD
1000
AcDbSavedByObjectVersion
1070
     0
  0
VISUALSTYLE
  5
3F
102
{ACAD_REACTORS
330
29
102
}
330
29
100
AcDbVisualStyle
  2
JitterOff
 70
    20
177
     3
291
     1
 70
    58
 90
        2
176
     0
 90
        2
176
     0
 90
        0
176
     0
 90
        0
176
     0
 40
0.6
176
     0
 40
30.0
176
     0
 62
     7
420
 16777215
176
     0
 90
        1
176
     0
 90
        4
176
     0
 62
     7
176
     0
 62
   257
176
     0
 90
        1
176
     0
 90
        1
176
     0
 40
1.0
176
     0
 90
       10
176
     2
 62
     7
176
     0
 40
1.0
176
     0
 90
        1
176
     0
 90
        6
176
     0
 90
        2
176
     0
 62
     7
176
     0
 90
        5
176
     0
 90
        0
176
     0
 90
        0
176
     0
290
     0
176
     0
 90
        1
176
     0
 40
0.0
176
     0
 90
        0
176
     0
290
     0
176
     0
290
     1
176
     0
290
     1
176
     0
290
     0
176
     0
290
     0
176
     0
290
     0
176
     0
290
     0
176
     0
290
     0
176
     0
290
     0
176
     0
 90
       50
176
     0
 40
0.0
176
     0
 40
1.0
176
     0
 90
        0
176
     0
 62
    18
420
        0
176
     0
 90
       50
176
     0
 90
        3
176
     0
 62
     5
420
      255
176
     0
290
     0
176
     0
 90
       50
176
     0
 90
       50
176
     0
 90
       50
176
     0
290
     0
176
     0
 90
       50
176
     0
 62
   256
176
     0
 40
1.0
176
     0
 90
        2
176
     0
  1
strokes_ogs.tif
176
     0
290
     0
176
     0
 40
1.0
176
     0
 40
1.0
176
     0
1001
ACAD
1000
AcDbSavedByObjectVersion
1070
     0
  0
VISUALSTYLE
  5
37
102
{ACAD_REACTORS
330
29
102
}
330
29
100
AcDbVisualStyle
  2
Linepattern
 70
    14
177
     3
291
     1
 70
    58
 90
        2
176
     1
 90
        2
176
     1
 90
        0
176
     1
 90
        0
176
     1
 40
0.6
176
     1
 40
30.0
176
     1
 62
     7
420
 16777215
176
     1
 90
        1
176
     1
 90
        4
176
     1
 62
     7
176
     1
 62
   257
176
     1
 90
        7
176
     1
 90
        7
176
     1
 40
1.0
176
     1
 90
        8
176
     1
 62
     7
176
     1
 40
1.0
176
     1
 90
        1
176
     1
 90
        6
176
     1
 90
        2
176
     1
 62
     7
176
     1
 90
        5
176
     1
 90
        0
176
     1
 90
        0
176
     1
290
     0
176
     1
 90
        1
176
     1
 40
0.0
176
     1
 90
        0
176
     1
290
     0
176
     1
290
     1
176
     1
290
     1
176
     1
290
     0
176
     1
290
     0
176
     1
290
     0
176
     1
290
     0
176
     1
290
     0
176
     1
290
     0
176
     1
 90
       50
176
     1
 40
0.0
176
     1
 40
1.0
176
     1
 90
        0
176
     1
 62
    18
420
        0
176
     1
 90
       50
176
     1
 90
        3
176
     1
 62
     5
420
      255
176
     1
290
     0
176
     1
 90
       50
176
     1
 90
       50
176
     1
 90
       50
176
     1
290
     0
176
     1
 90
       50
176
     1
 62
   256
176
     0
 40
1.0
176
     0
 90
        2
176
     1
  1
strokes_ogs.tif
176
     1
290
     0
176
     1
 40
1.0
176
     1
 40
1.0
176
     1
1001
ACAD
1000
AcDbSavedByObjectVersion
1070
     0
  0
VISUALSTYLE
  5
40
102
{ACAD_REACTORS
330
29
102
}
330
29
100
AcDbVisualStyle
  2
OverhangOff
 70
    21
177
     3
291
     1
 70
    58
 90
        2
176
     0
 90
        2
176
     0
 90
        0
176
     0
 90
        0
176
     0
 40
0.6
176
     0
 40
30.0
176
     0
 62
     7
420
 16777215
176
     0
 90
        1
176
     0
 90
        4
176
     0
 62
     7
176
     0
 62
   257
176
     0
 90
        1
176
     0
 90
        1
176
     0
 40
1.0
176
     0
 90
        9
176
     2
 62
     7
176
     0
 40
1.0
176
     0
 90
        1
176
     0
 90
        6
176
     0
 90
        2
176
     0
 62
     7
176
     0
 90
        5
176
     0
 90
        0
176
     0
 90
        0
176
     0
290
     0
176
     0
 90
        1
176
     0
 40
0.0
176
     0
 90
        0
176
     0
290
     0
176
     0
290
     1
176
     0
290
     1
176
     0
290
     0
176
     0
290
     0
176
     0
290
     0
176
     0
290
     0
176
     0
290
     0
176
     0
290
     0
176
     0
 90
       50
176
     0
 40
0.0
176
     0
 40
1.0
176
     0
 90
        0
176
     0
 62
    18
420
        0
176
     0
 90
       50
176
     0
 90
        3
176
     0
 62
     5
420
      255
176
     0
290
     0
176
     0
 90
       50
176
     0
 90
       50
176
     0
 90
       50
176
     0
290
     0
176
     0
 90
       50
176
     0
 62
   256
176
     0
 40
1.0
176
     0
 90
        2
176
     0
  1
strokes_ogs.tif
176
     0
290
     0
176
     0
 40
1.0
176
     0
 40
1.0
176
     0
1001
ACAD
1000
AcDbSavedByObjectVersion
1070
     0
  0
VISUALSTYLE
  5
33
102
{ACAD_REACTORS
330
29
102
}
330
29
100
AcDbVisualStyle
  2
Realistic
 70
     8
177
     3
291
     0
 70
    58
 90
        2
176
     1
 90
        3
176
     1
 90
        0
176
     1
 90
        2
176
     1
 40
0.6
176
     1
 40
30.0
176
     1
 62
     7
420
 16777215
176
     1
 90
        0
176
     1
 90
        0
176
     1
 62
     7
176
     1
 62
   257
176
     1
 90
        1
176
     1
 90
        1
176
     1
 40
1.0
176
     1
 90
        8
176
     1
 62
   257
176
     1
 40
1.0
176
     1
 90
        1
176
     1
 90
        6
176
     1
 90
        2
176
     1
 62
     7
176
     1
 90
        3
176
     1
 90
        0
176
     1
 90
        0
176
     1
290
     0
176
     1
 90
       13
176
     1
 40
0.0
176
     1
 90
        0
176
     1
290
     0
176
     1
290
     1
176
     1
290
     1
176
     1
290
     0
176
     1
290
     0
176
     1
290
     0
176
     1
290
     0
176
     1
290
     0
176
     1
290
     0
176
     1
 90
       50
176
     1
 40
0.0
176
     1
 40
1.0
176
     1
 90
        0
176
     1
 62
    18
420
        0
176
     1
 90
       50
176
     1
 90
        3
176
     1
 62
     5
420
      255
176
     1
290
     0
176
     1
 90
       50
176
     1
 90
       50
176
     1
 90
       50
176
     1
290
     0
176
     1
 90
       50
176
     1
 62
   256
176
     0
 40
1.0
176
     0
 90
        2
176
     1
  1
strokes_ogs.tif
176
     1
290
     0
176
     1
 40
1.0
176
     1
 40
1.0
176
     1
1001
ACAD
1000
AcDbSavedByObjectVersion
1070
     0
  0
VISUALSTYLE
  5
3E
102
{ACAD_REACTORS
330
29
102
}
330
29
100
AcDbVisualStyle
  2
Shaded
 70
    27
177
     3
291
     0
 70
    58
 90
        2
176
     1
 90
        2
176
     1
 90
        1
176
     1
 90
        2
176
     1
 40
0.6
176
     1
 40
30.0
176
     1
 62
     7
420
 16777215
176
     1
 90
        0
176
     1
 90
        4
176
     1
 62
     7
176
     1
 62
   257
176
     1
 90
        1
176
     1
 90
        1
176
     1
 40
1.0
176
     1
 90
        8
176
     1
 62
   257
176
     1
 40
1.0
176
     1
 90
        1
176
     1
 90
        6
176
     1
 90
        2
176
     1
 62
     8
420
  7895160
176
     1
 90
        3
176
     1
 90
        0
176
     1
 90
        0
176
     1
290
     0
176
     1
 90
        5
176
     1
 40
0.0
176
     1
 90
        0
176
     1
290
     0
176
     1
290
     1
176
     1
290
     1
176
     1
290
     0
176
     1
290
     0
176
     1
290
     0
176
     1
290
     0
176
     1
290
     0
176
     1
290
     0
176
     1
 90
       50
176
     1
 40
0.0
176
     1
 40
1.0
176
     1
 90
        0
176
     1
 62
    18
420
        0
176
     1
 90
       50
176
     1
 90
        3
176
     1
 62
     5
420
      255
176
     1
290
     0
176
     1
 90
       50
176
     1
 90
       50
176
     1
 90
       50
176
     1
290
     0
176
     1
 90
       50
176
     1
 62
   256
176
     0
 40
1.0
176
     0
 90
        2
176
     1
  1
strokes_ogs.tif
176
     1
290
     0
176
     1
 40
1.0
176
     1
 40
1.0
176
     1
1001
ACAD
1000
AcDbSavedByObjectVersion
1070
     0
  0
VISUALSTYLE
  5
3D
102
{ACAD_REACTORS
330
29
102
}
330
29
100
AcDbVisualStyle
  2
Shaded with edges
 70
    26
177
     3
291
     0
 70
    58
 90
        2
176
     1
 90
        2
176
     1
 90
        1
176
     1
 90
        2
176
     1
 40
0.6
176
     1
 40
30.0
176
     1
 62
     7
420
 16777215
176
     1
 90
        1
176
     1
 90
        2
176
     1
 62
     7
176
     1
 62
   257
176
     1
 90
        2
176
     1
 90
        1
176
     1
 40
1.0
176
     1
 90
        8
176
     1
 62
   257
176
     1
 40
1.0
176
     1
 90
        1
176
     1
 90
        6
176
     1
 90
        2
176
     1
 62
     7
176
     1
 90
        3
176
     1
 90
        0
176
     1
 90
        0
176
     1
290
     0
176
     1
 90
        5
176
     1
 40
0.0
176
     1
 90
        0
176
     1
290
     0
176
     1
290
     1
176
     1
290
     1
176
     1
290
     0
176
     1
290
     0
176
     1
290
     0
176
     1
290
     0
176
     1
290
     0
176
     1
290
     0
176
     1
 90
       50
176
     1
 40
0.0
176
     1
 40
1.0
176
     1
 90
        0
176
     1
 62
    18
420
        0
176
     1
 90
       50
176
     1
 90
        3
176
     1
 62
     5
420
      255
176
     1
290
     0
176
     1
 90
       50
176
     1
 90
       50
176
     1
 90
       50
176
     1
290
     0
176
     1
 90
       50
176
     1
 62
   256
176
     0
 40
1.0
176
     0
 90
        2
176
     1
  1
strokes_ogs.tif
176
     1
290
     0
176
     1
 40
1.0
176
     1
 40
1.0
176
     1
1001
ACAD
1000
AcDbSavedByObjectVersion
1070
     0
  0
VISUALSTYLE
  5
3A
102
{ACAD_REACTORS
330
29
102
}
330
29
100
AcDbVisualStyle
  2
Shades of Gray
 70
    23
177
     3
291
     0
 70
    58
 90
        2
176
     1
 90
        2
176
     1
 90
        3
176
     1
 90
        0
176
     1
 40
0.6
176
     1
 40
30.0
176
     1
 62
     7
420
 16777215
176
     1
 90
        2
176
     1
 90
        2
176
     1
 62
     7
176
     1
 62
     7
176
     1
 90
        1
176
     1
 90
        1
176
     1
 40
40.0
176
     1
 90
        8
176
     1
 62
     7
176
     1
 40
1.0
176
     1
 90
        1
176
     1
 90
        6
176
     1
 90
        2
176
     1
 62
     7
176
     1
 90
        3
176
     1
 90
        0
176
     1
 90
        0
176
     1
290
     0
176
     1
 90
        1
176
     1
 40
0.0
176
     1
 90
        0
176
     1
290
     0
176
     1
290
     1
176
     1
290
     1
176
     1
290
     0
176
     1
290
     0
176
     1
290
     0
176
     1
290
     0
176
     1
290
     0
176
     1
290
     0
176
     1
 90
       50
176
     1
 40
0.0
176
     1
 40
1.0
176
     1
 90
        0
176
     1
 62
    18
420
        0
176
     1
 90
       50
176
     1
 90
        3
176
     1
 62
     5
420
      255
176
     1
290
     0
176
     1
 90
       50
176
     1
 90
       50
176
     1
 90
       50
176
     1
290
     0
176
     1
 90
       50
176
     1
 62
   256
176
     0
 40
1.0
176
     0
 90
        2
176
     1
  1
strokes_ogs.tif
176
     1
290
     0
176
     1
 40
1.0
176
     1
 40
1.0
176
     1
1001
ACAD
1000
AcDbSavedByObjectVersion
1070
     0
  0
VISUALSTYLE
  5
3B
102
{ACAD_REACTORS
330
29
102
}
330
29
100
AcDbVisualStyle
  2
Sketchy
 70
    24
177
     3
291
     0
 70
    58
 90
        1
176
     1
 90
        2
176
     1
 90
        2
176
     1
 90
        0
176
     1
 40
0.6
176
     1
 40
30.0
176
     1
 62
     7
420
 16777215
176
     1
 90
        2
176
     1
 90
        2
176
     1
 62
     7
176
     1
 62
     7
176
     1
 90
        1
176
     1
 90
        1
176
     1
 40
40.0
176
     1
 90
       11
176
     1
 62
     7
176
     1
 40
1.0
176
     1
 90
        1
176
     1
 90
        6
176
     1
 90
        2
176
     1
 62
     7
176
     1
 90
        6
176
     1
 90
        0
176
     1
 90
        0
176
     1
290
     0
176
     1
 90
        1
176
     1
 40
0.0
176
     1
 90
        0
176
     1
290
     0
176
     1
290
     1
176
     1
290
     1
176
     1
290
     0
176
     1
290
     0
176
     1
290
     0
176
     1
290
     0
176
     1
290
     0
176
     1
290
     0
176
     1
 90
       50
176
     1
 40
0.0
176
     1
 40
1.0
176
     1
 90
        0
176
     1
 62
    18
420
        0
176
     1
 90
       50
176
     1
 90
        3
176
     1
 62
     5
420
      255
176
     1
290
     0
176
     1
 90
       50
176
     1
 90
       50
176
     1
 90
       50
176
     1
290
     0
176
     1
 90
       50
176
     1
 62
   256
176
     0
 40
1.0
176
     0
 90
        2
176
     1
  1
strokes_ogs.tif
176
     1
290
     0
176
     1
 40
1.0
176
     1
 40
1.0
176
     1
1001
ACAD
1000
AcDbSavedByObjectVersion
1070
     0
  0
VISUALSTYLE
  5
36
102
{ACAD_REACTORS
330
29
102
}
330
29
100
AcDbVisualStyle
  2
Thicken
 70
    13
177
     3
291
     1
 70
    58
 90
        2
176
     1
 90
        2
176
     1
 90
        0
176
     1
 90
        0
176
     1
 40
0.6
176
     1
 40
30.0
176
     1
 62
     7
420
 16777215
176
     1
 90
        1
176
     1
 90
        4
176
     1
 62
     7
176
     1
 62
   257
176
     1
 90
        1
176
     1
 90
        1
176
     1
 40
1.0
176
     1
 90
       12
176
     1
 62
     7
176
     1
 40
1.0
176
     1
 90
        1
176
     1
 90
        6
176
     1
 90
        2
176
     1
 62
     7
176
     1
 90
        5
176
     1
 90
        0
176
     1
 90
        0
176
     1
290
     0
176
     1
 90
        1
176
     1
 40
0.0
176
     1
 90
        0
176
     1
290
     0
176
     1
290
     1
176
     1
290
     1
176
     1
290
     0
176
     1
290
     0
176
     1
290
     0
176
     1
290
     0
176
     1
290
     0
176
     1
290
     0
176
     1
 90
       50
176
     1
 40
0.0
176
     1
 40
1.0
176
     1
 90
        0
176
     1
 62
    18
420
        0
176
     1
 90
       50
176
     1
 90
        3
176
     1
 62
     5
420
      255
176
     1
290
     0
176
     1
 90
       50
176
     1
 90
       50
176
     1
 90
       50
176
     1
290
     0
176
     1
 90
       50
176
     1
 62
   256
176
     0
 40
1.0
176
     0
 90
        2
176
     1
  1
strokes_ogs.tif
176
     1
290
     0
176
     1
 40
1.0
176
     1
 40
1.0
176
     1
1001
ACAD
1000
AcDbSavedByObjectVersion
1070
     0
  0
VISUALSTYLE
  5
30
102
{ACAD_REACTORS
330
29
102
}
330
29
100
AcDbVisualStyle
  2
Wireframe
 70
     5
177
     3
291
     0
 70
    58
 90
        0
176
     1
 90
        2
176
     1
 90
        0
176
     1
 90
        0
176
     1
 40
0.6
176
     1
 40
30.0
176
     1
 62
     7
420
 16777215
176
     1
 90
        1
176
     1
 90
        4
176
     1
 62
     7
176
     1
 62
   257
176
     1
 90
        1
176
     1
 90
        1
176
     1
 40
1.0
176
     1
 90
        0
176
     1
 62
   257
176
     1
 40
1.0
176
     1
 90
        1
176
     1
 90
        6
176
     1
 90
        2
176
     1
 62
     7
176
     1
 90
        3
176
     1
 90
        0
176
     1
 90
        0
176
     1
290
     0
176
     1
 90
        1
176
     1
 40
0.0
176
     1
 90
        0
176
     1
290
     0
176
     1
290
     1
176
     1
290
     1
176
     1
290
     0
176
     1
290
     0
176
     1
290
     0
176
     1
290
     0
176
     1
290
     0
176
     1
290
     0
176
     1
 90
       50
176
     1
 40
0.0
176
     1
 40
1.0
176
     1
 90
        0
176
     1
 62
    18
420
        0
176
     1
 90
       50
176
     1
 90
        3
176
     1
 62
     5
420
      255
176
     1
290
     0
176
     1
 90
       50
176
     1
 90
       50
176
     1
 90
       50
176
     1
290
     0
176
     1
 90
       50
176
     1
 62
   256
176
     0
 40
1.0
176
     0
 90
        2
176
     1
  1
strokes_ogs.tif
176
     1
290
     0
176
     1
 40
1.0
176
     1
 40
1.0
176
     1
1001
ACAD
1000
AcDbSavedByObjectVersion
1070
     0
  0
VISUALSTYLE
  5
3C
102
{ACAD_REACTORS
330
29
102
}
330
29
100
AcDbVisualStyle
  2
X-Ray
 70
    25
177
     3
291
     0
 70
    58
 90
        2
176
     1
 90
        2
176
     1
 90
        1
176
     1
 90
        1
176
     1
 40
0.5
176
     1
 40
30.0
176
     1
 62
     7
420
 16777215
176
     1
 90
        1
176
     1
 90
        0
176
     1
 62
     7
176
     1
 62
   257
176
     1
 90
        1
176
     1
 90
        1
176
     1
 40
1.0
176
     1
 90
        8
176
     1
 62
     7
176
     1
 40
1.0
176
     1
 90
        1
176
     1
 90
        6
176
     1
 90
        2
176
     1
 62
     7
176
     1
 90
        3
176
     1
 90
        0
176
     1
 90
        0
176
     1
290
     0
176
     1
 90
       13
176
     1
 40
0.0
176
     1
 90
        0
176
     1
290
     0
176
     1
290
     1
176
     1
290
     1
176
     1
290
     0
176
     1
290
     0
176
     1
290
     0
176
     1
290
     0
176
     1
290
     0
176
     1
290
     0
176
     1
 90
       50
176
     1
 40
0.0
176
     1
 40
1.0
176
     1
 90
        0
176
     1
 62
    18
420
        0
176
     1
 90
       50
176
     1
 90
        3
176
     1
 62
     5
420
      255
176
     1
290
     0
176
     1
 90
       50
176
     1
 90
       50
176
     1
 90
       50
176
     1
290
     0
176
     1
 90
       50
176
     1
 62
   256
176
     0
 40
1.0
176
     0
 90
        2
176
     1
  1
strokes_ogs.tif
176
     1
290
     0
176
     1
 40
1.0
176
     1
 40
1.0
176
     1
1001
ACAD
1000
AcDbSavedByObjectVersion
1070
     0
  0
DICTIONARYVAR
  5
90
102
{ACAD_REACTORS
330
8B
102
}
330
8B
100
DictionaryVariables
280
     0
  1
1:1
  0
DICTIONARYVAR
  5
8D
102
{ACAD_REACTORS
330
8B
102
}
330
8B
100
DictionaryVariables
280
     0
  1
STANDARD
  0
DICTIONARYVAR
  5
8C
102
{ACAD_REACTORS
330
8B
102
}
330
8B
100
DictionaryVariables
280
     0
  1
STANDARD
  0
DICTIONARYVAR
  5
8E
102
{ACAD_REACTORS
330
8B
102
}
330
8B
100
DictionaryVariables
280
     0
  1
Imperial24
  0
DICTIONARYVAR
  5
8F
102
{ACAD_REACTORS
330
8B
102
}
330
8B
100
DictionaryVariables
280
     0
  1
Imperial24
  0
DICTIONARY
  5
96
330
6B
100
AcDbDictionary
280
     1
281
     1
  3
ACAD_XREC_ROUNDTRIP
360
97
  0
DICTIONARY
  5
1A
330
19
100
AcDbDictionary
280
     1
281
     1
  3
BUMPTILE
360
1C
  3
DIFFUSETILE
360
1B
  3
OPACITYTILE
360
1F
  3
REFLECTIONTILE
360
1E
  3
REFRACTIONTILE
360
20
  3
SPECULARTILE
360
1D
  0
DICTIONARY
  5
12
330
11
100
AcDbDictionary
280
     1
281
     1
  3
BUMPTILE
360
14
  3
DIFFUSETILE
360
13
  3
OPACITYTILE
360
17
  3
REFLECTIONTILE
360
16
  3
REFRACTIONTILE
360
18
  3
SPECULARTILE
360
15
  0
DICTIONARY
  5
22
330
21
100
AcDbDictionary
280
     1
281
     1
  3
BUMPTILE
360
24
  3
DIFFUSETILE
360
23
  3
OPACITYTILE
360
27
  3
REFLECTIONTILE
360
26
  3
REFRACTIONTILE
360
28
  3
SPECULARTILE
360
25
  0
DICTIONARY
  5
94
330
69
100
AcDbDictionary
280
     1
281
     1
  3
ACAD_XREC_ROUNDTRIP
360
95
  0
DICTIONARY
  5
91
330
65
100
AcDbDictionary
280
     1
281
     1
  3
ACAD_ROUNDTRIP_2008_TABLESTYLE_CELLSTYLEMAP
360
92
  0
XRECORD
  5
97
102
{ACAD_REACTORS
330
96
102
}
330
96
100
AcDbXrecord
280
     1
102
DISPLAYNAME
  1
Imperial24
102
FLAGS
 90
        0
  0
XRECORD
  5
1C
102
{ACAD_REACTORS
330
1A
102
}
330
1A
100
AcDbXrecord
280
     1
270
     1
271
     1
  0
XRECORD
  5
1B
102
{ACAD_REACTORS
330
1A
102
}
330
1A
100
AcDbXrecord
280
     1
270
     1
271
     1
  0
XRECORD
  5
1F
102
{ACAD_REACTORS
330
1A
102
}
330
1A
100
AcDbXrecord
280
     1
270
     1
271
     1
  0
XRECORD
  5
1E
102
{ACAD_REACTORS
330
1A
102
}
330
1A
100
AcDbXrecord
280
     1
270
     1
271
     1
  0
XRECORD
  5
20
102
{ACAD_REACTORS
330
1A
102
}
330
1A
100
AcDbXrecord
280
     1
270
     1
271
     1
  0
XRECORD
  5
1D
102
{ACAD_REACTORS
330
1A
102
}
330
1A
100
AcDbXrecord
280
     1
270
     1
271
     1
  0
XRECORD
  5
14
102
{ACAD_REACTORS
330
12
102
}
330
12
100
AcDbXrecord
280
     1
270
     1
271
     1
  0
XRECORD
  5
13
102
{ACAD_REACTORS
330
12
102
}
330
12
100
AcDbXrecord
280
     1
270
     1
271
     1
  0
XRECORD
  5
17
102
{ACAD_REACTORS
330
12
102
}
330
12
100
AcDbXrecord
280
     1
270
     1
271
     1
  0
XRECORD
  5
16
102
{ACAD_REACTORS
330
12
102
}
330
12
100
AcDbXrecord
280
     1
270
     1
271
     1
  0
XRECORD
  5
18
102
{ACAD_REACTORS
330
12
102
}
330
12
100
AcDbXrecord
280
     1
270
     1
271
     1
  0
XRECORD
  5
15
102
{ACAD_REACTORS
330
12
102
}
330
12
100
AcDbXrecord
280
     1
270
     1
271
     1
  0
XRECORD
  5
24
102
{ACAD_REACTORS
330
22
102
}
330
22
100
AcDbXrecord
280
     1
270
     1
271
     1
  0
XRECORD
  5
23
102
{ACAD_REACTORS
330
22
102
}
330
22
100
AcDbXrecord
280
     1
270
     1
271
     1
  0
XRECORD
  5
27
102
{ACAD_REACTORS
330
22
102
}
330
22
100
AcDbXrecord
280
     1
270
     1
271
     1
  0
XRECORD
  5
26
102
{ACAD_REACTORS
330
22
102
}
330
22
100
AcDbXrecord
280
     1
270
     1
271
     1
  0
XRECORD
  5
28
102
{ACAD_REACTORS
330
22
102
}
330
22
100
AcDbXrecord
280
     1
270
     1
271
     1
  0
XRECORD
  5
25
102
{ACAD_REACTORS
330
22
102
}
330
22
100
AcDbXrecord
280
     1
270
     1
271
     1
  0
XRECORD
  5
95
102
{ACAD_REACTORS
330
94
102
}
330
94
100
AcDbXrecord
280
     1
102
DISPLAYNAME
  1
Imperial24
102
FLAGS
 90
        0
  0
CELLSTYLEMAP
  5
92
102
{ACAD_REACTORS
330
91
102
}
330
91
100
AcDbCellStyleMap
 90
        3
300
CELLSTYLE
  1
TABLEFORMAT_BEGIN
 90
        5
170
     1
 91
        0
 92
    32768
 62
   257
 93
        1
300
CONTENTFORMAT
  1
CONTENTFORMAT_BEGIN
 90
        0
 91
        0
 92
      512
 93
        0
300

 40
0.0
140
1.0
 94
        5
 62
     0
340
55
144
0.25
309
CONTENTFORMAT_END
171
     0
 94
        0
309
TABLEFORMAT_END
  1
CELLSTYLE_BEGIN
 90
        1
 91
        1
300
_TITLE
309
CELLSTYLE_END
300
CELLSTYLE
  1
TABLEFORMAT_BEGIN
 90
        5
170
     1
 91
        0
 92
        0
 62
   257
 93
        1
300
CONTENTFORMAT
  1
CONTENTFORMAT_BEGIN
 90
        0
 91
        0
 92
      512
 93
        0
300

 40
0.0
140
1.0
 94
        5
 62
     0
340
55
144
0.18
309
CONTENTFORMAT_END
171
     0
 94
        0
309
TABLEFORMAT_END
  1
CELLSTYLE_BEGIN
 90
        2
 91
        1
300
_HEADER
309
CELLSTYLE_END
300
CELLSTYLE
  1
TABLEFORMAT_BEGIN
 90
        5
170
     1
 91
        0
 92
        0
 62
   257
 93
        1
300
CONTENTFORMAT
  1
CONTENTFORMAT_BEGIN
 90
        0
 91
        0
 92
      512
 93
        0
300

 40
0.0
140
1.0
 94
        2
 62
     0
340
55
144
0.18
309
CONTENTFORMAT_END
171
     0
 94
        0
309
TABLEFORMAT_END
  1
CELLSTYLE_BEGIN
 90
        3
 91
        2
300
_DATA
309
CELLSTYLE_END
  0
ENDSEC
  0
EOF
